<svg width="74" height="79" viewBox="0 0 74 79" fill="none" xmlns="http://www.w3.org/2000/svg">
<path d="M25 39L2 34.5L71.5 1.5L25 39Z" fill="#0DD180" stroke="#042C89"/>
<path d="M72 2L58 57L32 41L72 2Z" fill="#0DD180" stroke="#042C89"/>
<path d="M26 39V63.5L31.5 41L71.5 0.5L26 39Z" fill="#FDFDFF" stroke="#042C89"/>
<path d="M38.5 46L26 62L31.5 41.5L38.5 46Z" fill="#0DD180"/>
<path d="M26.8668 63.9803L26.8519 63.9313L26.8793 63.9008L26.8668 63.9803Z" fill="#042C89"/>
<path d="M34.8725 71.2636C35.6559 70.968 36.0998 70.1152 35.6696 69.1325C34.7377 67.0005 32.5895 65.3947 32.5895 65.3947C32.5895 65.3947 32.0807 68.0078 32.8334 70.2073C33.1808 71.2208 34.0891 71.5592 34.8725 71.2636Z" fill="#042C89"/>
<path d="M16.7074 65.1538C16.1734 64.5088 16.2105 63.5481 17.0711 62.9078C18.9371 61.5178 21.5986 61.1875 21.5986 61.1875C21.5986 61.1875 20.7457 63.7093 19.002 65.2468C18.1988 65.9522 17.2414 65.7988 16.7074 65.1538Z" fill="#042C89"/>
<path d="M18.921 77.3638C17.9846 76.8327 17.7369 75.3826 18.7218 73.75C20.8602 70.2098 24.4323 67.6025 24.4323 67.6025C24.4323 67.6025 24.0422 72.0136 22.1141 75.6752C21.2257 77.3636 19.8594 77.8963 18.921 77.3638Z" fill="#042C89"/>
<path d="M23.1397 30.4922C25.6073 29.128 28.075 27.7639 30.5426 26.3998C31.4336 25.9224 30.6111 24.6265 29.7886 25.1039C27.321 26.468 24.8534 27.8321 22.3857 29.1962C21.4947 29.6055 22.3172 30.9696 23.1397 30.4922Z" fill="#042C89"/>
<path d="M30.1999 28.3813C29.0346 28.9952 27.8694 29.609 26.7041 30.1547C25.813 30.6321 26.6356 31.928 27.4581 31.4506C28.6234 30.8367 29.7886 30.2229 30.9539 29.6772C31.845 29.268 31.0224 27.9039 30.1999 28.3813Z" fill="#042C89"/>
<path d="M71.7073 0.0538477C59.7805 4.41901 48.6077 10.4893 37.0237 15.8094C24.6857 21.4704 12.6904 27.6771 0.489418 33.5428C-0.264573 33.8839 -0.127483 35.3162 0.763596 35.3844C8.78331 36.4757 16.5974 38.249 24.48 40.0224C24.6171 48.0024 24.4115 55.9825 24.5486 63.9626C24.5486 65.0538 25.9195 65.2585 26.4678 64.5082C30.649 58.5743 34.8303 52.6404 39.2857 46.9111C45.5232 50.6625 51.7608 54.3456 57.6556 58.5061C58.204 58.8471 59.0265 58.5061 59.1636 57.8923C61.0143 48.3435 62.9335 38.9993 65.6068 29.6551C68.3486 20.2427 70.8847 10.8303 73.0096 1.28155C73.1467 0.599493 72.4613 -0.218975 71.7073 0.0538477ZM31.4716 40.3634C31.1974 40.568 30.9918 40.8408 30.9918 41.1819C30.5805 41.9321 30.3063 42.7506 29.9636 43.9783C28.7298 48.8209 27.9073 53.7999 26.5364 58.5743C26.5364 52.163 26.6735 45.7516 26.5364 39.3403C38.7373 28.632 51.281 18.1966 64.0988 8.17032C56.4904 15.6729 48.8819 23.1074 41.2049 30.5418C38.8744 32.8608 36.4753 35.1116 34.1448 37.4306C32.9796 38.6583 32.157 39.4767 31.4716 40.3634ZM66.635 4.21439C52.6519 15.1273 38.8744 26.4494 25.5082 38.1126C18.5166 36.5439 11.5251 34.9751 4.46501 33.8839C15.2951 28.632 26.0566 23.1074 37.0237 18.0601C46.8941 13.4904 56.5589 8.37494 66.635 4.21439ZM28.1129 58.5743C29.2782 54.2774 30.1007 49.9122 31.1289 45.6152C31.403 44.5239 31.6087 43.5009 32.0199 42.546C33.8021 43.6373 35.6528 44.7968 37.5035 45.8881C34.2819 49.9804 31.1974 54.2774 28.1129 58.5743ZM63.619 29.1095C61.0828 37.9762 59.1636 46.8429 57.45 55.8461C49.5674 50.3896 41.2049 45.6834 33.1166 40.7044C33.1852 40.6362 33.2537 40.568 33.3223 40.4998C34.2819 39.4085 35.4472 38.3854 36.5439 37.3623C38.9429 35.0434 41.2735 32.7244 43.6725 30.4054C52.5148 21.7432 61.4256 13.0129 70.2678 4.3508C68.28 12.6719 66.0181 20.9248 63.619 29.1095Z" fill="#042C89"/>
</svg>
