<svg width="69" height="88" viewBox="0 0 69 88" fill="none" xmlns="http://www.w3.org/2000/svg">
<g clip-path="url(#clip0_144_33264)">
<path d="M28.7216 2.52832C32.2511 2.52832 35.7115 2.59681 39.2411 2.59681L39.2411 2.66529C39.0335 2.66529 38.8259 2.80226 38.7567 3.0077C38.4106 4.10342 38.7567 5.13066 38.549 6.22638C38.1338 8.4863 36.0576 8.21237 34.2582 8.07541C33.0124 8.00693 30.9362 8.14389 29.8289 7.59603C29.1368 7.25362 29.3444 7.3221 29.3444 6.50031C29.3444 5.67852 29.552 4.85673 29.6213 4.03494C29.6905 3.48708 29.1368 3.14467 28.6523 3.14467L28.7216 2.52832Z" fill="#0DD180"/>
<path d="M39.2406 2.66635C41.5936 2.66635 43.8775 2.73483 46.1613 2.73483L46.1613 2.80331C45.8153 7.18619 46.369 13.2127 42.701 16.0204C39.4482 18.5543 34.396 17.5955 30.2436 17.5955C28.5134 17.5955 26.7832 17.5955 25.053 17.5955C22.6307 17.5955 21.6618 18.0064 21.039 15.4041C20.2085 11.9115 20.6929 7.59709 20.8313 4.036C20.8313 3.41966 20.4161 3.14573 19.9316 3.14573L19.9316 2.4609C22.8384 2.52938 25.7451 2.52938 28.6518 2.52938L28.6518 3.21421C28.3058 3.21421 27.8905 3.41966 27.8213 3.83055C27.6137 5.2002 26.714 7.73406 27.8213 8.82978C29.0671 9.99398 32.5966 9.85701 34.1192 9.92549C35.711 9.99398 37.9948 10.4734 39.1714 9.10371C40.6247 7.46013 39.5866 5.13172 39.6558 3.21421C39.6558 2.87179 39.379 2.66635 39.1022 2.66635L39.2406 2.66635Z" fill="#0DD180"/>
<path d="M30.4509 81.6995C32.3887 81.6995 34.3958 81.768 36.3336 81.768C37.1641 81.768 38.7558 81.4941 39.5171 81.768C40.7629 82.2474 40.4168 83.6171 40.14 84.7813C36.8872 84.7128 33.5653 84.6443 30.3125 84.5758C30.3817 84.5073 30.3817 84.3704 30.3817 84.3019C30.3817 83.4801 30.4509 82.5898 30.4509 81.6995Z" fill="#0DD180"/>
<path d="M28.7208 84.5753C26.783 84.5068 24.8452 84.5068 22.9073 84.5068C22.9765 82.6578 22.9765 80.8088 22.9765 78.9597C22.9765 78.3434 22.5613 73.5496 22.9765 73.1387C24.7067 71.3582 33.2885 72.9333 35.7108 73.0018C39.1711 73.0703 46.7148 71.8376 48.445 75.6726C49.4831 78.001 48.6526 82.2469 48.8602 85.0547C46.3687 84.9177 43.808 84.8492 41.2474 84.8492C41.7318 83.2741 42.1471 81.0142 40.3477 80.3979C39.0327 79.9185 37.1641 80.1924 35.8492 80.124C33.7729 80.0555 31.6275 79.987 29.5513 79.987C29.0668 79.987 28.6516 80.3979 28.6516 80.8773C28.6516 82.0415 28.5824 83.2057 28.6516 84.3699C28.6516 84.3699 28.7208 84.5068 28.7208 84.5753Z" fill="#0DD180"/>
<path d="M2.69941 44.7147C7.68236 45.1941 12.6653 45.6735 17.7175 46.0159C17.9943 53.2065 22.3544 58.7536 30.244 59.4384C38.4106 60.1233 48.0304 56.5622 48.3765 47.3855C54.1899 47.454 59.9341 47.454 65.6092 47.2486C65.4015 60.1917 65.1247 73.1349 65.3323 86.0781C60.211 85.5303 55.0204 85.1879 49.8298 84.9824C50.4527 81.5583 51.56 74.984 49.3454 72.4501C46.7847 69.5054 38.9642 70.9435 35.573 70.8065C32.1819 70.6696 28.7907 70.5326 25.3303 70.4641C24.223 70.4641 22.2852 70.1217 21.3855 70.9435C20.555 71.6968 20.7626 72.9295 20.6934 73.8882C20.4858 77.3124 20.6934 80.805 20.7626 84.2976C18.894 84.2291 17.0254 84.2291 15.1568 84.1606C12.8729 84.0921 9.8278 84.3661 7.61315 83.8867C6.78266 83.8867 5.95217 83.8182 5.12168 83.8182C4.29119 82.3116 3.39149 80.8735 2.561 79.3668C1.52288 75.9427 2.561 70.738 2.561 67.1085C2.6302 59.7809 2.6302 52.2478 2.69941 44.7147Z" fill="#0DD180"/>
<path d="M24.7759 51.5659C24.5683 51.292 24.0146 51.429 24.1531 51.8399C24.9835 53.6889 27.129 54.7846 29.136 54.7846C29.4128 54.7846 29.4128 54.4422 29.136 54.3737C27.129 54.0998 25.8832 53.0041 24.7759 51.5659ZM25.3988 50.0593C24.9835 49.9223 24.6375 50.5387 24.9835 50.8126C25.3988 51.2235 26.0217 51.4974 26.5061 51.7714C27.0598 52.1138 27.6134 52.3877 28.2363 52.6616C28.5131 52.7986 28.79 52.4562 28.5823 52.2507C28.0979 51.8399 27.6134 51.4974 27.0598 51.0865C26.5061 50.7441 26.0217 50.2648 25.3988 50.0593ZM33.7729 57.5239C26.1601 57.9348 20.2774 54.2367 19.793 46.2243C28.8592 46.9091 37.9946 47.32 47.0608 47.457C45.815 53.8943 40.0708 57.113 33.7729 57.5239Z" fill="#0DD180"/>
<path d="M19.8623 43.1423C21.7309 25.5423 49.8984 30.747 46.8533 44.375C37.9255 43.8271 28.8593 43.4847 19.8623 43.1423Z" fill="#0DD180"/>
<path d="M48.8608 33.7578C48.9993 34.0317 49.4837 34.0317 49.4837 33.6893C49.4145 32.0457 48.1688 30.3336 46.5078 29.9227C45.8849 29.7858 45.4697 30.676 46.0925 30.95C46.7154 31.2239 47.2691 31.4978 47.8227 31.9772C48.3072 32.5251 48.6532 33.1414 48.8608 33.7578ZM48.9993 36.9764C48.4456 34.8535 47.1999 32.662 45.3313 31.3609C44.8468 31.0185 44.3623 31.7033 44.7776 32.1142C46.3694 33.6208 47.6843 35.0589 48.4456 37.1819C48.5148 37.4558 49.0685 37.3188 48.9993 36.9764ZM16.9561 10.3367C16.9561 9.65192 15.918 9.65192 15.918 10.3367C15.8488 12.5282 15.9872 14.7881 16.0564 17.048C16.0564 17.5959 16.8869 17.5959 16.8869 17.048C16.8869 14.7881 17.0253 12.5282 16.9561 10.3367ZM18.9631 4.03635C18.7555 7.18655 18.6863 10.3367 18.8247 13.4869C18.8939 14.7196 18.6171 17.8013 19.6552 18.8971C20.2089 19.5134 20.8317 19.5134 21.5238 19.7188C24.7074 20.4722 28.9982 19.7188 32.3202 19.7188C35.7114 19.7188 42.4937 21.0885 45.3313 18.3492C48.5148 15.2675 47.6843 6.5702 47.4075 2.73518L47.4075 2.6667C53.4285 2.73518 59.3804 2.80366 65.4015 2.87214C65.5399 2.87214 65.6091 2.87215 65.7475 2.80366C66.1627 17.1165 65.9551 31.4293 65.6783 45.7422C60.1417 45.1943 54.6051 44.7834 48.9993 44.441C50.3834 36.634 41.8709 30.4021 34.6733 29.4434C25.8839 28.3476 18.7555 34.5111 17.7866 43.0029C12.8037 42.9344 7.75151 42.7974 2.76856 42.729C2.76856 42.3181 2.76856 41.9757 2.76856 41.5648C2.83777 33.4153 2.97618 25.2659 3.1146 17.048C3.1838 13.4185 2.35331 8.28227 3.39143 4.78966C4.56796 0.817676 9.96615 2.32429 13.7034 2.32429C15.7796 2.32429 17.925 2.39277 20.0013 2.39277L20.0013 3.0776C19.5168 3.14608 19.0324 3.48849 18.9631 4.03635ZM15.2259 10.3367C15.2259 9.65192 14.1878 9.65192 14.1878 10.3367C14.1186 11.7064 14.1878 13.1445 14.257 14.5142C14.257 15.1305 15.2259 15.1305 15.2259 14.5142C15.2259 13.1445 15.2951 11.7064 15.2259 10.3367Z" fill="#0DD180"/>
<path d="M34.2575 9.93079C32.7349 9.86231 29.1361 9.99928 27.9596 8.83508C26.8523 7.73936 27.752 5.2055 27.9596 3.83585C28.0288 3.42496 28.3748 3.21951 28.7901 3.21951C29.2745 3.21951 29.759 3.56192 29.759 4.10978C29.6898 4.93157 29.4822 5.75336 29.4822 6.57515C29.4822 7.46542 29.2745 7.32846 29.9666 7.67087C31.0739 8.21873 33.1502 8.08177 34.3959 8.15025C36.1953 8.28722 38.2023 8.56114 38.6868 6.30122C38.8944 5.2055 38.5484 4.17827 38.8944 3.08255C38.9636 2.80862 39.1712 2.74013 39.3788 2.74013C39.6557 2.74013 39.9325 2.94558 39.9325 3.28799C39.8633 5.2055 40.9014 7.53391 39.4481 9.17749C38.1331 10.4787 35.8493 10.0678 34.2575 9.93079Z" fill="#042C89"/>
<path d="M14.2567 14.5143C14.2567 13.1447 14.1875 11.7065 14.1875 10.3369C14.1875 9.65205 15.1564 9.65205 15.2256 10.3369C15.2948 11.7065 15.2256 13.1447 15.1564 14.5143C15.2256 15.1307 14.2567 15.1307 14.2567 14.5143Z" fill="#042C89"/>
<path d="M15.9178 10.3388C15.9178 9.65393 16.9559 9.65393 16.9559 10.3388C17.0251 12.5302 16.8867 14.7901 16.8175 17.05C16.8175 17.5979 15.987 17.5979 15.987 17.05C15.987 14.7901 15.8486 12.5302 15.9178 10.3388Z" fill="#042C89"/>
<path d="M47.4759 2.80674C47.7528 6.57328 48.5833 15.2706 45.3997 18.4208C42.5622 21.1601 35.7798 19.7904 32.3887 19.7904C29.0667 19.7904 24.7758 20.5437 21.5923 19.7904C20.9002 19.6534 20.2773 19.585 19.7237 18.9686C18.6856 17.8729 18.8932 14.7912 18.8932 13.5585C18.6856 10.4083 18.7548 7.25811 19.0316 4.10791C19.1008 3.49157 19.5853 3.21764 20.0697 3.21764C20.5542 3.21764 20.9694 3.49157 20.9694 4.10791C20.831 7.669 20.3465 11.9834 21.177 15.476C21.7999 18.0783 22.7688 17.6674 25.1911 17.6674C26.9213 17.6674 28.6515 17.6674 30.3817 17.6674C34.4649 17.6674 39.5171 18.5577 42.839 16.0923C46.507 13.2846 45.8842 7.32658 46.2994 2.87522L46.2994 2.80674L47.4759 2.80674Z" fill="#042C89"/>
<path d="M46.092 31.0218C45.4691 30.7479 45.9536 29.8576 46.5073 29.9946C48.099 30.4054 49.414 32.1175 49.4832 33.7611C49.4832 34.1035 48.9987 34.172 48.8603 33.8296C48.6527 33.1447 48.3067 32.5969 47.753 32.049C47.2685 31.5012 46.7149 31.2957 46.092 31.0218Z" fill="#042C89"/>
<path d="M45.3311 31.2913C47.1997 32.5925 48.3762 34.7839 48.9991 36.9069C49.0683 37.2493 48.5147 37.3863 48.4454 37.0438C47.6842 34.9894 46.3692 33.4828 44.7774 31.9761C44.3622 31.7022 44.8467 31.0174 45.3311 31.2913Z" fill="#042C89"/>
<path d="M24.9835 50.7445C24.7067 50.4706 24.9835 49.8543 25.3988 49.9912C26.0216 50.1967 26.5061 50.676 26.9905 51.0185C27.475 51.3609 28.0286 51.7718 28.5131 52.1827C28.7899 52.3881 28.4439 52.7305 28.1671 52.5936C27.6134 52.3196 27.0597 51.9772 26.4369 51.7033C25.9524 51.4293 25.3988 51.1554 24.9835 50.7445Z" fill="#042C89"/>
<path d="M24.1538 51.774C24.0154 51.4316 24.569 51.2261 24.7766 51.5001C25.9532 53.0067 27.1297 54.1024 29.1367 54.3079C29.4136 54.3079 29.4136 54.7188 29.1367 54.7188C27.1297 54.7188 24.9151 53.6915 24.1538 51.774Z" fill="#042C89"/>
<path d="M19.7934 46.2236C20.2087 54.236 26.0913 57.9341 33.7734 57.5232C40.1405 57.1807 45.8847 53.8936 47.1304 47.4562C37.995 47.3193 28.8596 46.8399 19.7934 46.2236ZM46.9228 44.3745C49.968 30.7465 21.8004 25.5418 19.9318 43.1418C28.8596 43.4843 37.9258 43.8267 46.9228 44.3745ZM39.5176 81.766C38.7563 81.492 37.1645 81.766 36.3341 81.766C34.3962 81.766 32.3892 81.6975 30.4514 81.6975C30.4514 82.5878 30.3822 83.4095 30.313 84.2998C30.313 84.3683 30.2438 84.5053 30.2438 84.5737C33.4965 84.6422 36.8185 84.7107 40.0713 84.7792C40.3481 83.615 40.6941 82.2453 39.5176 81.766ZM35.8496 80.1224C37.2338 80.1909 39.0331 79.9169 40.3481 80.3963C42.1475 81.0127 41.7322 83.2041 41.2478 84.8477C43.8085 84.9162 46.3 84.9846 48.8606 85.0531C48.5838 82.1769 49.4835 77.9309 48.4454 75.671C46.7152 71.836 39.1716 73.0687 35.7112 73.0002C33.2889 72.9317 24.7072 71.2881 22.977 73.1372C22.5617 73.5481 22.977 78.3418 22.977 78.9582C22.977 80.8072 22.977 82.6562 22.9078 84.5053C24.8456 84.5737 26.7834 84.5737 28.7212 84.5737C28.7212 84.5053 28.652 84.4368 28.652 84.2998C28.5828 83.1356 28.652 81.9714 28.652 80.8072C28.652 80.3278 29.0673 79.9169 29.5517 79.9169C31.6971 79.9854 33.7734 80.0539 35.8496 80.1224ZM2.62994 79.506C3.46043 80.9442 4.29092 82.4508 5.19062 83.9574C6.02111 83.9574 6.8516 84.0259 7.68209 84.0259C9.89674 84.5053 13.0111 84.2313 15.2257 84.2998C17.0943 84.3683 18.9629 84.4368 20.8315 84.4368C20.7623 81.0127 20.5547 77.4516 20.7623 74.0274C20.8315 73.0687 20.6239 71.836 21.4544 71.0827C22.3541 70.1924 24.2919 70.5348 25.3992 70.6033C28.7904 70.6718 32.2508 70.8088 35.642 70.9457C39.0331 71.0827 46.8536 69.6446 49.4143 72.5893C51.6289 75.0547 50.5216 81.6975 49.8988 85.0531C55.0893 85.2586 60.2799 85.601 65.4013 86.1488C65.1936 73.2057 65.4013 60.2625 65.6781 47.3193C60.0031 47.5247 54.2588 47.5247 48.4454 47.4562C48.0301 56.5644 38.4795 60.194 30.313 59.5092C22.4233 58.8243 18.0632 53.2772 17.7864 46.0866C12.7343 45.7442 7.7513 45.2648 2.76835 44.7854C2.69914 52.3185 2.62994 59.7831 2.62994 67.3162C2.62994 70.8772 1.59182 76.0819 2.62994 79.506ZM3.39122 4.79164C2.3531 8.28425 3.1836 13.352 3.11439 17.05C2.90677 25.1994 2.83756 33.4173 2.76835 41.5667C2.76835 41.9776 2.76835 42.3201 2.76835 42.7309C7.7513 42.7994 12.8035 42.9364 17.8556 43.0734C18.7553 34.5815 25.8837 28.4181 34.7423 29.5138C41.8707 30.4726 50.3832 36.7045 48.9991 44.5115C54.6049 44.8539 60.1415 45.3333 65.6781 45.8127C65.9549 31.4998 66.1625 17.187 65.7473 2.87413C65.6089 2.94261 65.5397 2.94262 65.4013 2.94262C59.4494 2.87414 53.4283 2.80565 47.4073 2.73717L46.1615 2.73717C43.8085 2.73717 41.5246 2.66869 39.2408 2.66869C35.7112 2.60021 32.2508 2.60021 28.7212 2.60021C25.8145 2.53172 22.9078 2.53173 20.001 2.53173C17.9248 2.53173 15.7794 2.46324 13.7032 2.46324C9.96594 2.32627 4.56775 0.819659 3.39122 4.79164ZM22.8386 86.6967C16.8867 86.4913 9.48149 87.5185 3.73726 86.0119C1.3842 85.3955 0.692124 84.5053 0.415293 82.1084C-0.415199 75.808 0.346085 68.7543 0.346085 62.3854C0.346084 55.4687 0.415292 48.4835 0.484499 41.5667C0.622914 28.0757 0.830536 14.6531 1.17657 1.16207C1.17657 0.545734 1.66103 0.0663558 2.2839 0.0663558C23.323 0.271807 44.3621 0.47725 65.4013 0.751175C65.9549 0.751175 66.301 1.09359 66.4394 1.436C67.1314 1.23055 68.0312 1.50449 68.0312 2.46324C68.9308 30.2671 70.1074 59.1667 66.7854 86.8337C66.7854 87.0391 66.647 87.1761 66.5778 87.313C66.5086 87.587 66.2318 87.8609 65.8165 87.8609C51.5597 88.4772 37.0953 87.1761 22.8386 86.6967Z" fill="#042C89"/>
</g>
<defs>
<clipPath id="clip0_144_33264">
<rect width="88" height="69" fill="white" transform="translate(3.8466e-06 88) rotate(-90)"/>
</clipPath>
</defs>
</svg>
