<svg width="84" height="68" viewBox="0 0 84 68" fill="none" xmlns="http://www.w3.org/2000/svg">
<g clip-path="url(#clip0_153_33399)">
<path d="M31.8081 64.8727C47.2987 65.6748 62.0398 57.0456 66.5085 41.8315C71.5119 24.8228 59.4718 10.1033 44.3749 3.73328C30.3103 -2.2015 14.8273 4.73964 8.38639 17.9685C4.50471 23.6462 2.32615 30.5987 2.27462 37.6284C2.15099 54.2959 16.385 64.0722 31.8081 64.8727ZM18.0378 43.0238C17.84 42.4797 17.6797 41.9365 17.5418 41.3937C17.5647 41.3792 17.5873 41.3722 17.6099 41.3653C19.167 40.448 20.752 39.6212 22.3657 38.8476C21.8909 39.3018 21.4234 39.7636 20.9932 40.2338C20.317 40.9758 20.4109 42.1472 21.0948 42.7396C20.8357 43.6033 21.294 44.5654 22.3157 44.7981C22.3419 45.6456 22.9091 46.4303 23.8962 46.5347C23.0943 46.8617 22.2854 47.1735 21.4837 47.493C20.9776 47.3318 20.4722 47.1406 19.9824 46.9198C19.2142 45.7334 18.5535 44.437 18.0378 43.0238ZM17.2329 35.4053C17.8695 31.0496 20.3195 27.0564 23.6451 23.8024C23.8805 24.0025 24.0383 24.3209 24.0801 24.8015C24.1328 25.4623 23.901 26.1093 23.7224 26.7274C23.3975 27.852 22.8492 28.9117 22.2567 29.9404C20.5025 30.9582 19.1021 32.5836 18.2801 34.4917C17.9139 34.7834 17.5622 35.0904 17.2329 35.4053ZM24.9559 59.2035C24.6813 59.4147 24.5175 59.7034 24.4431 60.0166C23.0276 59.6253 21.6518 59.1374 20.3227 58.5681C20.3872 58.3672 20.407 58.1503 20.3742 57.9396C21.32 57.8782 22.1458 57.1471 22.2624 56.2877C22.3387 56.2294 22.4149 56.1711 22.4838 56.1052C23.0687 57.1076 24.0005 58.0129 25.3701 58.7779C25.4072 58.7937 25.4444 58.8096 25.474 58.8252C25.3064 58.9489 25.1312 59.0724 24.9559 59.2035ZM39.8299 54.37C39.649 54.411 39.4757 54.4521 39.2953 54.4781C39.4633 54.3394 39.6312 54.2007 39.7992 54.062C40.0929 54.0011 40.3791 53.94 40.6728 53.8791C40.3844 54.0376 40.1036 54.1962 39.8299 54.37ZM43.9627 41.7869C42.8312 42.4438 41.6784 43.0478 40.5183 43.6441C41.451 42.8254 42.3849 41.9542 43.2598 41.0367C45.6166 39.545 48.0233 37.8371 50.5208 36.4236C50.5244 36.9334 50.5133 37.4353 50.4946 37.9371C48.2858 39.1772 46.1269 40.5308 43.9627 41.7869ZM48.3091 33.7509C48.7806 33.1093 49.2075 32.4517 49.5678 31.7551C49.7458 31.8415 49.9393 31.9058 50.1477 31.9704C50.1875 32.2036 50.2273 32.4369 50.2596 32.67C49.5998 33.0151 48.9471 33.3753 48.3091 33.7509ZM55.2204 49.2258C54.7133 49.7842 54.1695 50.3043 53.6115 50.794C53.6 50.2991 53.3774 49.8594 53.0246 49.5442C54.281 49.0025 55.4572 48.3541 56.5609 47.5991C56.1362 48.1593 55.6968 48.7042 55.2204 49.2258ZM59.8853 24.8639C61.0857 27.8439 61.5857 30.9732 61.4719 34.0664C61.2628 34.0317 61.038 34.0267 60.8125 34.0592C60.3388 34.1236 59.872 34.2181 59.4126 34.3128C59.7768 33.7813 60.1186 33.2417 60.4234 32.6788C61.033 31.5605 60.3286 29.8658 58.8873 29.9612C58.0616 30.0178 57.2493 30.1421 56.451 30.3117C58.1322 28.865 59.5581 26.768 59.8853 24.8639ZM51.6274 18.024C52.4422 18.7992 53.1504 19.6469 53.9197 20.4436C53.5801 20.5485 53.2476 20.6685 52.9075 20.7959C53.0535 19.285 50.8291 18.5309 49.8614 19.5737C49.4467 20.0217 49.0679 20.538 48.7331 21.1002C48.0705 20.2235 47.3393 19.3977 46.5316 18.6451C45.7531 17.9232 44.942 17.3205 44.1064 16.8072C45.418 16.8139 48.8048 17.2041 51.6274 18.024ZM42.3264 19.3236C42.5412 19.4408 42.7638 19.5432 42.9707 19.6752C44.7158 20.7484 46.1149 22.2113 47.2163 23.9148C46.1273 24.6851 45.0894 25.5165 44.0809 26.371C43.2407 25.0556 42.5454 23.6309 42.0236 22.1502C42.187 21.2094 42.2904 20.2672 42.3264 19.3236ZM37.6046 17.9592C37.7219 19.4235 37.9892 20.8836 38.4072 22.3095C38.3654 22.5035 38.3234 22.7049 38.2742 22.8987C37.5815 21.3542 37.0882 19.6042 36.9684 17.9151C37.1782 17.9197 37.3875 17.9469 37.6046 17.9592ZM37.6833 28.5673C38.5984 29.5471 40.3772 29.1069 40.7283 27.8105C40.7365 27.7807 40.7447 27.7509 40.7528 27.7211C40.9696 28.0857 41.2015 28.4432 41.4334 28.8006C41.0473 29.3093 41.0105 29.9531 41.2079 30.5121C40.8977 30.6401 40.5799 30.7755 40.2697 30.9035C40.0038 30.7252 39.6914 30.6208 39.3907 30.6591C36.9033 30.941 34.3238 31.6631 31.8417 32.7173C31.5821 30.9125 30.3035 29.4224 27.8102 28.9622C27.4743 28.9022 27.1378 28.8647 26.816 28.8426C26.9667 28.4712 27.1098 28.0996 27.2379 27.7351C28.0614 25.4223 27.8765 23.2894 26.3417 21.5238C26.692 21.2767 27.0498 21.0298 27.4148 20.7981C29.5944 20.5318 31.6471 19.9104 33.3951 18.8324C33.8228 22.5148 35.494 26.2324 37.6833 28.5673ZM33.2196 8.52954C33.1262 8.68487 33.055 8.85568 33.0062 9.027C32.357 8.89262 31.7001 8.77306 31.0426 8.67598C31.7564 8.60192 32.4846 8.55066 33.2196 8.52954ZM22.4692 12.6452C22.4925 12.6083 22.5084 12.5711 22.5317 12.5342C25.8288 11.5657 30.0374 12.0791 33.8894 13.1243C33.8651 13.2062 33.826 13.2803 33.8017 13.3622C33.2647 14.2497 32.5816 14.9691 31.7894 15.5361C30.5214 15.9276 29.2806 16.4472 28.0672 17.0798C26.4861 17.3969 24.7536 17.4408 23.0181 17.2822C22.2773 16.5537 21.3442 16.0457 20.3028 15.6852C21.0522 14.6825 21.7793 13.6718 22.4692 12.6452ZM11.8886 19.5755C12.1898 19.1775 12.5058 18.7872 12.8291 18.4047C12.9924 18.4758 13.1557 18.5469 13.3267 18.6106C12.57 19.6057 11.8208 20.6009 11.0937 21.6117C11.3338 20.9274 11.5889 20.2435 11.8886 19.5755ZM17.1137 19.8792C17.8663 20.0834 18.6419 20.258 19.4181 20.4102C18.8157 20.8691 18.0762 21.4298 17.7631 21.6851C17.603 21.809 17.4428 21.9329 17.29 22.0644C15.9992 23.145 17.1096 25.1186 18.4862 25.2317C16.9502 27.2288 15.7259 29.3603 14.9217 31.4787C14.3404 33.0098 13.9846 34.516 13.8171 35.9814C12.9144 35.7889 11.8187 36.1843 11.4509 37.218C11.3948 37.3817 11.3533 37.5606 11.2972 37.7243C10.5359 35.8934 10.0697 33.9417 9.86647 31.9583C11.3875 27.6072 14.1723 23.7265 17.1137 19.8792ZM8.23562 44.2748C8.72968 46.3246 9.24571 48.3974 9.93657 50.3616C8.74508 48.6636 7.78301 46.7608 7.10998 44.6695C7.50789 44.6409 7.90064 44.5072 8.23562 44.2748Z" fill="#FFDE14"/>
<path d="M42.2318 63.3747C42.2318 63.3747 42.979 63.1439 44.3904 62.7106C45.0851 62.4787 45.888 62.1068 46.8561 61.7161C47.3332 61.4944 47.8267 61.213 48.365 60.9402C48.6304 60.8037 48.9109 60.66 49.1916 60.5088C49.4652 60.3425 49.7392 60.1537 50.0206 59.9726C52.3087 58.5394 54.9109 56.4611 57.2698 53.5303C57.8189 52.7705 58.4426 52.0273 58.9784 51.1922C59.2426 50.7709 59.5145 50.3422 59.7864 49.9135C59.9261 49.6992 60.0585 49.4773 60.1981 49.263C60.3157 49.0333 60.4334 48.796 60.551 48.5663C61.029 47.6325 61.5373 46.6843 61.9053 45.6431C62.0966 45.1302 62.3254 44.6181 62.517 44.0902C62.6788 43.5541 62.8409 43.0105 63.0105 42.4596C63.3945 41.3738 63.533 40.2001 63.7913 39.0365C63.9317 38.455 63.9304 37.8403 64.0111 37.2424C64.0621 36.6364 64.1582 36.0239 64.1719 35.4096C64.2196 32.9296 64.1044 30.356 63.5929 27.7437C62.6208 22.5875 60.1965 17.3466 56.3955 12.997C52.6096 8.64769 47.4926 5.16827 41.7021 3.32288C35.9272 1.44787 29.4895 1.40201 23.6161 3.28012C17.7207 5.13524 12.5248 8.90232 8.58307 13.5743C4.71607 18.2555 2.42001 24.0884 1.73704 29.8524C1.03093 35.6458 2.05795 41.3653 4.06261 46.2671C6.15002 51.1557 9.27467 55.2429 12.8833 58.1266C16.4844 61.0176 20.4245 62.8143 24.0852 63.6978C25.0106 63.8833 25.8899 64.1128 26.764 64.2447C27.6386 64.3541 28.4833 64.4553 29.2906 64.5558C30.9233 64.6146 32.4275 64.723 33.7867 64.6109C34.4623 64.5659 35.1072 64.5578 35.7157 64.4964C36.317 64.4198 36.8809 64.3424 37.4072 64.2717C37.9335 64.2009 38.4146 64.1367 38.8581 64.0791C39.295 63.9839 39.6941 63.9028 40.0555 63.8284C41.4863 63.5305 42.247 63.3675 42.247 63.3675L42.2318 63.3747ZM42.4259 64.0836C42.4259 64.0836 41.6503 64.2462 40.2042 64.5588C39.8427 64.6332 39.436 64.7216 38.9916 64.8167C38.5404 64.8816 38.0443 64.9455 37.5104 65.0235C36.9766 65.0941 36.4052 65.1713 35.7887 65.2551C35.1799 65.3315 34.5201 65.3393 33.8293 65.3914C32.447 65.533 30.9047 65.4537 29.2336 65.4315C28.396 65.3454 27.5285 65.2586 26.6311 65.1637C25.7342 65.0463 24.8171 64.831 23.8614 64.6598C20.0642 63.8482 15.9296 62.0322 12.1509 59.0398C8.40258 56.033 5.16989 51.7485 3.13211 46.6511C2.1396 44.0955 1.42098 41.3586 1.04198 38.5168C0.655502 35.6749 0.593839 32.7202 0.966874 29.7678C1.65302 23.8615 3.90713 17.8927 7.89917 12.9819C11.8586 8.1904 17.1716 4.20856 23.265 2.21542C29.344 0.191988 36.0662 0.251661 42.065 2.16914C48.0793 4.06448 53.4038 7.65347 57.3587 12.1564C61.3436 16.66 63.9368 22.0621 65.0151 27.498C65.5624 30.1861 65.6822 32.8872 65.6394 35.4797C65.6249 36.1315 65.5283 36.7665 65.4767 37.4025C65.3951 38.0378 65.3884 38.6748 65.2474 39.2863C64.9803 40.5096 64.8329 41.7431 64.4328 42.881C63.1076 47.5288 60.7724 51.4121 58.2184 54.3535C55.6491 57.3095 52.8827 59.3542 50.4829 60.7549C50.1865 60.9357 49.8903 61.109 49.6093 61.2752C49.3136 61.426 49.0256 61.5695 48.7527 61.7059C48.192 61.9782 47.6837 62.2517 47.1915 62.4731C46.1784 62.8629 45.3157 63.2334 44.6136 63.4577C43.2028 63.8685 42.4484 64.0841 42.4484 64.0841L42.4259 64.0836Z" fill="#042C89"/>
<path d="M50.651 59.2946C50.3307 57.5185 50.0704 55.7438 49.7796 53.9908C49.6266 53.1179 49.4963 52.238 49.305 51.4017C49.2092 50.9948 49.1214 50.5581 48.9864 50.2253C48.9585 50.1348 48.923 50.044 48.8937 50.0134L48.8579 49.9376L48.8509 49.915L48.8434 49.9148C48.8214 49.8918 49.0047 50.0758 48.9315 49.9992L48.9242 49.9916L48.8579 49.9376C48.7768 49.8759 48.6741 49.7761 48.6074 49.7447C48.5479 49.7209 48.4885 49.697 48.4292 49.6657C48.1474 49.532 47.6938 49.3645 47.2916 49.2507C46.8822 49.1216 46.4497 49.022 46.0248 48.9151C45.1673 48.7162 44.2864 48.5541 43.4055 48.3921C41.6433 48.0905 39.8728 47.8188 38.1013 47.5994L38.5696 47.4375L34.3743 51.3767C33.6775 52.0358 33.0101 52.7256 32.3428 53.4078C32.0128 53.7528 31.6974 54.113 31.3748 54.4656C31.0596 54.8184 30.7439 55.1937 30.4885 55.5553C30.4419 55.6292 30.3262 55.7765 30.3488 55.7695C30.3487 55.777 30.3412 55.7768 30.3335 55.7842L30.3258 55.7915C30.3268 55.7465 30.3162 55.8887 30.3355 55.6943L30.3352 55.7092L30.3347 55.7317C30.3325 55.8291 30.3643 55.7474 30.3568 55.7472C30.4212 55.8836 30.5513 56.1038 30.6671 56.2863C30.9134 56.6741 31.1972 57.0552 31.4582 57.4507L33.0926 59.7958C34.1898 61.3493 35.2866 62.9253 36.3376 64.5378C36.4461 64.7126 36.4036 64.9365 36.2287 65.0526C36.069 65.1539 35.8672 65.127 35.7503 64.9894C35.1144 64.2632 34.5012 63.5225 33.9109 62.7673C33.3054 62.0192 32.7304 61.2494 32.1632 60.4647C31.5883 59.6873 31.0286 58.9028 30.5147 58.0819C30.254 57.6713 30.0086 57.2461 29.7711 56.806C29.6564 56.5711 29.5408 56.3737 29.4353 56.064C29.393 55.9431 29.3672 55.7552 29.3752 55.7329L29.3757 55.7104L29.376 55.6954C29.3954 55.5009 29.3849 55.6356 29.3934 55.5908L29.3935 55.5834L29.4252 55.5091L29.4958 55.3683C29.6131 55.146 29.6812 55.1175 29.7663 54.9995C30.1048 54.6098 30.4421 54.2725 30.7723 53.92L31.7847 52.8857L33.7726 50.7937C35.0931 49.3914 36.4061 47.989 37.7557 46.6248C37.8784 46.5001 38.052 46.444 38.209 46.4625L38.224 46.4628C40.026 46.6603 41.8201 46.8802 43.6125 47.1749C44.5087 47.3223 45.4047 47.4772 46.3001 47.662C46.7478 47.7544 47.1954 47.8468 47.6499 47.9694C48.1194 48.0923 48.522 48.1912 49.0716 48.4208C49.2201 48.484 49.3607 48.5621 49.5016 48.6327C49.6349 48.7032 49.6935 48.7644 49.7969 48.8342L49.8634 48.8806L49.8707 48.8883L49.9661 48.9804L49.9734 48.988L49.9879 49.0108L50.0242 49.0641L50.1619 49.2771C50.2634 49.4292 50.3132 49.5503 50.363 49.6713C50.4773 49.9212 50.5469 50.1626 50.6168 50.389C50.6941 50.6231 50.749 50.8492 50.7963 51.0826C50.9932 52.0015 51.1305 52.904 51.2227 53.813C51.3149 54.7221 51.3772 55.6304 51.4019 56.5379C51.4342 57.4456 51.4365 58.3527 51.3938 59.2587C51.3818 59.4608 51.2134 59.6219 51.0037 59.6098C50.8243 59.5908 50.6848 59.4603 50.651 59.2946Z" fill="#042C89"/>
<path d="M49.1517 49.1679C49.1517 49.1679 49.2384 48.975 49.4176 48.6716C49.6041 48.376 49.8978 47.9777 50.297 47.5519C50.6963 47.126 51.2743 46.7491 51.8173 46.2665C52.3602 45.7839 52.9341 45.257 53.5298 44.7605C54.1255 44.2641 54.7945 43.8442 55.3081 43.3309C55.576 43.0821 55.7774 42.7867 55.9857 42.5215C56.1867 42.2486 56.3943 42.0134 56.6161 41.816C57.4659 41.0178 58.1788 40.6439 58.1788 40.6439C58.3684 40.5432 58.5991 40.6158 58.6924 40.8053C58.7571 40.9267 58.7465 41.0688 58.684 41.1799C58.684 41.1799 58.2715 41.8678 57.4215 42.6734C57.2146 42.8787 56.9628 43.0754 56.6815 43.2566C56.4072 43.4529 56.1032 43.641 55.8353 43.8899C55.2924 44.3725 54.8284 45.0143 54.2984 45.5871C53.7687 46.1525 53.2094 46.6947 52.6958 47.208C52.1821 47.7213 51.7724 48.2818 51.3294 48.6542C50.8862 49.0341 50.4679 49.3022 50.1644 49.4678C49.8534 49.6333 49.657 49.7039 49.657 49.7039C49.4454 49.7816 49.2154 49.6716 49.1452 49.4601C49.1022 49.3692 49.1122 49.257 49.1517 49.1679Z" fill="#042C89"/>
<path d="M63.5874 41.8446C62.7012 41.9223 61.8241 41.9253 60.9554 41.891C60.0868 41.8492 59.2111 41.7922 58.352 41.6606L58.2848 41.6516C58.0009 41.6078 57.7881 41.4007 57.7189 41.1443L57.0757 38.7239L56.4021 36.3178C56.1877 35.511 55.9657 34.7115 55.7814 33.8979C55.5896 33.0841 55.443 32.2638 55.289 31.4359C55.1425 30.6081 54.9731 29.8023 54.8727 28.9231C54.8554 28.6903 54.8071 28.5019 54.8906 28.1214C54.9868 27.8388 55.0497 27.7052 55.1293 27.4971C55.2729 27.1105 55.439 26.717 55.5749 26.3377C55.8618 25.5721 56.2003 24.845 56.5394 24.088C56.8934 23.3388 57.2549 22.5898 57.6608 21.8643C57.7622 21.6866 57.9885 21.6242 58.1663 21.7181C58.3143 21.8039 58.3853 21.9779 58.3444 22.1344C58.1314 22.9466 57.8517 23.7274 57.5718 24.5158C57.2846 25.2964 56.9522 26.0835 56.5831 26.8399C56.4023 27.2181 56.1772 27.5654 55.9742 27.9282L55.6857 28.4315C55.6629 28.446 55.6426 28.6854 55.6535 28.8655C55.675 29.2483 55.7484 29.6547 55.8295 30.0537C55.9105 30.4528 56.0066 30.8522 56.1253 31.2446C56.3475 32.0366 56.6149 32.8221 56.8523 33.6069L57.5716 35.9766L58.3058 38.3465C58.5657 39.1319 58.8557 39.9104 59.1307 40.6885L58.4976 40.1722C59.3658 40.229 60.2325 40.3533 61.0913 40.4998C61.95 40.6464 62.8077 40.8378 63.6563 41.1041C63.8573 41.1685 63.9651 41.3733 63.9007 41.5743C63.8672 41.7309 63.7375 41.833 63.5874 41.8446Z" fill="#042C89"/>
<path d="M55.3289 28.5932C54.3488 28.8487 53.3637 28.9917 52.3718 29.1046C51.3797 29.2249 50.3897 29.2478 49.3928 29.2481C47.4064 29.2489 45.4249 29.3697 43.4372 29.4304L43.8772 29.1928C43.1776 29.9793 42.5296 30.8044 41.8965 31.6373C41.2706 32.4779 40.6299 33.3106 40.1 34.2208C39.8203 34.6643 39.5627 35.1233 39.2756 35.5591C38.9886 35.995 38.6719 36.4152 38.3628 36.8356C37.7296 37.6685 37.0742 38.4859 36.3525 39.2569C36.2141 39.4112 35.9742 39.4134 35.8274 39.2752C35.7025 39.16 35.6767 38.972 35.755 38.8238C36.2628 37.8982 36.8296 37.0188 37.426 36.1551C37.7278 35.7271 38.0223 35.2914 38.3537 34.8865C38.6777 34.4739 39.0311 34.0845 39.3625 33.6797C40.0546 32.893 40.6511 32.0218 41.2473 31.1656C41.8362 30.3017 42.4105 29.4225 42.9404 28.5124C43.0185 28.3717 43.1627 28.2924 43.3131 28.2733L43.3806 28.2673C45.3628 28.1165 47.3435 28.0332 49.3194 27.8298C50.3112 27.7245 51.2948 27.6489 52.2914 27.6636C53.2883 27.6633 54.2842 27.708 55.2852 27.8652C55.4943 27.8998 55.6324 28.0903 55.598 28.2919C55.5871 28.4416 55.4721 28.5589 55.3289 28.5932Z" fill="#042C89"/>
<path d="M37.8027 47.1181C37.3446 45.8112 36.9241 44.4976 36.526 43.1845C36.1055 41.8709 35.7453 40.5436 35.3549 39.2232L35.883 39.7447C33.5784 39.2286 31.298 38.6307 29.0188 37.9803C27.8792 37.6551 26.7471 37.3301 25.6155 36.9826L23.911 36.4424C23.6284 36.3462 23.3382 36.2498 23.0482 36.1459C22.8995 36.0901 22.7583 36.0345 22.595 35.9634C22.5134 35.9241 22.439 35.9 22.3283 35.8226C22.2693 35.7763 22.2537 35.8059 22.0854 35.6223C22.0562 35.5841 22.0271 35.546 21.9981 35.5004L21.962 35.4396C21.9758 35.4924 21.9129 35.2886 21.9199 35.3113L21.9136 35.2587C21.8741 35.0104 21.8552 34.5153 21.8612 34.2456L21.8662 33.3462L21.9132 31.5708C21.9545 30.3874 22.0183 29.2045 22.0895 28.0293C22.1608 26.8466 22.2394 25.6715 22.3706 24.4901C22.5019 23.3087 22.6178 22.142 22.8847 20.9261C22.9257 20.7696 22.9513 20.6278 23.0152 20.4493C23.1093 20.264 23.1361 20.0697 23.3123 19.9013C23.6646 19.5643 23.9361 19.4879 24.2243 19.3369C24.792 19.0872 25.3584 18.8974 25.9322 18.7153C27.0719 18.3584 28.2109 18.0389 29.364 17.7573C30.5098 17.468 31.6629 17.1863 32.823 16.9273C33.9979 16.6761 35.1133 16.4011 36.4043 16.3249C36.4942 16.3269 36.5693 16.3211 36.6815 16.3311L36.7562 16.3402L36.7937 16.3411L36.8162 16.3416L36.9131 16.3662L37.0173 16.3985C37.0769 16.4148 37.2472 16.5086 37.3431 16.5782C37.4613 16.6558 37.4978 16.7015 37.5712 16.7706C37.8281 17.0162 38.025 17.2605 38.2143 17.512C38.5854 18.015 38.9115 18.517 39.2223 19.0336C39.829 20.0665 40.3675 21.1279 40.8986 22.1891C41.9455 24.3187 42.8868 26.4834 43.7446 28.6912C43.8154 28.8801 43.7206 29.0954 43.5316 29.1662C43.3502 29.2371 43.1497 29.1502 43.0635 28.9833L41.4846 25.83L39.8905 22.6913C39.3514 21.6524 38.7972 20.6207 38.2047 19.6256C37.9161 19.1245 37.6197 18.6306 37.2924 18.1811C37.1325 17.9602 36.9575 17.7389 36.7962 17.5779C36.7669 17.5473 36.7009 17.4784 36.6934 17.4782C36.6711 17.4702 36.7314 17.4565 36.6497 17.4247L36.5456 17.3849C36.5754 17.3931 36.4562 17.3605 36.6202 17.4016L36.6127 17.4014L36.5977 17.4011L36.5603 17.4003C36.523 17.3919 36.4555 17.3904 36.3956 17.3891C35.3312 17.3879 34.1275 17.586 32.9841 17.7704C31.8327 17.9771 30.6879 18.2215 29.5496 18.511C28.4186 18.8081 27.2874 19.1202 26.1919 19.5081C25.6478 19.7059 25.1035 19.9111 24.6034 20.1549C24.3685 20.2696 24.0874 20.4357 24.0183 20.5091C23.9577 20.5378 23.9622 20.6728 23.9158 20.7392C23.8836 20.8359 23.8575 21.0003 23.8323 21.1196C23.628 22.2169 23.5566 23.4072 23.4708 24.5671L23.2727 28.0781C23.2165 29.2537 23.1756 30.4221 23.1494 31.5983L23.1178 33.3516L23.121 34.2212C23.1363 34.5438 23.1041 34.6405 23.1567 34.9715L23.1631 35.0241C23.1699 35.0543 23.1143 34.8581 23.1279 34.9184L23.1138 34.8806C23.0995 34.8503 23.085 34.8275 23.063 34.8045C22.9383 34.6818 22.9969 34.7431 22.9971 34.7356C23.0044 34.7432 23.0712 34.7747 23.1231 34.7984C23.227 34.8456 23.3607 34.9011 23.4872 34.9414C23.7474 35.0371 24.0228 35.1257 24.2982 35.2143C24.8489 35.3914 25.4151 35.5465 25.9738 35.7013C27.1063 36.0114 28.2392 36.2989 29.3796 36.5867C31.6607 37.1546 33.9493 37.7153 36.2142 38.3353L36.2515 38.3437C36.5049 38.4093 36.6877 38.6157 36.7423 38.8568C37.0572 40.198 37.3948 41.5323 37.6795 42.8878C37.9793 44.2362 38.2566 45.5841 38.5036 46.9463C38.5366 47.1494 38.4049 47.3414 38.2017 47.3743C38.0364 47.3931 37.8588 47.2918 37.8027 47.1181Z" fill="#042C89"/>
<path d="M29.7788 56.0538C28.8127 56.0173 27.8707 55.9064 26.9212 55.7953C25.9721 55.6693 25.0308 55.5284 24.098 55.3427C23.1571 55.1794 22.2328 54.9489 21.308 54.7409C20.3758 54.5253 19.4508 54.3248 18.518 54.1392L18.5105 54.139C18.2793 54.0889 18.0956 53.9199 18.0331 53.7011C17.4326 51.7164 16.8168 49.7463 16.2615 47.7551L15.4437 44.7612C15.3123 44.2635 15.1585 43.7654 15.012 43.2749C14.8657 42.7769 14.7117 42.2863 14.5427 41.7953C14.4936 41.6443 14.5346 41.4878 14.6493 41.3854L14.6646 41.3708C15.9038 40.2515 17.0628 39.0331 18.3604 37.9826C19.0092 37.4573 19.6361 36.9091 20.307 36.3993C20.9632 35.8818 21.6265 35.3793 22.3193 34.9C22.4868 34.7838 22.7182 34.8265 22.8344 34.994C22.9361 35.1386 22.9166 35.3406 22.7939 35.4653C22.2108 36.0669 21.6058 36.6456 20.9861 37.209C20.3811 37.7877 19.7396 38.3206 19.1126 38.8763C17.8659 39.9954 16.4807 40.939 15.1757 41.9818L15.2976 41.5573C15.4439 42.0552 15.5979 42.5459 15.7594 43.0367C15.9209 43.5275 16.0748 44.0182 16.2513 44.5093L17.2956 47.4333C17.9791 49.3899 18.6024 51.3602 19.2408 53.3232L18.7558 52.8852C19.6888 53.0634 20.6298 53.2192 21.5707 53.3751C22.5119 53.5235 23.4532 53.6643 24.3857 53.865C25.3185 54.0507 26.2507 54.2663 27.1673 54.5041C28.0912 54.757 29.0075 55.0098 29.9147 55.3373C30.108 55.409 30.2082 55.6211 30.1364 55.8144C30.0881 55.9633 29.936 56.0648 29.7788 56.0538Z" fill="#042C89"/>
<path d="M18.9023 53.7578C18.9023 53.7578 18.884 53.9073 18.8041 54.1304C18.7241 54.3535 18.5828 54.6426 18.3512 54.9448C18.1344 55.2548 17.7322 55.4782 17.4098 55.8158C17.0802 56.1458 16.7422 56.5131 16.3674 56.8495C15.9926 57.186 15.5444 57.4533 15.2441 57.8139C15.0828 57.9902 14.9882 58.198 14.8788 58.398C14.7769 58.5981 14.6608 58.7604 14.5303 58.8999C14.0233 59.4508 13.531 59.6797 13.531 59.6797C13.3266 59.7726 13.0888 59.6774 12.9958 59.4804C12.953 59.382 12.9478 59.277 12.9798 59.1877C12.9798 59.1877 13.1561 58.6744 13.6558 58.1159C13.7788 57.9762 13.9317 57.8447 14.1218 57.7215C14.3044 57.5981 14.5096 57.4753 14.6632 57.3063C14.9929 56.9763 15.2208 56.5017 15.5147 56.096C15.816 55.6904 16.1465 55.323 16.4469 54.9624C16.7472 54.6018 16.9439 54.1864 17.2268 53.9379C17.5023 53.6816 17.776 53.5078 17.9881 53.4076C18.2077 53.3076 18.3509 53.2733 18.3509 53.2733C18.5921 53.2112 18.8287 53.3589 18.8908 53.6001C18.9123 53.6456 18.9109 53.7055 18.9023 53.7578Z" fill="#042C89"/>
<path d="M14.7267 41.9858C14.0103 41.8425 13.3642 41.5732 12.7337 41.2744C12.1031 40.983 11.535 40.5731 10.9514 40.1928C10.3753 39.8052 9.76066 39.4692 9.16915 39.1037C8.57747 38.7458 7.97829 38.3876 7.40243 37.9925L7.97298 37.9528C7.47134 38.2639 6.96255 38.5599 6.48256 38.909C5.9954 39.243 5.56668 39.6457 5.14512 40.0636C4.73089 40.4891 4.25089 40.8382 3.77123 41.1723C3.28408 41.5063 2.7826 41.8099 2.23718 42.0676C2.04772 42.1609 1.82463 42.0809 1.73889 41.8916C1.67463 41.7478 1.70061 41.591 1.80051 41.4808C2.20026 41.0324 2.63647 40.6299 3.087 40.2576C3.54502 39.8855 4.01036 39.5211 4.53364 39.2479C5.04976 38.9596 5.56605 38.6638 6.01674 38.284C6.48209 37.9196 6.91098 37.5094 7.34685 37.1218C7.48454 36.9975 7.68 36.9718 7.83566 37.0502L7.91723 37.0895C8.54788 37.3809 9.1627 37.7094 9.77753 38.0379C10.3925 38.3589 10.9917 38.7171 11.6222 39.0159C12.2526 39.3148 12.891 39.5988 13.4668 39.9939C14.0428 40.3815 14.6031 40.8063 15.0932 41.3494C15.2395 41.51 15.2265 41.7571 15.066 41.8959C14.9743 41.9764 14.8461 42.011 14.7267 41.9858Z" fill="#042C89"/>
<path d="M23.3885 20.5815C23.3885 20.5815 23.2166 20.5626 22.9485 20.4817C22.6805 20.4008 22.324 20.2504 21.932 20.0168C21.5397 19.7907 21.1895 19.3632 20.7323 19.0232C20.2828 18.6759 19.7885 18.3201 19.325 17.9275C18.8617 17.5274 18.4598 17.0612 17.9797 16.7432C17.7509 16.5807 17.4834 16.4773 17.246 16.3671C17.0009 16.2642 16.7863 16.1395 16.6019 16.008C15.8642 15.4744 15.5011 14.9491 15.5011 14.9491C15.3776 14.7739 15.4205 14.5275 15.6032 14.4042C15.7021 14.3389 15.8224 14.3191 15.9341 14.3516C15.9341 14.3516 16.5525 14.5227 17.2976 15.0565C17.4821 15.1881 17.6734 15.3497 17.8489 15.5485C18.032 15.74 18.2145 15.9614 18.4432 16.1239C18.8927 16.4712 19.4722 16.7015 19.9975 17.013C20.5228 17.3245 21.0172 17.6728 21.49 17.9832C21.9627 18.301 22.4754 18.4998 22.8212 18.7924C23.1745 19.0851 23.4304 19.3756 23.5902 19.604C23.75 19.8324 23.8214 19.9914 23.8214 19.9914C23.9217 20.2035 23.8336 20.4564 23.6215 20.5567C23.5386 20.5773 23.4633 20.5906 23.3885 20.5815Z" fill="#042C89"/>
<path d="M36.9918 16.8909C36.9918 16.8909 36.9352 16.7397 36.8885 16.4838C36.8417 16.2279 36.8197 15.8676 36.8664 15.4564C36.8982 15.0374 37.1256 14.5852 37.2343 14.0779C37.3506 13.5708 37.4526 13.0259 37.607 12.4896C37.7614 11.9534 38.0053 11.4341 38.0842 10.9187C38.1348 10.665 38.1107 10.4021 38.101 10.162C38.0841 9.91426 38.1041 9.68984 38.146 9.48839C38.2992 8.66728 38.6177 8.16467 38.6177 8.16467C38.7343 7.97987 38.9754 7.92527 39.1676 8.04199C39.2637 8.10409 39.329 8.20299 39.3493 8.30088C39.3493 8.30088 39.4636 8.88809 39.3104 9.7092C39.2758 9.9183 39.211 10.1342 39.1086 10.3568C39.0137 10.5796 38.896 10.8168 38.8529 11.0707C38.7366 11.5778 38.7837 12.156 38.7339 12.7096C38.6841 13.2632 38.5819 13.8156 38.5105 14.3312C38.4315 14.8466 38.4803 15.3499 38.3589 15.752C38.2525 16.1544 38.1028 16.4809 37.9705 16.7028C37.8306 16.9245 37.723 17.0421 37.723 17.0421C37.5617 17.2184 37.2915 17.2348 37.115 17.081C37.0564 17.0197 37.0203 16.959 36.9918 16.8909Z" fill="#042C89"/>
<path d="M18.4706 5.40274C18.4706 5.40274 18.5121 5.56107 18.536 5.83144C18.5602 6.09433 18.5443 6.46875 18.4676 6.8868C18.4056 7.31267 18.1484 7.75669 17.9944 8.27795C17.833 8.79156 17.7158 9.34363 17.5386 9.89436C17.3616 10.4376 17.0876 10.9637 16.9933 11.4938C16.9351 11.7548 16.974 12.0255 16.9835 12.2731C17.0005 12.5208 16.9878 12.7529 16.9532 12.962C16.8148 13.791 16.5029 14.3312 16.5029 14.3312L16.4796 14.3682C16.3706 14.5531 16.1368 14.6154 15.9518 14.5063C15.8556 14.4517 15.7904 14.3528 15.7702 14.2474C15.7702 14.2474 15.6487 13.6451 15.7879 12.7787C15.8227 12.5621 15.8803 12.331 15.9831 12.0934C16.0783 11.8557 16.1814 11.6031 16.2397 11.3421C16.3787 10.8205 16.3621 10.2205 16.4348 9.64492C16.5151 9.06955 16.6327 8.50249 16.7494 7.9729C16.8661 7.44331 16.8628 6.91854 17.0068 6.50949C17.2726 5.68339 17.7551 5.22191 17.7551 5.22191C17.9236 5.06075 18.1933 5.06675 18.3619 5.23541C18.4137 5.26655 18.4497 5.33481 18.4706 5.40274Z" fill="#042C89"/>
<path d="M7.32197 37.6634C7.32213 37.6559 7.2637 37.5871 7.1783 37.3828C7.09273 37.186 6.96438 36.8909 6.86 36.5287C6.73315 36.1661 6.63078 35.7141 6.52974 35.2022C6.41389 34.6824 6.3593 34.104 6.30605 33.4657C6.23032 32.8269 6.26065 32.138 6.27699 31.4037C6.28584 30.6694 6.34779 29.9062 6.38778 29.12C6.42044 28.3262 6.4536 27.5099 6.53937 26.6873C6.61765 25.8646 6.68877 25.0266 6.78237 24.1892L6.7832 24.1517L6.79236 24.077L6.79252 24.0695L6.80052 24.0472L6.82466 23.9728C6.83298 23.9355 6.86496 23.8462 6.89659 23.772C6.96785 23.6012 7.02996 23.5051 7.08473 23.4014C7.20927 23.1943 7.33315 23.0172 7.47184 22.8478C7.74189 22.5016 8.01877 22.1854 8.29565 21.8693C8.8564 21.2596 9.40217 20.6496 9.93977 20.0694C10.4699 19.4891 10.9331 18.8847 11.3953 18.3254C11.85 17.7658 12.3037 17.2512 12.7482 16.8114C13.6228 15.9089 14.4176 15.222 14.968 14.7395C15.5333 14.2649 15.8688 14.01 15.8688 14.01C16.0364 13.8863 16.268 13.9214 16.3919 14.0816C16.4937 14.2188 16.4896 14.4061 16.3817 14.5386C16.3817 14.5386 15.3331 15.8495 13.5919 17.6322C13.1547 18.0797 12.6646 18.5485 12.1293 19.0238C11.6013 19.5068 11.0354 20.0114 10.513 20.5844C9.99035 21.1649 9.46705 21.7754 8.99521 22.432C8.75562 22.7565 8.52319 23.0961 8.31341 23.4287C8.21218 23.5989 8.11111 23.7615 8.03253 23.9247C7.99323 24.0063 7.95377 24.0954 7.94578 24.1177C7.93779 24.14 7.92264 24.1471 7.91381 24.2069L7.89716 24.2815L7.89666 24.304L7.89649 24.3114C7.88767 24.3712 7.90549 24.2442 7.90515 24.2592L7.90432 24.2966C7.87083 25.1279 7.80753 25.951 7.75939 26.767C7.69626 27.5826 7.67841 28.3842 7.66873 29.1561C7.65155 29.9277 7.64986 30.6772 7.70911 31.3832C7.76086 32.0889 7.75351 32.7558 7.79994 33.364C7.83888 33.972 7.81871 34.5412 7.86031 35.0294C7.88677 35.5247 7.89208 35.9596 7.92187 36.305C7.93634 36.6651 7.95298 36.9278 7.97895 37.1083C7.98244 37.2883 8.01723 37.409 8.0099 37.4013C8.05052 37.5971 7.92615 37.7967 7.73036 37.8374C7.58718 37.8717 7.44616 37.8085 7.3586 37.7017L7.32197 37.6634Z" fill="#042C89"/>
<path d="M7.23726 23.8876C7.23726 23.8876 7.13154 23.9227 6.97387 23.9342C6.81621 23.9457 6.61443 23.9187 6.41398 23.8318C6.20587 23.7522 6.06153 23.5016 5.84028 23.3393C5.61902 23.1769 5.3753 23.0141 5.15488 22.8143C4.93445 22.6145 4.76831 22.3335 4.52391 22.2006C4.40554 22.1305 4.26352 22.1124 4.129 22.0944C3.99448 22.0764 3.87544 22.0363 3.78688 21.9743C3.41728 21.7412 3.28993 21.4011 3.28993 21.4011C3.19771 21.1667 3.31609 20.8995 3.558 20.8074C3.59579 20.7933 3.64108 20.7793 3.68603 20.7803C3.68603 20.7803 4.04647 20.7508 4.42356 20.9841C4.51978 21.0387 4.60786 21.1231 4.68028 21.2372C4.76019 21.3514 4.83227 21.4804 4.95064 21.5505C5.17189 21.7128 5.49354 21.7425 5.7759 21.8537C6.05077 21.9648 6.29467 22.1201 6.53923 22.2455C6.77614 22.3782 7.06799 22.3997 7.22948 22.5532C7.39862 22.6993 7.50733 22.8667 7.5641 23.0104C7.6207 23.1615 7.64084 23.2669 7.64084 23.2669C7.67213 23.5449 7.50131 23.811 7.23726 23.8876Z" fill="#042C89"/>
<path d="M57.6097 21.7794C57.1689 20.7052 56.6451 19.6517 56.0831 18.6347C55.8098 18.1189 55.5059 17.625 55.2098 17.1237C54.9136 16.6224 54.587 16.1429 54.268 15.656C54.1162 15.4053 53.9337 15.1839 53.7667 14.9403C53.5996 14.7042 53.4401 14.4608 53.2503 14.2317C52.8932 13.774 52.521 13.3235 52.1183 12.8948C51.7307 12.4589 51.2897 12.0668 50.8713 11.6677C50.666 11.4608 50.4301 11.2831 50.2095 11.0908L49.54 10.5287L49.8296 10.6476C48.1115 10.3845 46.3939 10.0989 44.6924 9.76123L42.1327 9.25451L39.5498 8.77727L38.8414 8.61159L38.8191 8.6036L38.8116 8.60343C38.8189 8.61109 38.7004 8.54848 38.7523 8.57213L38.745 8.56447L38.708 8.54116L38.6416 8.49471L38.5088 8.4018L38.2429 8.22349C37.8894 7.93828 37.5215 7.63026 37.1684 7.33008C36.5066 6.75317 35.8755 6.14698 35.2825 5.51164C34.0813 4.24812 32.9107 2.9628 31.8472 1.57493C31.7233 1.41476 31.751 1.18301 31.9113 1.05166C32.0562 0.942446 32.2583 0.95444 32.3831 1.06965C33.0299 1.64622 33.661 2.25243 34.2772 2.85829C34.9087 3.44951 35.494 4.09217 36.1178 4.69072C36.7263 5.30391 37.3271 5.92443 37.8975 6.56676L38.7324 7.44734L38.9826 7.65529L39.0998 7.77783L39.1586 7.83161L39.188 7.85475L39.1954 7.86241C39.2471 7.89354 39.1286 7.83094 39.1436 7.83127L39.1511 7.83144L39.1659 7.83927L39.717 8.00144C41.3802 8.37576 43.1221 8.57944 44.8418 8.77513C46.569 8.96349 48.2877 9.20412 50.0065 9.43726L50.014 9.43743C50.1185 9.45475 50.2151 9.49438 50.2962 9.55615L51.0179 10.1344C51.2535 10.327 51.5042 10.5125 51.7243 10.7273C52.1798 11.1422 52.6429 11.5497 53.0601 12.0013C53.5078 12.431 53.9173 12.8898 54.3269 13.3487C54.5393 13.5708 54.7287 13.8149 54.9257 14.0591C55.1151 14.3032 55.3198 14.5401 55.4941 14.7914C55.6758 15.0428 55.8576 15.2942 56.0243 15.5527L56.5012 16.3504C56.6679 16.6089 56.7964 16.8966 56.9402 17.1697C57.0841 17.4427 57.2126 17.7304 57.3336 18.0179C57.5833 18.5857 57.7801 19.1747 57.9617 19.7709C58.1358 20.3669 58.2648 20.9695 58.3331 21.6081C58.3511 21.8109 58.2045 21.995 58.0018 22.013C57.8364 22.0318 57.6813 21.9309 57.617 21.7871L57.6097 21.7794Z" fill="#042C89"/>
<path d="M58.1418 21.664C58.1418 21.664 58.2552 21.6216 58.4357 21.5956C58.6161 21.5696 58.8484 21.5748 59.1091 21.6481C59.37 21.7138 59.6044 21.9589 59.9011 22.1005C60.1976 22.2495 60.5242 22.3917 60.835 22.571C61.1382 22.7576 61.4094 23.0335 61.7219 23.1379C61.8779 23.2013 62.0504 23.1977 62.2075 23.2087C62.3724 23.2123 62.514 23.2455 62.6327 23.3006C63.1229 23.5064 63.3626 23.849 63.3628 23.8415C63.5008 24.0395 63.4573 24.3084 63.2669 24.4465C63.2134 24.4903 63.1455 24.5113 63.0852 24.525C63.0852 24.525 62.6715 24.5907 62.1814 24.3849C62.055 24.3371 61.9368 24.2595 61.8194 24.1445C61.7019 24.0369 61.5772 23.9142 61.4212 23.8508C61.1247 23.7018 60.7424 23.7008 60.392 23.618C60.0492 23.5279 59.7149 23.3931 59.4024 23.2887C59.0901 23.1768 58.7526 23.1842 58.5234 23.0442C58.2939 22.9117 58.1178 22.7429 58.0084 22.6055C57.8992 22.4607 57.8493 22.3471 57.8493 22.3471C57.7351 22.0897 57.8541 21.7925 58.104 21.6782C58.1267 21.6712 58.1343 21.6639 58.1418 21.664Z" fill="#042C89"/>
<path d="M50.5056 9.58836C50.5056 9.58836 50.4546 9.51977 50.3968 9.42104C50.3464 9.32997 50.3114 9.21676 50.3361 9.11986C50.3459 9.01514 50.5262 8.99667 50.5957 8.90826C50.6726 8.82003 50.7423 8.71664 50.8489 8.64406C50.9629 8.57164 51.1511 8.53835 51.1984 8.43446C51.2295 8.38269 51.2014 8.29961 51.1879 8.23185C51.1671 8.15643 51.1684 8.09649 51.1992 8.0597C51.3001 7.90454 51.5472 7.91753 51.5472 7.91753C51.8167 7.93103 52.0531 8.0862 52.1756 8.3063C52.1756 8.3063 52.2982 8.5264 52.1973 8.68157C52.1738 8.72602 52.1282 8.75499 52.0529 8.7683C51.9775 8.78911 51.8949 8.79477 51.8638 8.84655C51.7869 8.93478 51.8428 9.11592 51.8248 9.25044C51.7993 9.3848 51.7371 9.48835 51.6971 9.59989C51.6498 9.70378 51.7061 9.86994 51.6223 9.92804C51.5461 9.9863 51.4332 10.0063 51.3283 10.0039C51.2159 10.0014 51.1339 9.98463 51.1339 9.98463C50.8728 9.92635 50.6587 9.77916 50.5056 9.58836Z" fill="#042C89"/>
<path d="M57.924 66.5982C66.5276 62.6222 73.8655 49.5032 72.0126 40.1374C71.8984 39.5427 70.9984 39.5677 70.8436 40.1264C69.4094 45.289 69.0375 50.2128 66.4637 55.0502C64.1637 59.3764 60.3932 62.4182 57.7186 66.3988C57.6334 66.5243 57.7953 66.6553 57.924 66.5982Z" fill="#042C89"/>
<path d="M77.0397 52.7847C81.504 49.2187 83.5792 42.8711 82.1281 37.3445C81.9763 36.7565 80.9443 36.6511 80.8392 37.3308C80.0117 42.8517 79.7204 47.5225 76.1777 52.1134C75.7686 52.644 76.5895 53.142 77.0397 52.7847Z" fill="#042C89"/>
<path d="M21.6018 34.4429C21.608 34.8403 21.8822 35.3187 22.3079 35.3881C24.3841 35.7266 26.3299 36.2047 28.2684 37.0049C28.4467 37.0763 28.6267 37.0728 28.8003 37.0167C29.6494 37.2605 30.5446 37.4528 31.4475 37.6378C31.4328 38.2971 32.2314 38.7871 32.8279 38.2532C32.935 38.1582 33.0419 38.0706 33.1413 37.9828C34.596 38.2926 35.9594 38.6677 36.9939 39.3354C37.8288 39.8786 38.6756 38.8781 38.2961 38.0826C37.9956 37.4388 37.9064 36.7322 37.9528 35.9912C39.8477 34.3768 41.5443 32.5781 43.1538 30.6501C43.4619 30.2747 43.4581 29.7724 43.2643 29.3858C43.4207 29.097 43.4736 28.7383 43.3386 28.4055C41.6235 24.3047 40.2648 17.9931 34.8876 17.4462C33.2497 17.2823 31.0236 17.2778 28.9156 17.6956C28.4626 17.5056 27.8534 17.597 27.559 18.0252C25.68 18.5905 24.0541 19.5737 23.2614 21.1751C23.1357 21.4347 23.0244 21.717 22.9282 21.9997C20.7862 25.6249 21.5647 30.387 21.6018 34.4429ZM40.5766 29.9181C40.5936 29.4913 40.5801 29.0862 40.5365 28.688C40.5603 28.6285 40.5841 28.5691 40.6077 28.5172C40.8876 28.7408 41.1665 29.0093 41.437 29.3152C41.1553 29.5113 40.8659 29.7147 40.5766 29.9181ZM32.7786 20.9372C32.3124 21.3391 31.8686 21.749 31.4467 22.1818C31.5491 21.9592 31.659 21.7368 31.754 21.5066C31.7695 21.4844 31.7775 21.4621 31.7932 21.4325C31.7932 21.4325 31.7932 21.4325 31.7857 21.4323C31.825 21.3507 31.8643 21.2692 31.9037 21.1801C31.9432 21.091 31.9602 21.0014 31.9771 20.9119C32.2542 20.9255 32.5241 20.9241 32.7786 20.9372ZM30.7033 26.2804C29.895 27.5741 29.0645 28.8524 28.4118 30.2245C28.4065 30.127 28.4088 30.0221 28.4035 29.9245C29.1358 28.6816 29.8828 27.4464 30.7033 26.2804ZM26.5769 22.748C26.5325 22.3873 26.473 22.0261 26.3988 21.6572C26.5202 21.5924 26.6489 21.5353 26.7776 21.4782C26.7081 21.904 26.6389 22.3222 26.5769 22.748ZM26.5051 33.0454C26.5596 32.9567 26.6138 32.8755 26.6683 32.7867C26.728 33.1328 26.7953 33.4791 26.8699 33.8331C26.6791 33.649 26.5036 33.4502 26.3509 33.2369C26.4047 33.1781 26.4585 33.1194 26.5051 33.0454ZM35.042 22.2993C35.1214 22.436 35.2083 22.5729 35.2877 22.7096C35.097 22.8552 34.8914 23.0006 34.7006 23.1537C34.8268 22.8717 34.9456 22.5895 35.042 22.2993ZM29.024 34.3758C29.1006 34.3025 29.1699 34.2216 29.2323 34.1106C29.4824 33.6514 29.7326 33.1847 29.9827 32.7256C29.9747 32.7479 29.9669 32.7627 29.9589 32.785C29.707 33.3266 29.4775 33.8687 29.2857 34.4041C29.198 34.642 29.2533 34.8531 29.3618 35.0279C29.3022 35.0116 29.2426 34.9953 29.1832 34.9715C29.1277 34.7678 29.0721 34.5717 29.024 34.3758ZM32.0987 35.6585C32.6299 35.0257 33.1321 34.3548 33.6121 33.6683C33.1849 34.3409 32.7723 35.0289 32.3747 35.7171C32.2851 35.7001 32.1957 35.6756 32.0987 35.6585ZM36.9481 31.6288C37.0117 31.8026 37.1057 31.9547 37.2229 32.0772C37.1598 32.2182 37.1115 32.367 37.0484 32.5081C36.5679 32.8796 36.0949 33.2514 35.6218 33.6306C36.064 32.9584 36.506 32.2936 36.9481 31.6288ZM23.541 31.5103C23.8002 32.3256 24.0756 33.0888 24.3607 33.7473C24.3677 33.7699 24.3824 33.7852 24.3969 33.808C24.285 33.7831 24.1808 33.7508 24.0687 33.7333C23.3227 33.5742 23.4681 32.4307 23.541 31.5103ZM39.6719 24.4262C39.5129 24.4976 39.3539 24.569 39.2022 24.6481C39.0654 24.3977 38.9285 24.1473 38.784 23.9042C38.7046 23.4302 38.6177 22.9561 38.5159 22.4816C38.4273 22.0823 38.1706 21.8293 37.8586 21.7024C37.7228 21.407 37.5716 21.1263 37.4051 20.8603C38.3666 21.7812 39.0802 23.0563 39.6719 24.4262Z" fill="#042C89"/>
<path d="M38.3921 65.1226C38.9325 65.0897 39.1323 64.532 38.8256 64.1654C42.8125 64.5389 48.0292 63.5382 50.1539 60.6922C54.4415 54.9635 47.6059 48.2077 42.0975 47.493C37.0227 46.8328 33.1161 50.9359 31.9062 55.4513C30.8023 59.5868 33.476 65.4105 38.3921 65.1226ZM33.4779 55.8986C34.1676 52.5259 37.5257 49.8273 40.8676 49.5419C43.3534 49.3274 45.5512 50.6056 47.2525 52.3C49.4009 54.4465 50.5327 59.164 47.2264 60.8819C44.2385 62.4344 40.4561 62.3053 37.1708 63.0791C36.09 62.4704 35.046 61.8925 34.247 60.7429C33.2741 59.327 33.1495 57.5178 33.4779 55.8986Z" fill="#042C89"/>
<path d="M32.1131 56.6576C31.8848 58.4964 32.3672 60.3961 33.8599 62.0334C36.1353 64.5351 39.2676 64.2375 42.1188 62.7644C42.5172 63.0506 43.0632 63.1002 43.4853 62.6599C44.061 62.0505 44.5923 61.4177 45.0791 60.7615C45.2013 60.6593 45.3237 60.5495 45.4461 60.4398C45.4654 60.5827 45.493 60.6882 45.6094 60.8482C45.6968 60.9626 45.8004 61.0249 45.9277 61.0277C45.9264 61.0877 45.9101 61.1473 45.9087 61.2072C45.8438 62.1052 47.1134 62.6507 47.7206 61.9746C49.6965 59.7474 50.4941 57.2541 50.2153 54.2871C50.1732 53.8215 49.9335 53.4788 49.5774 53.3135C49.6731 50.025 46.9133 47.7299 43.0683 48.0566C42.6627 48.0925 42.2417 48.1506 41.8203 48.2237C41.5451 48.1276 41.2301 48.1356 40.9107 48.3384C40.8726 48.3675 40.8345 48.3967 40.7889 48.4256C40.2992 48.5347 39.8091 48.6662 39.311 48.82C39.1836 48.8171 39.0557 48.8368 38.9124 48.8786C38.3839 49.0467 37.877 49.2603 37.384 49.5192C34.3654 50.7712 31.5255 52.7468 29.9939 55.2162C29.1465 56.5841 31.1949 57.8365 32.1131 56.6576ZM35.5335 57.8956C35.3151 58.2805 35.0966 58.6654 34.8932 59.0506C34.7648 58.7554 34.6671 58.4309 34.6149 58.085C34.9282 58.1519 35.259 58.1068 35.5335 57.8956Z" fill="#042C89"/>
<path d="M5.71572 22.1223C6.51602 22.2001 7.3508 21.739 8.13049 21.0592C13.3681 19.4593 17.1387 13.7191 16.7565 8.32875C16.7057 7.57805 15.8595 6.86962 15.1213 7.37039C11.4445 9.90452 7.39992 12.4605 4.99021 16.327C4.08846 17.7761 3.00848 21.8447 5.71572 22.1223ZM9.08102 14.7241C8.71057 15.2031 8.34761 15.6822 7.98465 16.1613C7.79552 16.2396 7.62037 16.3631 7.48135 16.5474C7.35015 16.7169 7.25691 16.8647 7.171 17.0202C7.01566 17.2641 6.85282 17.5078 6.68982 17.7591C7.07377 17.0105 7.61371 16.3255 8.16747 15.6932C8.45967 15.3624 8.76669 15.0394 9.08102 14.7241Z" fill="#042C89"/>
<path d="M35.6629 2.82127C36.1575 4.17399 36.9681 5.13649 37.9483 5.88538C37.7184 6.11263 37.6506 6.46341 37.9508 6.78491C40.6668 9.7012 46.3308 11.5063 50.175 10.2052C51.0436 9.90968 51.335 8.94173 50.7285 8.23863C47.2352 4.21068 42.0474 1.8915 36.7892 1.38469C36.0935 1.32423 35.423 2.14882 35.6629 2.82127ZM45.6929 8.17153C45.8464 7.67274 45.7404 7.04824 45.2684 6.70043C45.143 6.60769 45.0104 6.5073 44.885 6.41456C45.7797 6.96666 46.6276 7.60017 47.414 8.29978C46.8516 8.30975 46.2754 8.26695 45.6929 8.17153Z" fill="#042C89"/>
<path d="M63.1638 41.2028C64.6022 41.2348 64.6289 39.0242 63.1905 38.9922C61.7595 38.9603 61.7328 41.1709 63.1638 41.2028Z" fill="#042C89"/>
<path d="M57.1088 37.8344C57.5917 39.7116 59.5226 42.8728 61.8592 41.6205C62.2687 41.4048 62.5909 41.0746 62.8621 40.6759C62.9067 40.6919 62.9587 40.7155 63.0033 40.7315C63.7019 41.0019 64.1684 39.9105 63.5245 39.5438C63.4948 39.5282 63.4727 39.5127 63.443 39.497C63.9624 38.0545 64.0916 36.2884 64.2295 35.1446C64.5618 32.3411 64.7615 29.0925 64.0132 26.3399C63.8195 25.616 62.9775 25.3874 62.4075 25.742C61.6254 24.8476 60.725 24.2129 59.5608 23.6473C58.9824 23.3646 58.2361 23.5579 58.0486 24.2358C58.0163 24.34 57.9913 24.4519 57.959 24.5561C57.6403 24.7289 57.3861 25.0381 57.3386 25.4868C57.2537 26.2719 57.1909 27.0725 57.1507 27.8662C56.455 31.1713 56.2397 34.4496 57.1088 37.8344ZM61.9203 37.192C61.8535 37.4978 61.7871 37.7887 61.713 38.0868C61.4586 38.0662 61.2042 38.0455 60.9573 38.025C61.3414 36.2571 61.5774 34.411 61.9474 32.6053C62.1523 34.1764 62.1392 35.7727 61.9203 37.192ZM58.8763 35.2053C58.8416 35.7518 58.807 36.2982 58.7723 36.8446C58.6187 36.3389 58.5095 35.8568 58.4504 35.4807C58.6167 35.4169 58.7611 35.3302 58.8763 35.2053Z" fill="#042C89"/>
<path d="M3.11194 43.4713C2.98752 49.7348 5.76387 58.6939 11.3457 57.1167C11.3985 57.1029 11.4366 57.0737 11.4821 57.0522C12.1563 57.7419 12.7738 58.2878 13.2759 58.6288C13.7041 58.9231 14.4796 58.768 14.7079 58.2784C14.9363 57.7812 15.1573 57.284 15.3706 56.794C16.6732 55.856 17.2164 53.6794 17.1316 51.0915C17.2455 50.352 17.3222 49.5967 17.3321 48.8173C17.3341 48.3901 17.0794 48.0471 16.7384 47.8747C15.6708 42.6339 12.578 37.1158 8.34753 36.9092C3.04675 36.6338 2.08086 39.618 3.11194 43.4713ZM13.6198 55.6382C13.5368 55.6663 13.4462 55.6943 13.3561 55.6998C13.2736 55.7054 13.2055 55.7339 13.1375 55.7549C12.9764 55.5864 12.8006 55.4026 12.6249 55.2113C12.8066 55.1329 12.9747 54.9867 13.0919 54.7719C13.6078 53.824 14.0485 52.8818 14.4071 51.9229C14.5775 51.6793 14.7551 51.4434 14.9551 51.2155C14.9541 51.2604 14.9532 51.2979 14.9522 51.3429C14.687 52.8211 14.2134 54.2272 13.6198 55.6382ZM12.3177 51.1643C11.8667 51.8963 11.5041 52.6978 11.2075 53.5607C11.0252 53.3317 10.8356 53.0952 10.646 52.8586C10.6693 52.8216 10.6923 52.7996 10.7083 52.755C11.4598 51.3176 12.1743 49.8643 13.0439 48.512C12.8889 49.4155 12.6369 50.2944 12.3177 51.1643ZM7.31974 48.0623C7.42663 47.9747 7.51937 47.8494 7.59762 47.7012C7.96725 46.9224 8.32922 46.1509 8.72066 45.4025C8.42011 46.4452 8.02267 47.4633 7.58011 48.4878C7.48589 48.3433 7.39915 48.199 7.31974 48.0623ZM9.6039 40.0703C9.4737 40.1948 9.35083 40.327 9.22063 40.4516C9.2248 40.2643 9.23663 40.0696 9.2408 39.8823C9.23747 39.6949 9.1887 39.5289 9.10979 39.3697C9.45242 39.4673 9.77906 39.6095 10.0972 39.7965C9.92373 39.8451 9.75707 39.9238 9.6039 40.0703ZM12.536 42.3693C12.2957 42.3864 12.0463 42.4783 11.8178 42.6456C11.7338 42.7112 11.6647 42.7846 11.5808 42.8502C11.6383 42.2893 11.666 41.7203 11.6492 41.1277C11.9706 41.5022 12.2613 41.9134 12.536 42.3693Z" fill="#042C89"/>
</g>
<defs>
<clipPath id="clip0_153_33399">
<rect width="82.0193" height="65.3382" fill="white" transform="translate(81.999 67.1484) rotate(-178.725)"/>
</clipPath>
</defs>
</svg>
