<svg width="123" height="69" viewBox="0 0 123 69" fill="none" xmlns="http://www.w3.org/2000/svg">
<g clip-path="url(#clip0_148_33330)">
<path d="M40.1593 28.7051C40.1593 28.7051 31 28.7051 31 33.3275C31 37.9499 47.3869 57.0779 77.9914 61.3203C106.664 67.0337 119.224 67.9811 117.906 61.55C117.447 59.2531 113.618 47.4244 105.163 40.8497C89.969 29.0496 63.4406 21.7571 40.1593 28.7051Z" fill="#042C89"/>
<path d="M47.5095 50.2925C44.1417 48.2415 40.9053 45.9341 38.0626 43.1937C37.3533 42.5238 36.6719 41.8208 36.0212 41.115C35.6791 40.7484 35.3678 40.379 35.0536 39.9792C34.7395 39.5794 34.3695 39.2459 34.0554 38.8461C32.8405 37.3657 31.6568 35.5461 31.85 33.572C31.967 32.1245 32.6494 30.779 33.4014 29.519C31.0007 30.316 28.5681 31.7884 28.8055 34.4269C29.0921 37.6113 37.5057 45.9343 51.2868 52.429C49.9895 51.7508 48.7509 51.0369 47.5095 50.2925Z" fill="#042C89"/>
<path d="M122.847 35.5036C122.662 33.7679 122.323 32.0627 121.738 30.4489C121.154 28.835 120.384 27.282 119.491 25.8204C119.06 25.0896 118.568 24.3893 118.076 23.6889C117.583 22.9886 117.091 22.2578 116.567 21.5879C116.013 20.9484 115.398 20.3699 114.782 19.7913C114.228 19.2737 113.674 18.7865 113.089 18.3297C112.966 18.2079 112.812 18.1166 112.689 17.9948C111.919 16.8377 111.119 15.6805 110.257 14.5843C109.241 13.3054 108.103 12.1788 106.841 11.1435C105.548 10.0777 104.193 9.22512 102.685 8.46386C101.177 7.73306 99.7302 6.88046 98.2527 6.14965C95.3593 4.68805 92.312 3.50049 89.1724 2.67834C85.7865 1.76484 82.3082 1.24718 78.8608 0.851332C77.0447 0.638181 75.2287 0.45548 73.4126 0.303229C71.6889 0.150979 69.9959 -0.00127189 68.2722 0.0900785C64.9479 0.303229 61.6851 1.09493 58.4531 1.88664C55.3751 2.61744 52.297 3.59184 49.5267 5.1448C46.6949 6.69776 44.2632 8.92062 42.0162 11.2044C39.6769 13.549 37.3683 15.8937 35.3983 18.5429C33.3976 21.2529 31.7662 24.237 29.7347 26.9166C29.5192 27.2211 29.3037 27.4952 29.119 27.7997C27.3338 28.1651 25.5485 28.5914 23.7632 29.0177C22.1934 29.3831 20.6543 29.779 19.1153 30.2662C17.607 30.7534 16.2219 31.3624 14.806 32.0018C14.7136 32.0323 14.6521 32.0932 14.5597 32.1236C14.2519 32.2454 13.9133 32.3672 13.6055 32.5195C13.3593 32.6108 13.113 32.7326 12.8668 32.824C12.8052 32.8544 12.7437 32.8849 12.6513 32.8849V32.9153C10.0965 34.0724 7.72641 35.5949 5.72566 37.5437C5.0177 38.2441 4.34052 39.0053 3.72491 39.8275C3.72491 39.8275 3.69412 39.8275 3.66334 39.8275C2.80148 41.1369 1.87806 42.4158 1.1701 43.8165C0.831512 44.5168 0.523704 45.2476 0.33902 46.0089C0.154335 46.831 0.0927734 47.6532 0.0927734 48.4753C0.0927734 50.1805 0.33902 51.8858 0.923855 53.4692C1.38557 54.7481 2.06274 55.9356 2.92461 56.9709C3.75569 57.9758 4.74067 58.8284 5.84878 59.5287C6.95689 60.2595 8.15734 60.8381 9.41935 61.3253C10.6814 61.782 11.9742 62.1474 13.2977 62.391C14.6213 62.6347 15.9449 62.7869 17.2992 62.8783C18.7767 63.0001 20.285 63.0305 21.7624 62.9392C23.2399 62.8478 24.7174 62.6042 26.0718 61.9952C26.0718 61.9952 26.0718 61.9952 26.1025 61.9952C26.1641 61.9648 26.2257 61.9647 26.2872 61.9343C26.3796 61.9038 26.5027 61.8429 26.595 61.782C26.7181 61.7211 26.8721 61.6298 26.9952 61.5689C27.0567 61.5384 27.1183 61.4471 27.0875 61.3557C27.7031 61.0208 28.288 60.5945 28.842 60.1377C29.827 59.3156 30.6889 58.3716 31.5199 57.4277C32.4434 56.3924 33.336 55.3266 34.2287 54.2609C36.0139 52.1598 37.8608 50.0892 39.9231 48.2622C40.354 47.8663 40.8157 47.5009 41.2467 47.1051C40.354 46.3743 39.4306 45.6435 38.5687 44.8822C37.3683 43.8165 36.1986 42.7507 35.0597 41.6241C33.9208 40.4974 32.8435 39.3098 31.8585 38.0614C31.1198 37.1174 30.3811 36.1126 29.9193 34.9859C29.7039 34.4378 29.55 33.8593 29.55 33.2503C29.5808 32.6717 29.7654 32.1236 30.1656 31.6973C30.1964 31.6669 30.2579 31.7278 30.2272 31.7582L30.1964 31.7887C30.2887 31.7278 30.3811 31.6973 30.4734 31.6973C30.8736 31.606 31.3045 31.606 31.7354 31.6364C32.2279 31.6364 32.7204 31.6973 33.2129 31.7582C33.6746 31.8191 34.1671 31.8496 34.6288 31.88C35.6754 32.0018 36.6911 32.1845 37.6761 32.4586C38.6919 32.7022 39.7076 33.0067 40.6926 33.3112C42.5395 33.9202 44.3248 34.7728 46.0177 35.7167C47.7414 36.6911 49.4036 37.7569 51.0965 38.7617C51.9584 39.2794 52.8202 39.7666 53.6821 40.2234C54.3901 40.6192 55.098 41.0151 55.7752 41.4414C56.6986 41.9286 57.6221 42.4462 58.5763 42.903C59.7151 43.4511 60.9156 43.8165 62.116 44.1819C63.4396 44.5777 64.7632 44.9736 66.1175 45.2781C68.7339 45.8262 71.3811 46.1916 74.059 46.2829C74.4591 46.3134 74.8593 46.3438 75.2902 46.3743C79.1686 46.5874 83.047 46.3743 86.9561 46.222C90.5267 46.1002 94.1281 45.948 97.6063 45.1258C98.2527 44.9736 98.8683 44.7909 99.4839 44.6082C99.5147 44.6082 99.5763 44.6082 99.607 44.6082C99.9456 44.4864 100.284 44.395 100.592 44.2428C100.623 44.2123 100.654 44.2123 100.684 44.1819C101.115 44.4864 101.515 44.7909 101.885 45.1258C102.685 45.7957 103.424 46.5265 104.163 47.2878C104.871 48.049 105.579 48.8103 106.286 49.5715C107.025 50.3937 107.795 51.2159 108.503 52.038C110.042 53.8041 111.458 55.6311 112.843 57.519C113.551 58.463 114.228 59.4069 114.905 60.3813C115.336 60.9599 115.736 61.5689 116.136 62.1779C116.506 62.7869 116.875 63.3959 117.183 64.0049C117.337 64.279 117.46 64.5835 117.583 64.8575C117.645 64.9793 117.675 65.1011 117.706 65.2229C117.706 65.2838 117.737 65.3143 117.737 65.3752C117.737 65.4056 117.737 65.4361 117.737 65.4361C117.737 65.4361 117.737 65.4665 117.737 65.497V65.5274C117.737 65.5579 117.737 65.5579 117.737 65.5883V65.6188C117.706 65.7101 117.645 65.771 117.583 65.8624C117.429 66.106 117.798 66.1364 117.922 65.9537C117.952 65.8928 117.983 65.8624 118.014 65.8015C118.045 65.771 118.076 65.7406 118.106 65.7101C118.137 65.6492 118.137 65.6188 118.168 65.5579C118.845 64.3703 119.184 63.0305 119.491 61.7211C119.892 60.0464 120.261 58.3716 120.6 56.6664C120.969 54.8394 121.246 52.982 121.554 51.1245C121.831 49.3888 122.139 47.6836 122.385 45.948C122.877 42.5071 123.216 38.9749 122.847 35.5036Z" fill="#042C89"/>
<path d="M40.6441 42.9763C39.4037 41.7792 38.2379 40.5263 37.1821 39.2197C36.3907 38.2322 35.6032 37.1845 35.1418 36.0362C34.9279 35.4782 34.7868 34.8946 34.8245 34.2919C34.8959 33.7215 35.1423 33.1924 35.6292 32.7994C35.6665 32.7715 35.7335 32.8362 35.6962 32.8641L35.6589 32.892C35.7689 32.8384 35.8771 32.8149 35.9833 32.8216C36.0541 32.826 36.1268 32.8003 36.1623 32.8025C33.331 32.5948 30.4531 32.5657 27.6011 32.6895C24.6429 32.8066 21.6733 33.1045 18.8246 33.7427C16.7328 34.2167 14.7322 34.9384 12.8321 35.7571C12.8675 35.7594 12.9011 35.7917 12.8284 35.8174C12.6102 35.8945 12.3939 35.9414 12.2112 36.0208C11.663 36.2587 11.1483 36.5289 10.6001 36.7669C9.94 37.0885 9.27988 37.4102 8.61599 37.7921C8.06023 38.1506 7.50258 38.5392 7.01575 38.9322C5.66719 40.0276 4.52167 41.2869 3.65189 42.6845C2.78212 44.0822 2.18999 45.588 1.98553 47.1484C1.74376 48.7366 1.92506 50.3817 2.46995 51.8983C2.98509 53.3222 3.86382 54.6177 5.03907 55.7199C6.17892 56.82 7.57988 57.7247 9.063 58.453C10.5796 59.2136 12.2139 59.8001 13.8892 60.2984C15.5309 60.7644 17.2138 61.1421 18.9023 61.4295C20.0988 61.6255 21.2972 61.7914 22.5329 61.9293C23.5935 62.0261 24.6913 62.0949 25.7518 62.1916C26.3184 62.2271 26.9186 62.295 27.4871 62.3004C28.3111 62.2008 29.0717 61.9762 29.8362 61.6913C31.0034 61.2199 32.0739 60.5912 33.0438 59.8654C35.433 58.0487 37.5503 56.0334 39.7701 54.0851C41.9525 52.1646 44.269 50.3736 46.7867 48.7767C46.8613 48.7209 46.9714 48.6673 47.046 48.6115C46.1668 47.8908 45.2503 47.198 44.4084 46.4494C43.1661 45.2824 41.8864 44.1433 40.6441 42.9763Z" fill="#042C89"/>
<path opacity="0.39" d="M13.02 60.2926C12.0966 59.5314 11.2347 58.557 10.8346 57.4303C10.4344 56.3036 10.6191 55.1465 11.2347 54.1417C11.6041 53.5327 12.1274 52.9846 12.6199 52.4974C13.1739 51.9797 13.7587 51.4925 14.4051 51.0358C15.7903 50.0614 17.2677 49.2392 18.8068 48.5389C20.3766 47.8081 21.9772 47.1686 23.6086 46.5596C25.1476 45.981 26.7174 45.4329 28.2565 44.8848C30.0726 44.2149 31.8886 43.545 33.7355 42.9969C34.4126 42.7838 35.059 42.6011 35.7362 42.4488C35.4592 42.2052 35.2129 41.9312 34.9667 41.6876C33.8278 40.5609 32.7505 39.3734 31.7655 38.1249C31.0268 37.181 30.288 36.1761 29.8263 35.0495C29.6108 34.5013 29.4569 33.9228 29.4569 33.3138C29.4877 32.7352 29.6724 32.1871 30.0726 31.7608C30.1033 31.7304 30.1649 31.7913 30.1341 31.8217L30.1033 31.8522C30.1957 31.7913 30.288 31.7608 30.3804 31.7608C30.4419 31.7608 30.5035 31.7304 30.5343 31.7304C28.0718 31.6999 25.5786 31.8522 23.1161 32.1567C20.5613 32.4612 18.0065 32.9484 15.5748 33.7705C13.7895 34.3795 12.0966 35.2322 10.496 36.1761C10.5268 36.1761 10.5575 36.2066 10.496 36.237C10.3113 36.3284 10.1266 36.3893 9.9727 36.4806C9.51099 36.7547 9.08006 37.0592 8.61835 37.3332C8.0643 37.6986 7.51024 38.064 6.95619 38.4903C6.49448 38.8862 6.03276 39.3125 5.63261 39.7388C4.52451 40.9263 3.60108 42.2661 2.92391 43.7277C2.24673 45.1893 1.8158 46.7423 1.72345 48.3257C1.60033 49.9396 1.84658 51.5839 2.40063 53.0759C2.92391 54.4766 3.75499 55.7251 4.83231 56.7604C5.87886 57.7957 7.14087 58.6179 8.46445 59.2573C9.8188 59.9272 11.2655 60.4144 12.743 60.8103C13.1431 60.9321 13.5741 61.0234 14.005 61.1148C13.6664 60.8103 13.3586 60.5667 13.02 60.2926Z" fill="#042C89"/>
<path d="M24.1631 61.5064C22.2547 61.3237 20.3463 61.0192 18.4687 60.5929C16.5603 60.1666 14.6826 59.588 12.8666 58.8268C11.1428 58.096 9.48068 57.2129 8.0032 56.0558C6.64885 54.9901 5.4484 53.7416 4.6481 52.2191C3.75546 50.6052 3.38609 48.7782 3.44765 46.9512C3.50921 44.9111 4.15561 42.9014 5.26371 41.1657C6.37182 39.43 7.91086 37.9989 9.57302 36.8113C9.88083 36.5982 10.1886 36.385 10.5272 36.1719C10.3425 36.2632 10.1886 36.3241 10.004 36.4155C9.54224 36.6895 9.11131 36.994 8.6496 37.2681C8.09554 37.6335 7.54149 37.9989 6.98744 38.4252C6.52573 38.821 6.06401 39.2473 5.66386 39.6736C4.55576 40.8612 3.63233 42.201 2.95516 43.6626C2.27798 45.1242 1.84705 46.6772 1.7547 48.2606C1.63158 49.8744 1.87783 51.5187 2.43188 53.0108C2.95516 54.4115 3.78624 55.66 4.86356 56.6953C5.91011 57.7306 7.17212 58.5527 8.4957 59.1922C9.85005 59.8621 11.2967 60.3493 12.7742 60.7451C14.2209 61.1105 15.6984 61.3846 17.1759 61.5673C18.2224 61.6891 19.269 61.7804 20.3463 61.8413C21.2697 61.8718 22.2239 61.8718 23.1473 61.9022C23.6398 61.9022 24.1631 61.9327 24.6556 61.9022C24.9634 61.8413 25.2712 61.75 25.579 61.6282C25.1173 61.5673 24.6556 61.5368 24.1631 61.5064Z" fill="#042C89"/>
<path d="M39.3691 32.888C39.0921 32.7967 38.7842 32.7053 38.4764 32.6444C38.2918 32.5835 38.1071 32.5531 37.8916 32.4922C38.4149 32.614 38.9074 32.7358 39.3691 32.888Z" fill="#042C89"/>
<path d="M67.779 45.3115C66.3939 45.0679 65.0395 44.7634 63.716 44.3676C62.3924 44.0022 61.038 43.6063 59.776 43.1191C58.5756 42.6319 57.4675 41.9925 56.3286 41.3835C55.9284 41.1703 55.5283 40.9572 55.1281 40.744C55.1589 40.6527 55.1589 40.5613 55.005 40.5309C54.9127 40.5309 54.8203 40.5309 54.728 40.5309C54.1432 40.2264 53.5583 39.8914 53.0043 39.5564C50.8188 38.2775 48.6642 36.9073 46.448 35.6893C44.2625 34.4713 41.9847 33.3446 39.5838 32.6138C37.1214 31.8526 34.5358 31.5176 31.981 31.3958C29.4262 31.274 26.8406 31.4263 24.2858 31.6699C21.7002 31.9439 19.1146 32.3702 16.5906 33.101C14.0974 33.8623 11.7888 35.0194 9.60337 36.4505C9.35712 36.6028 9.11087 36.755 8.89541 36.9377C8.71072 37.0291 8.52604 37.1509 8.37213 37.2422C7.66418 37.6685 7.01778 38.1862 6.40216 38.7343C6.37138 38.7647 6.37138 38.7647 6.3406 38.7952C5.75577 39.2519 5.23249 39.7696 4.77078 40.3786C4.67844 40.5004 4.61688 40.5918 4.55532 40.7136C4.09361 41.3226 3.66268 41.9316 3.29331 42.6015C2.46222 44.0326 1.87739 45.5856 1.60036 47.1994C1.32334 48.8133 1.3849 50.4881 1.78505 52.1019C2.1852 53.6244 2.89316 55.0251 3.87814 56.2431C4.83235 57.4002 6.03279 58.3442 7.35637 59.075C8.71072 59.8362 10.1574 60.4148 11.6349 60.8715C13.1124 61.3283 14.6206 61.6328 16.1597 61.846C18.222 62.1505 20.2843 62.2723 22.3774 62.2723C22.6544 62.2723 22.9314 62.2723 23.2393 62.2723C23.5471 62.3331 23.8856 62.3331 24.1935 62.3331C23.7317 62.4549 23.2393 62.5159 22.7468 62.5768C21.2693 62.7595 19.7918 62.7595 18.3143 62.6681C16.9908 62.6072 15.6364 62.4854 14.3128 62.2723C13.02 62.0591 11.7272 61.7546 10.4652 61.3587C9.20321 60.9629 8.00276 60.4452 6.86388 59.7753C5.75577 59.1359 4.70922 58.3746 3.81658 57.4611C2.92394 56.5476 2.15442 55.4819 1.60036 54.3248C0.923186 52.8632 0.553817 51.2798 0.430694 49.6963C0.338351 48.5088 0.369132 47.2603 0.615378 46.0728C1.5388 43.515 2.89316 41.1094 4.64766 39.0388C6.70997 36.6637 9.32634 34.8062 12.1582 33.436C18.6529 30.3301 26.3173 29.2339 33.4585 30.1474C41.0305 31.0913 47.8639 34.7453 54.2971 38.582C57.4675 40.47 60.6071 42.4492 64.0238 43.9108C65.5013 44.5503 67.0403 45.0375 68.5793 45.4333C68.3023 45.4029 68.0561 45.342 67.779 45.3115Z" fill="#0DD180"/>
<path d="M99.8161 44.031C99.7853 44.031 99.7237 44.031 99.6622 44.031C96.1532 45.2491 92.3979 45.5231 88.7042 45.6754C84.8566 45.8581 80.9782 46.0712 77.0998 45.9799C73.0676 45.8885 69.0045 45.4013 65.2185 43.9092C61.6479 42.5085 58.3851 40.4988 55.1224 38.55C48.7507 34.7133 42.0405 30.9984 34.5608 29.8108C28.4354 28.8364 21.9099 29.415 16 31.3638C16.2155 31.2724 16.4002 31.1811 16.6156 31.1202C18.0931 30.5416 19.6629 30.0849 21.202 29.689C23.6952 29.0496 26.2192 28.4406 28.7432 27.9534C28.8356 27.9229 28.9587 27.8925 29.0511 27.8925C29.0511 27.8925 29.0511 27.8925 29.0818 27.8925C29.5743 27.8011 30.0668 27.7098 30.5593 27.6184C36.9309 26.4918 43.4565 25.9437 49.9204 26.0046C56.3536 26.0655 62.8176 26.8876 69.0353 28.5624C72.021 29.3541 75.0068 30.1458 77.8694 31.2724C79.3776 31.851 80.8243 32.5513 82.271 33.3126C83.6869 34.0434 85.1336 34.7438 86.5803 35.4746C91.0128 37.6974 95.2913 40.2248 99.262 43.1784C99.262 43.2089 99.262 43.2089 99.2928 43.2089C99.3544 43.2393 99.3851 43.2698 99.4467 43.3002C99.7237 43.4829 99.97 43.6961 100.247 43.9092C100.062 43.9397 99.9392 44.0006 99.8161 44.031Z" fill="#0DD180"/>
<path d="M42.2622 26.7041C46.5099 26.7345 50.7577 27.0086 55.0054 27.4044C57.9912 27.6785 61.0077 28.0134 63.9934 28.4397C66.6713 28.8356 69.3493 29.3228 71.9041 30.2972C73.9972 31.0889 76.1826 32.3069 77.2291 34.3775C77.2291 34.408 77.2291 34.408 77.1984 34.4384C76.5828 34.5602 75.9979 34.682 75.4131 34.8343C73.2276 35.4128 71.1038 36.2045 68.8568 36.4786C67.7179 36.6004 66.5482 36.6004 65.4093 36.3872C64.1473 36.1741 62.8853 35.7782 61.6541 35.3824C59.1301 34.5907 56.6676 33.6467 54.1436 32.9159C51.4964 32.1242 48.7569 31.5761 46.0482 31.0889C44.6015 30.8453 43.1856 30.6017 41.7389 30.419C41.6773 30.419 41.2464 30.3276 41.1849 30.3581C41.1849 30.3581 41.1849 30.3581 41.2156 30.3581C41.2772 30.419 41.3695 30.4494 41.4311 30.4799C41.6466 30.6017 41.8928 30.7235 42.1391 30.8148C42.7239 31.0889 43.3087 31.302 43.8936 31.5152C45.0325 31.911 46.2021 32.2156 47.3718 32.5505C48.4799 32.855 49.588 33.2204 50.6653 33.5858C53.0662 34.408 55.3132 35.626 57.5602 36.844C59.8688 38.062 62.1773 39.2495 64.5475 40.3153C66.9484 41.4115 69.4416 42.3554 72.0272 42.8426C72.7044 42.9644 73.4123 43.0558 74.0895 43.1167C74.1511 43.1167 74.582 43.208 74.6436 43.1471C74.7051 43.0558 74.4897 42.8731 74.4281 42.7817C74.2742 42.599 74.0895 42.4163 73.874 42.2336C73.0122 41.4724 72.0272 40.9243 71.1653 40.163C71.1346 40.163 71.1653 40.1326 71.1653 40.1021C73.3508 38.9146 75.7517 38.1838 78.2141 37.8488C82.7389 37.2398 87.3868 38.0011 91.6653 39.5236C94.6818 40.5893 97.5752 42.0205 100.222 43.817C100.038 43.6648 99.853 43.5125 99.6376 43.3907C99.576 43.3603 99.5452 43.3298 99.4837 43.2994C99.4529 43.2994 99.4529 43.2689 99.4529 43.2689C95.4822 40.3153 91.2036 37.7879 86.7712 35.5651C85.3245 34.8343 83.9086 34.1339 82.4619 33.4031C81.0152 32.6419 79.5993 31.9415 78.0602 31.3629C75.1668 30.2667 72.1811 29.475 69.2261 28.6529C63.0084 26.9781 56.5752 26.1864 50.1113 26.0951C45.6788 26.0342 41.2156 26.2778 36.7832 26.8259C38.5377 26.7345 40.4153 26.7041 42.2622 26.7041Z" fill="#0DD180"/>
<path d="M122.139 44.6378C121.923 46.3734 121.615 48.1091 121.338 49.8447C121.03 51.6109 120.784 53.377 120.446 55.1431C120.107 56.9701 119.738 58.7666 119.307 60.5936C118.968 62.0553 118.66 63.5473 118.045 64.9176C117.983 64.7044 117.891 64.5217 117.798 64.339C117.491 63.6691 117.152 63.0601 116.752 62.4207C116.444 61.9335 116.136 61.4158 115.798 60.959C115.121 59.9846 114.443 59.0102 113.735 58.0358C112.35 56.1175 110.904 54.26 109.395 52.4635C108.657 51.5804 107.887 50.7278 107.087 49.8752C106.379 49.1139 105.702 48.3222 104.994 47.561C104.255 46.7693 103.516 46.008 102.685 45.3077C102.285 44.9727 101.885 44.6378 101.454 44.3333C101.115 44.0897 100.777 43.8461 100.407 43.6634C99.5455 42.9935 98.7144 42.354 97.8217 41.745C95.113 39.8571 92.312 38.1214 89.3878 36.5989C87.9103 35.8377 86.4328 35.1069 84.9246 34.3456C83.4471 33.6148 82.0312 32.8231 80.5229 32.1228C77.7219 30.8134 74.7361 29.8999 71.7812 29.0778C68.6723 28.2252 65.5635 27.4335 62.3623 26.8854C59.1919 26.3677 55.9906 26.0327 52.7587 25.9109C46.2947 25.576 39.7076 26.0327 33.2437 27.0072C31.9201 27.2203 30.5965 27.4335 29.3037 27.7075C29.5807 27.3421 29.8885 27.0072 30.1656 26.6418C30.6581 26.0327 31.089 25.3933 31.5199 24.7538C32.4741 23.3836 33.336 21.9524 34.2902 20.5517C35.2136 19.1815 36.1986 17.8417 37.2759 16.5932C38.3225 15.3752 39.4614 14.2181 40.5695 13.061C42.8165 10.7163 45.125 8.40212 47.803 6.54466C50.4193 4.71765 53.4666 3.56055 56.5139 2.70795C59.6228 1.85534 62.7932 1.09409 65.9944 0.667787C67.6258 0.454636 69.2879 0.332836 70.9501 0.454636C72.7046 0.576437 74.4591 0.759138 76.2136 0.941839C79.7534 1.30724 83.2932 1.73354 86.7714 2.4948C89.8803 3.19515 92.9276 4.2 95.8518 5.50936C97.36 6.17926 98.8067 6.94051 100.253 7.73222C101.669 8.52392 103.147 9.13292 104.532 9.98553C107.302 11.7516 109.488 14.2485 111.334 16.8977C111.396 16.9891 111.458 17.0804 111.55 17.2022C111.704 17.4458 111.827 17.6894 111.981 17.9635C112.535 18.9683 113.058 20.0036 113.612 21.0085C113.889 21.4957 114.136 22.0133 114.382 22.531C114.597 22.9573 114.782 23.414 114.967 23.8708C115.274 24.6016 115.613 25.3628 115.982 26.0632C116.106 26.2154 116.259 26.3372 116.413 26.4895C116.721 26.7636 117.029 27.0376 117.368 27.2812C117.121 26.9767 116.875 26.6418 116.66 26.2764C116.198 25.5151 115.828 24.7234 115.49 23.9012C115.305 23.4749 115.151 23.0486 114.967 22.6528C114.72 22.1351 114.474 21.6175 114.197 21.0998C113.797 20.3386 113.366 19.5773 112.935 18.8161L112.966 18.7856C113.12 18.9074 113.274 19.0292 113.428 19.151C114.043 19.6382 114.597 20.2168 115.182 20.7649C116.413 21.9524 117.398 23.414 118.322 24.8452C119.276 26.2763 120.138 27.7684 120.815 29.3518C121.492 30.9352 121.985 32.61 122.262 34.3152C122.785 37.6951 122.6 41.1969 122.139 44.6378Z" fill="#00A6E3"/>
<path d="M109.456 17.2664C109.425 16.8097 109.425 16.3529 109.395 15.8962C109.395 15.683 109.364 15.4394 109.364 15.2263C109.364 15.1349 109.21 15.1958 109.21 15.2567C109.148 16.1702 109.148 17.1142 109.118 18.0277C109.118 18.9412 109.087 19.8242 108.964 20.7377C108.748 22.5039 108.317 24.2395 107.979 26.0056C107.64 27.7717 107.24 29.5378 106.778 31.2735C106.317 33.0091 105.824 34.7448 105.239 36.45C104.962 37.2722 104.685 38.1248 104.347 38.9165C104.008 39.7082 103.639 40.4694 103.392 41.2611C103.331 41.4438 103.269 41.657 103.238 41.8397C103.208 41.931 103.362 41.9006 103.362 41.8397C103.608 41.0175 104.008 40.2563 104.347 39.4646C104.716 38.6729 105.024 37.8507 105.332 37.0286C105.978 35.3234 106.532 33.6181 106.994 31.852C107.455 30.1164 107.886 28.3503 108.225 26.5842C108.594 24.8181 108.994 23.0824 109.271 21.3163C109.395 20.4332 109.456 19.5197 109.456 18.6367C109.487 18.1799 109.487 17.7232 109.456 17.2664Z" fill="#042C89"/>
<path d="M73.6281 0.94134C72.7046 0.819539 71.7504 1.12404 70.9501 1.48944C70.0883 1.88529 69.288 2.40295 68.58 3.0424C67.1025 4.35175 65.9636 6.02651 65.0402 7.76217C64.0245 9.68053 63.2549 11.6902 62.547 13.7304C61.839 15.8315 61.1618 17.963 60.3 20.0031C59.9614 20.8557 59.6228 21.7083 59.1919 22.5305C58.7609 23.3222 58.2685 24.053 57.5913 24.6924C57.4066 24.8447 57.2219 24.9969 57.0372 25.1492C56.9757 25.2101 57.0372 25.271 57.0988 25.2405C57.8683 24.7533 58.5147 24.1139 59.0072 23.3526C59.4997 22.5914 59.8998 21.7692 60.2384 20.9471C60.6386 19.9727 61.0387 19.0287 61.4081 18.0543C61.7775 17.019 62.1468 15.9837 62.4854 14.9179C63.1934 12.8473 63.9013 10.7767 64.8555 8.79747C65.7174 7.06182 66.7332 5.35661 68.0875 3.9559C68.7339 3.286 69.4419 2.70745 70.2422 2.22025C71.0425 1.73304 71.9351 1.30674 72.8585 1.18494C73.074 1.15449 73.2895 1.12404 73.5049 1.12404C73.6281 1.09359 73.7512 0.94134 73.6281 0.94134Z" fill="#042C89"/>
<path d="M114.135 57.0664C111.211 52.5598 107.641 48.4186 103.731 44.7341C99.9454 41.1714 95.7284 38.0351 91.1113 35.5686C88.772 34.2897 86.3095 33.224 83.847 32.1582C81.2307 31.0315 78.5835 29.9353 75.844 29.0523C71.1654 27.4689 66.1481 26.3118 61.1924 26.6772C61.5925 26.7381 61.9927 26.799 62.3928 26.8599C65.594 27.3775 68.7029 28.1997 71.8118 29.0523C74.7975 29.8744 77.7524 30.7879 80.5535 32.0973C82.031 32.7977 83.4777 33.5894 84.9551 34.3202C86.4326 35.051 87.9409 35.7818 89.4184 36.5735C92.3425 38.096 95.1436 39.8621 97.8523 41.7195C98.7449 42.3285 99.6068 42.968 100.438 43.6379C100.807 43.8511 101.146 44.0642 101.484 44.3078C101.915 44.6123 102.316 44.9473 102.716 45.2822C103.516 45.9826 104.285 46.7438 105.024 47.5355C105.732 48.2968 106.44 49.058 107.117 49.8497C107.887 50.7023 108.656 51.5549 109.426 52.438C110.934 54.2345 112.381 56.1225 113.766 58.0104C114.474 58.9848 115.151 59.9287 115.828 60.9336C116.167 61.4208 116.475 61.908 116.782 62.3952C117.152 63.0042 117.521 63.6436 117.829 64.3135C117.921 64.4962 118.014 64.7094 118.075 64.8921C118.137 64.7094 118.229 64.5571 118.291 64.3744C117.059 61.8471 115.674 59.4111 114.135 57.0664Z" fill="#042C89"/>
</g>
<defs>
<clipPath id="clip0_148_33330">
<rect width="123" height="69" fill="white"/>
</clipPath>
</defs>
</svg>
