<svg width="74" height="86" viewBox="0 0 74 86" fill="none" xmlns="http://www.w3.org/2000/svg">
<g clip-path="url(#clip0_61_30016)">
<path opacity="0.12" d="M27.2091 10.5719C27.4292 9.95568 27.6541 9.34032 27.8685 8.72794C28.2681 8.67009 28.6536 8.53043 28.9872 8.30177C29.92 7.66228 30.6492 6.30643 30.0997 4.97539C29.6636 3.92805 28.5508 3.20758 27.422 3.24595C26.2933 3.28432 25.2264 4.08638 24.8787 5.16823C24.5733 6.10473 24.8296 7.1922 25.4902 7.91107C17.8076 29.5781 9.34043 51.2844 0.309863 72.4337C0.0452223 73.0514 0.309449 73.7595 0.897075 74.0588C0.919911 74.0681 0.941842 74.0822 0.969427 74.0923C1.60612 74.3664 2.34669 74.0664 2.6197 73.4305C6.8415 63.5349 10.9381 53.5215 14.8938 43.4468C28.5285 46.0953 41.5099 52.0089 52.1681 60.8115C60.5181 52.0248 66.7177 41.193 69.6076 29.9417C57.5927 19.759 42.7511 12.9932 27.2091 10.5719Z" fill="#022C38"/>
<path d="M12.5149 42.6782C26.8504 44.4058 40.7385 49.7144 52.2855 58.265C60.1653 49.0528 65.7856 37.9034 68.0865 26.5158C55.2182 16.7352 39.5754 10.6933 23.4956 9.29305L12.5149 42.6782Z" fill="#009E3A"/>
<path d="M23.1934 25.4974L34.9633 44.4991L57.41 41.3475L45.6907 19.9511L23.1934 25.4974Z" fill="#FEC530"/>
<path d="M47.5626 30.3662C46.8492 27.2528 44.0367 24.7557 40.8768 24.4289C37.7169 24.1021 34.445 25.9754 33.1088 28.8734C31.7716 31.7763 32.4657 35.4847 34.757 37.695C37.0493 39.9005 40.7694 40.4374 43.5908 38.9685C46.4161 37.5054 48.4123 34.0843 47.5626 30.3662Z" fill="#2E3D7E"/>
<path d="M45.9905 36.9988C46.6244 36.2235 47.1198 35.323 47.4256 34.3321C43.505 31.1155 38.9067 28.7499 34.0144 27.4417C33.6648 27.885 33.3495 28.3546 33.1087 28.8729C32.8176 29.5005 32.6415 30.1696 32.5415 30.8531C37.4587 31.6664 42.1536 33.8078 45.9905 36.9988Z" fill="white"/>
<path d="M37.4512 33.285C37.547 33.1943 37.5505 33.0466 37.4605 32.9504C37.3705 32.8541 37.2235 32.851 37.1276 32.9417C37.0318 33.0324 37.0283 33.1801 37.1183 33.2763C37.2083 33.3725 37.3553 33.3757 37.4512 33.285Z" fill="white"/>
<path d="M36.0539 35.3136C36.1198 35.2517 36.1255 35.1437 36.0593 35.0766C35.9932 35.0095 35.8905 35.005 35.8236 35.0716C35.7576 35.1335 35.752 35.2415 35.8181 35.3086C35.8796 35.3748 35.9879 35.3755 36.0539 35.3136Z" fill="white"/>
<path d="M35.7004 36.0089C35.7663 35.9471 35.772 35.839 35.7058 35.7719C35.6444 35.7057 35.537 35.7003 35.4701 35.7669C35.4041 35.8288 35.3985 35.9368 35.4646 36.0039C35.5308 36.071 35.6344 36.0708 35.7004 36.0089Z" fill="white"/>
<path d="M36.6662 36.7785C36.7321 36.7166 36.7378 36.6086 36.6716 36.5415C36.6102 36.4753 36.5028 36.4698 36.4359 36.5365C36.37 36.5983 36.3643 36.7064 36.4304 36.7735C36.4919 36.8397 36.6002 36.8404 36.6662 36.7785Z" fill="white"/>
<path d="M33.6418 34.8293C33.7077 34.7674 33.7134 34.6593 33.6472 34.5923C33.5858 34.5261 33.4784 34.5206 33.4115 34.5872C33.3455 34.6491 33.3399 34.7572 33.406 34.8242C33.4674 34.8904 33.5758 34.8911 33.6418 34.8293Z" fill="white"/>
<path d="M39.0099 35.0207C39.0759 34.9588 39.0816 34.8508 39.0154 34.7837C38.954 34.7175 38.8465 34.712 38.7797 34.7787C38.7137 34.8405 38.708 34.9486 38.7742 35.0157C38.8356 35.0818 38.943 35.0873 39.0099 35.0207Z" fill="white"/>
<path d="M40.5841 35.3097C40.6501 35.2478 40.6558 35.1398 40.5896 35.0727C40.5282 35.0065 40.4208 35.001 40.3539 35.0677C40.2879 35.1296 40.2822 35.2376 40.3484 35.3047C40.4146 35.3718 40.5182 35.3716 40.5841 35.3097Z" fill="white"/>
<path d="M40.714 38.5168C40.7809 38.4501 40.7857 38.3468 40.7195 38.2798C40.6581 38.2136 40.5506 38.2081 40.4838 38.2747C40.4169 38.3414 40.4121 38.4447 40.4783 38.5117C40.5397 38.5779 40.6471 38.5834 40.714 38.5168Z" fill="white"/>
<path d="M42.1925 38.5597C42.2585 38.4978 42.2642 38.3898 42.198 38.3227C42.1366 38.2565 42.0292 38.251 41.9623 38.3177C41.8963 38.3796 41.8906 38.4876 41.9568 38.5547C42.0182 38.6209 42.1266 38.6216 42.1925 38.5597Z" fill="white"/>
<path d="M43.6242 37.7824C43.6911 37.7157 43.6958 37.6125 43.6297 37.5454C43.5682 37.4792 43.4608 37.4737 43.3939 37.5404C43.3271 37.607 43.3223 37.7103 43.3885 37.7774C43.4499 37.8436 43.5525 37.8481 43.6242 37.7824Z" fill="white"/>
<path d="M44.2091 37.2902C44.2751 37.2283 44.2808 37.1203 44.2146 37.0532C44.1532 36.987 44.0458 36.9815 43.9789 37.0482C43.9129 37.1101 43.9072 37.2181 43.9734 37.2852C44.0387 37.3571 44.1423 37.3569 44.2091 37.2902Z" fill="white"/>
<path d="M44.9416 36.7584C44.9782 36.7209 44.9795 36.6619 44.947 36.6261C44.9098 36.5894 44.8511 36.5881 44.8154 36.6209C44.7789 36.6584 44.7775 36.7174 44.81 36.7532C44.8416 36.7938 44.9003 36.795 44.9416 36.7584Z" fill="white"/>
<path d="M34.7295 34.3475C34.8254 34.2568 34.8288 34.1091 34.7388 34.0129C34.6488 33.9166 34.5018 33.9135 34.406 34.0042C34.3101 34.0949 34.3067 34.2426 34.3966 34.3388C34.4866 34.435 34.6383 34.4391 34.7295 34.3475Z" fill="white"/>
<path d="M39.4358 36.2796C39.3085 36.2505 39.1841 36.3358 39.1549 36.4638C39.1257 36.5918 39.2103 36.7167 39.3376 36.7458C39.4649 36.7748 39.5893 36.6896 39.6184 36.5615C39.6429 36.4326 39.564 36.3039 39.4358 36.2796Z" fill="white"/>
<path d="M39.7971 34.1663C39.6698 34.1372 39.5454 34.2225 39.5163 34.3505C39.4871 34.4786 39.5716 34.6034 39.6989 34.6325C39.8262 34.6616 39.9506 34.5763 39.9798 34.4483C40.009 34.3202 39.9253 34.1906 39.7971 34.1663Z" fill="white"/>
<path d="M43.8039 30.1975C43.6766 30.1685 43.5523 30.2537 43.5231 30.3818C43.4939 30.5098 43.5784 30.6347 43.7057 30.6637C43.833 30.6928 43.9574 30.6075 43.9866 30.4795C44.011 30.3506 43.9312 30.2266 43.8039 30.1975Z" fill="white"/>
<path d="M43.9416 36.1507C43.8143 36.1216 43.69 36.2068 43.6608 36.3349C43.6316 36.4629 43.7161 36.5878 43.8434 36.6169C43.9707 36.6459 44.0951 36.5607 44.1243 36.4326C44.1535 36.3046 44.0698 36.175 43.9416 36.1507Z" fill="white"/>
<path d="M34.9385 32.3123C35.0344 32.2217 35.0378 32.0739 34.9478 31.9777C34.8578 31.8815 34.7108 31.8784 34.6149 31.969C34.5191 32.0597 34.5157 32.2075 34.6056 32.3037C34.6909 32.399 34.8426 32.403 34.9385 32.3123Z" fill="white"/>
<path opacity="0.12" d="M27.4925 9.74673C26.1645 9.56431 24.8321 9.40576 23.4962 9.29109L12.5155 42.6762C13.8764 42.8401 15.2292 43.0471 16.5832 43.274C21.0163 31.2516 25.9768 14.837 27.4925 9.74673Z" fill="#022C38"/>
<path d="M27.3129 3.68442C26.823 2.66151 25.6747 1.99862 24.5493 2.097C23.4239 2.19538 22.4002 3.0551 22.1086 4.15252C21.8122 5.24904 22.272 6.50865 23.2087 7.14627C24.1406 7.783 25.4799 7.74989 26.3772 7.0641C27.2802 6.37443 27.9379 4.98031 27.3129 3.68442Z" fill="#022C38"/>
<path d="M1.77663 74.2163C1.17318 73.9486 0.875933 73.259 1.1044 72.6246C9.09087 50.8074 16.48 28.4564 23.0651 6.19554C23.261 5.52523 23.9629 5.14376 24.6236 5.34318C25.2899 5.53873 25.6679 6.24361 25.4681 6.90824C18.8683 29.2208 11.4597 51.6224 3.45382 73.4903C3.21699 74.143 2.49383 74.4809 1.84039 74.2432C1.82231 74.2349 1.79947 74.2256 1.77663 74.2163Z" fill="#022C38"/>
</g>
<defs>
<clipPath id="clip0_61_30016">
<rect width="60.202" height="75.2525" fill="white" transform="translate(14.0137) rotate(10.732)"/>
</clipPath>
</defs>
</svg>
