<svg width="78" height="106" viewBox="0 0 78 106" fill="none" xmlns="http://www.w3.org/2000/svg">
<g clip-path="url(#clip0_154_33448)">
<path d="M45.9768 98.5407C45.0107 99.0734 36.8187 101.88 37.9844 105.139L52.3324 105.163C52.3324 105.163 52.5241 101.188 50.8793 98.4453L45.9768 98.5407Z" fill="#042C89"/>
<path d="M37.6006 104.995H52.6433V105.893H37.6485C37.6485 105.885 37.6006 104.939 37.6006 104.995Z" fill="#C9CDD2"/>
<path d="M66.0578 98.5407C67.0239 99.0734 75.2159 101.88 74.0502 105.139L59.7022 105.163C59.7022 105.163 59.5105 101.188 61.1553 98.4453L66.0578 98.5407Z" fill="#042C89"/>
<path d="M74.4331 104.995H59.3984V105.893H74.3932C74.3852 105.885 74.4331 104.939 74.4331 104.995Z" fill="#C9CDD2"/>
<mask id="path-5-inside-1_154_33448" fill="white">
<path d="M55.8223 68.4442C55.2554 74.4863 52.4848 92.6048 51.6544 98.6152H45.2109C45.2908 92.9546 46.2569 64.6996 46.3367 59.0391L66.21 59.1981C65.7389 59.5081 67.0164 98.7583 67.0164 98.7583L60.4452 99.0683L56.6686 68.3885"/>
</mask>
<path d="M55.8223 68.4442C55.2554 74.4863 52.4848 92.6048 51.6544 98.6152H45.2109C45.2908 92.9546 46.2569 64.6996 46.3367 59.0391L66.21 59.1981C65.7389 59.5081 67.0164 98.7583 67.0164 98.7583L60.4452 99.0683L56.6686 68.3885" fill="#0DD180"/>
<path d="M51.6544 98.6152V99.1152H52.09L52.1497 98.6836L51.6544 98.6152ZM45.2109 98.6152L44.711 98.6081L44.7038 99.1152H45.2109V98.6152ZM46.3367 59.0391L46.3407 58.5391L45.8438 58.5351L45.8368 59.032L46.3367 59.0391ZM66.21 59.1981L66.4849 59.6157L67.8591 58.7112L66.214 58.6981L66.21 59.1981ZM67.0164 98.7583L67.04 99.2577L67.5322 99.2345L67.5162 98.742L67.0164 98.7583ZM60.4452 99.0683L59.949 99.1294L60.0056 99.5896L60.4688 99.5678L60.4452 99.0683ZM55.3244 68.3974C54.7589 74.4255 51.9925 92.5143 51.1591 98.5467L52.1497 98.6836C52.977 92.6953 55.7519 74.5471 56.3201 68.4909L55.3244 68.3974ZM51.6544 98.1152H45.2109V99.1152H51.6544V98.1152ZM45.7109 98.6222C45.7507 95.7974 46.012 87.3249 46.2736 78.8425C46.535 70.3671 46.7967 61.8818 46.8367 59.0461L45.8368 59.032C45.7969 61.8568 45.5357 70.3294 45.2741 78.8117C45.0127 87.2871 44.751 95.7724 44.711 98.6081L45.7109 98.6222ZM46.3327 59.539L66.206 59.6981L66.214 58.6981L46.3407 58.5391L46.3327 59.539ZM65.9351 58.7804C65.8171 58.8581 65.7649 58.9624 65.7496 58.9939C65.7276 59.039 65.7148 59.0805 65.7073 59.1075C65.692 59.1628 65.6823 59.221 65.6755 59.2711C65.6613 59.3749 65.6507 59.51 65.6422 59.6664C65.625 59.9824 65.6145 60.4289 65.6094 60.9823C65.5992 62.0913 65.6106 63.6547 65.6373 65.5173C65.6909 69.2438 65.8065 74.1815 65.9367 79.1076C66.067 84.0342 66.212 88.9509 66.3244 92.6358C66.3806 94.4783 66.4287 96.0129 66.4627 97.0869C66.4797 97.624 66.4932 98.0458 66.5025 98.3334C66.5071 98.4772 66.5107 98.5875 66.5131 98.6618C66.5143 98.699 66.5152 98.7271 66.5158 98.746C66.5161 98.7555 66.5163 98.7626 66.5165 98.7673C66.5166 98.7697 66.5166 98.7715 66.5166 98.7727C66.5167 98.7733 66.5167 98.7738 66.5167 98.7741C66.5167 98.7744 66.5167 98.7745 67.0164 98.7583C67.5162 98.742 67.5162 98.7418 67.5162 98.7415C67.5162 98.7412 67.5161 98.7408 67.5161 98.7402C67.5161 98.739 67.516 98.7372 67.5159 98.7349C67.5158 98.7301 67.5156 98.723 67.5153 98.7136C67.5146 98.6947 67.5137 98.6666 67.5125 98.6295C67.5101 98.5552 67.5066 98.4451 67.502 98.3013C67.4927 98.0138 67.4792 97.5921 67.4622 97.0553C67.4282 95.9816 67.3802 94.4474 67.324 92.6053C67.2116 88.9212 67.0666 84.0059 66.9364 79.0812C66.8062 74.156 66.6907 69.2231 66.6372 65.503C66.6105 63.6423 66.5993 62.0884 66.6094 60.9915C66.6145 60.442 66.6248 60.0135 66.6407 59.7205C66.6487 59.5723 66.6577 59.4695 66.6663 59.4066C66.6708 59.3733 66.6734 59.366 66.6711 59.3741C66.6702 59.3775 66.664 59.4001 66.649 59.4309C66.6406 59.4482 66.5956 59.5429 66.4849 59.6157L65.9351 58.7804ZM66.9929 98.2588L60.4217 98.5689L60.4688 99.5678L67.04 99.2577L66.9929 98.2588ZM60.9415 99.0072L57.1649 68.3274L56.1724 68.4496L59.949 99.1294L60.9415 99.0072Z" fill="#042C89" mask="url(#path-5-inside-1_154_33448)"/>
<path d="M52.4922 67.5625C53.2188 67.642 54.6001 68.0077 55.5023 68.0316C56.9715 68.1349 58.217 68.0475 59.5664 67.7215C59.7181 67.6897 60.1812 67.5625 59.9177 67.7692C58.3448 68.6835 56.4285 68.6676 54.6161 68.3098C53.9294 68.1588 52.8515 67.8964 52.4922 67.5625Z" fill="#042C89"/>
<path fill-rule="evenodd" clip-rule="evenodd" d="M42.7833 54.1492C42.3145 53.0313 41.0902 50.119 41 49.9779L43.4273 49L45.3056 53.2802C46.2421 53.5632 46.8305 54.7066 47.2117 55.5732C47.4831 56.0821 47.8025 56.7817 47.3793 57.2905C47.1797 57.521 46.7885 57.5926 46.5569 57.3938C46.5729 57.8788 45.9741 58.2684 45.5349 58.0617C45.3832 58.5546 44.6407 58.7136 44.2894 58.3399C44.2574 58.6977 43.7464 58.8487 43.427 58.6738C43.0997 58.4989 42.932 58.1412 42.7883 57.8072C42.7677 57.7438 42.7303 57.6658 42.6897 57.5812C42.5576 57.3056 42.3917 56.9595 42.6605 56.8135C42.7932 56.7738 42.9093 56.8823 42.9952 57.0023C42.4615 56.1658 42.389 55.06 42.7833 54.1492Z" fill="#FDFDFF"/>
<path d="M41 49.9779L40.9066 49.746C40.8376 49.7738 40.7845 49.8309 40.7619 49.9017C40.7392 49.9726 40.7493 50.0498 40.7893 50.1125L41 49.9779ZM42.7833 54.1492L43.0127 54.2486C43.0397 54.1861 43.0401 54.1153 43.0138 54.0526L42.7833 54.1492ZM43.4273 49L43.6562 48.8995C43.6019 48.7758 43.4592 48.7176 43.3338 48.7681L43.4273 49ZM45.3056 53.2802L45.0767 53.3807C45.1061 53.4477 45.1633 53.4984 45.2333 53.5196L45.3056 53.2802ZM47.2117 55.5732L46.9828 55.6739C46.9854 55.6797 46.9881 55.6854 46.9911 55.6909L47.2117 55.5732ZM47.3793 57.2905L47.5684 57.4541L47.5716 57.4503L47.3793 57.2905ZM46.5569 57.3938L46.7198 57.2041C46.6445 57.1395 46.5382 57.1255 46.4488 57.1684C46.3594 57.2113 46.3038 57.303 46.3071 57.4021L46.5569 57.3938ZM45.5349 58.0617L45.6414 57.8355C45.5759 57.8046 45.5001 57.8037 45.4339 57.833C45.3676 57.8623 45.3173 57.9189 45.296 57.9881L45.5349 58.0617ZM44.2894 58.3399L44.4715 58.1687C44.404 58.0969 44.3008 58.0715 44.2077 58.1036C44.1146 58.1358 44.0491 58.2196 44.0404 58.3177L44.2894 58.3399ZM43.427 58.6738L43.5471 58.4545L43.5449 58.4533L43.427 58.6738ZM42.7883 57.8072L42.5505 57.8845C42.5529 57.8918 42.5556 57.899 42.5587 57.9061L42.7883 57.8072ZM42.6897 57.5812L42.4643 57.6892V57.6892L42.6897 57.5812ZM42.6605 56.8135L42.589 56.5739C42.5724 56.5789 42.5564 56.5855 42.5412 56.5938L42.6605 56.8135ZM42.9952 57.0023L42.7919 57.1478C42.8708 57.2579 43.023 57.2852 43.1352 57.2093C43.2475 57.1335 43.2788 56.982 43.2059 56.8678L42.9952 57.0023ZM40.7893 50.1125C40.7882 50.1107 40.8081 50.1497 40.8554 50.2546C40.8977 50.3483 40.9542 50.4768 41.0215 50.6316C41.1558 50.941 41.3317 51.3524 41.5195 51.795C41.8953 52.6799 42.3183 53.687 42.5527 54.2459L43.0138 54.0526C42.7794 53.4935 42.3559 52.4855 41.9798 51.5996C41.7917 51.1567 41.6153 50.7437 41.4801 50.4324C41.4125 50.2769 41.3549 50.1459 41.3112 50.0489C41.2725 49.9633 41.2343 49.8803 41.2107 49.8432L40.7893 50.1125ZM43.3338 48.7681L40.9066 49.746L41.0934 50.2098L43.5207 49.2319L43.3338 48.7681ZM45.5345 53.1798L43.6562 48.8995L43.1983 49.1005L45.0767 53.3807L45.5345 53.1798ZM47.4405 55.4726C47.2482 55.0354 46.9972 54.5129 46.6692 54.061C46.3428 53.6113 45.9211 53.205 45.3779 53.0409L45.2333 53.5196C45.6266 53.6384 45.9673 53.9452 46.2646 54.3547C46.5601 54.7619 46.7939 55.2444 46.9828 55.6739L47.4405 55.4726ZM47.5716 57.4503C47.8478 57.1182 47.871 56.7296 47.8011 56.3825C47.7324 56.0415 47.5687 55.7114 47.4322 55.4556L46.9911 55.6909C47.1261 55.9439 47.2579 56.218 47.3109 56.4812C47.3627 56.7383 47.3341 56.9539 47.1871 57.1306L47.5716 57.4503ZM46.3941 57.5835C46.5762 57.7399 46.8094 57.7803 47.0158 57.7506C47.2215 57.7209 47.4257 57.6189 47.5683 57.4541L47.1903 57.1268C47.1334 57.1926 47.0421 57.2416 46.9445 57.2557C46.8474 57.2697 46.7692 57.2465 46.7198 57.2041L46.3941 57.5835ZM45.4285 58.2878C45.7455 58.4371 46.0975 58.3633 46.3532 58.1965C46.6089 58.0297 46.8184 57.737 46.8068 57.3856L46.3071 57.4021C46.3115 57.5357 46.2295 57.6802 46.08 57.7777C45.9305 57.8753 45.7635 57.8929 45.6414 57.8355L45.4285 58.2878ZM44.1072 58.5112C44.3576 58.7775 44.7291 58.8385 45.0407 58.7699C45.3527 58.7013 45.6649 58.4893 45.7739 58.1352L45.296 57.9881C45.2533 58.1269 45.1184 58.2409 44.9333 58.2816C44.7479 58.3224 44.5724 58.276 44.4715 58.1687L44.1072 58.5112ZM43.307 58.8931C43.538 59.0196 43.8208 59.023 44.0492 58.9423C44.2778 58.8616 44.5108 58.671 44.5384 58.3621L44.0404 58.3177C44.036 58.3665 43.9975 58.4303 43.8827 58.4709C43.7678 58.5115 43.6355 58.5029 43.5471 58.4545L43.307 58.8931ZM42.5587 57.9061C42.6973 58.2281 42.8935 58.6722 43.3092 58.8943L43.5449 58.4533C43.3059 58.3256 43.1667 58.0542 43.0179 57.7084L42.5587 57.9061ZM42.4643 57.6892C42.5075 57.7795 42.5362 57.8404 42.5505 57.8845L43.0261 57.73C42.9991 57.6471 42.953 57.5521 42.9152 57.4731L42.4643 57.6892ZM42.5412 56.5938C42.4234 56.6578 42.3395 56.7536 42.2973 56.8732C42.2578 56.9854 42.2621 57.0982 42.2785 57.1918C42.3101 57.3719 42.4026 57.5605 42.4643 57.6892L42.9152 57.4731C42.8448 57.3262 42.7883 57.204 42.7711 57.1056C42.7631 57.06 42.7681 57.0417 42.7689 57.0393C42.769 57.0392 42.7683 57.0405 42.7675 57.0415C42.7669 57.0422 42.7695 57.0388 42.7799 57.0332L42.5412 56.5938ZM43.1984 56.8567C43.1479 56.7861 43.0764 56.7009 42.983 56.6393C42.8846 56.5744 42.746 56.527 42.589 56.5739L42.7321 57.053C42.7237 57.0555 42.7136 57.0558 42.7054 57.0541C42.6989 57.0527 42.6996 57.0513 42.7078 57.0567C42.7161 57.0622 42.7283 57.0722 42.7439 57.0886C42.7592 57.1047 42.7754 57.1247 42.7919 57.1478L43.1984 56.8567ZM42.5538 54.0499C42.1278 55.0341 42.2045 56.2277 42.7844 57.1367L43.2059 56.8678C42.7185 56.1038 42.6502 55.0859 43.0127 54.2486L42.5538 54.0499Z" fill="#042C89"/>
<path d="M71.585 49.9779C71.4732 50.1528 69.6209 54.581 69.6209 54.581L67.1377 53.6032L69.1578 49L71.585 49.9779Z" fill="#FDFDFF" stroke="#042C89" stroke-width="0.5" stroke-linejoin="round"/>
<path d="M69.6766 53.8996C70.2196 54.8775 70.1717 56.1575 69.5409 57.0797C69.6287 56.9366 69.7645 56.7697 69.9241 56.8174C70.2755 57.0082 69.8842 57.5408 69.7964 57.8111C69.6527 58.1451 69.485 58.5028 69.1576 58.6777C68.8383 58.8526 68.3272 58.7016 68.2953 58.3438C67.944 58.7175 67.2014 58.5585 67.0497 58.0656C66.6106 58.2723 66.0118 57.8827 66.0277 57.3977C65.7962 57.5965 65.4049 57.5249 65.2053 57.2944C64.7822 56.7856 65.1015 56.086 65.373 55.5771C65.8521 54.488 66.6585 52.9615 68.0717 53.2557" fill="#FDFDFF"/>
<path d="M69.6766 53.8996C70.2196 54.8775 70.1717 56.1575 69.5409 57.0797C69.6287 56.9366 69.7645 56.7697 69.9241 56.8174C70.2755 57.0082 69.8842 57.5408 69.7964 57.8111C69.6527 58.1451 69.485 58.5028 69.1576 58.6777C68.8383 58.8526 68.3272 58.7016 68.2953 58.3438C67.944 58.7175 67.2014 58.5585 67.0497 58.0656C66.6106 58.2723 66.0118 57.8827 66.0277 57.3977C65.7962 57.5965 65.4049 57.5249 65.2053 57.2944C64.7822 56.7856 65.1015 56.086 65.373 55.5771C65.8521 54.488 66.6585 52.9615 68.0717 53.2557" stroke="#042C89" stroke-width="0.5" stroke-linejoin="round"/>
<mask id="path-13-inside-2_154_33448" fill="white">
<path fill-rule="evenodd" clip-rule="evenodd" d="M60.2145 27.9121C61.3782 27.4238 62.2815 26.6961 62.6645 25.7333C62.4766 26.1269 61.8451 27.1758 60.2145 27.9121ZM62.6651 25.732C62.6652 25.7319 62.6652 25.7318 62.6653 25.7317C62.4098 25.6601 62.1543 25.5965 61.8988 25.5329C60.8848 28.6494 51.4072 28.6255 50.481 25.4375C50.2285 25.5004 49.9682 25.571 49.7 25.6494C49.6995 25.6478 49.6989 25.6462 49.6983 25.6445C47.655 26.2247 45.3483 27.0591 44.7007 27.9969L44.6995 27.9979L35.4216 36.6795C34.2649 37.7602 34.1106 39.502 34.9759 40.7566L41.4499 53.5887L44.7832 52.0888C45.3984 56.3005 45.9775 59.3375 45.9775 59.3375H66.2261C66.2261 59.3375 66.8298 56.2125 67.4628 51.9068L71.1998 53.5883L77.7147 40.6751C77.8385 40.4843 77.9393 40.283 78.0173 40.0752L78.0345 40.0412L78.0311 40.0377C78.4439 38.8941 78.1703 37.5596 77.2198 36.6717L67.9499 27.998C67.3773 27.4865 66.782 27.1648 66.1934 26.9996C65.2262 26.5035 63.9214 26.0754 62.6651 25.732ZM49.7196 25.7025C50.0424 26.5504 50.7474 27.2137 51.6718 27.6948C50.4636 26.9899 49.9499 26.1018 49.7196 25.7025ZM41.3104 40.2263C41.9682 39.7602 42.6792 39.2493 43.4075 38.7189C43.5295 41.5271 43.8143 44.5307 44.1518 47.3521L41.3104 40.2263ZM68.842 38.4249C68.7055 41.8348 68.3173 45.5561 67.8804 48.902L71.342 40.2262C70.5637 39.6749 69.7105 39.0604 68.842 38.4249Z"/>
</mask>
<path fill-rule="evenodd" clip-rule="evenodd" d="M60.2145 27.9121C61.3782 27.4238 62.2815 26.6961 62.6645 25.7333C62.4766 26.1269 61.8451 27.1758 60.2145 27.9121ZM62.6651 25.732C62.6652 25.7319 62.6652 25.7318 62.6653 25.7317C62.4098 25.6601 62.1543 25.5965 61.8988 25.5329C60.8848 28.6494 51.4072 28.6255 50.481 25.4375C50.2285 25.5004 49.9682 25.571 49.7 25.6494C49.6995 25.6478 49.6989 25.6462 49.6983 25.6445C47.655 26.2247 45.3483 27.0591 44.7007 27.9969L44.6995 27.9979L35.4216 36.6795C34.2649 37.7602 34.1106 39.502 34.9759 40.7566L41.4499 53.5887L44.7832 52.0888C45.3984 56.3005 45.9775 59.3375 45.9775 59.3375H66.2261C66.2261 59.3375 66.8298 56.2125 67.4628 51.9068L71.1998 53.5883L77.7147 40.6751C77.8385 40.4843 77.9393 40.283 78.0173 40.0752L78.0345 40.0412L78.0311 40.0377C78.4439 38.8941 78.1703 37.5596 77.2198 36.6717L67.9499 27.998C67.3773 27.4865 66.782 27.1648 66.1934 26.9996C65.2262 26.5035 63.9214 26.0754 62.6651 25.732ZM49.7196 25.7025C50.0424 26.5504 50.7474 27.2137 51.6718 27.6948C50.4636 26.9899 49.9499 26.1018 49.7196 25.7025ZM41.3104 40.2263C41.9682 39.7602 42.6792 39.2493 43.4075 38.7189C43.5295 41.5271 43.8143 44.5307 44.1518 47.3521L41.3104 40.2263ZM68.842 38.4249C68.7055 41.8348 68.3173 45.5561 67.8804 48.902L71.342 40.2262C70.5637 39.6749 69.7105 39.0604 68.842 38.4249Z" fill="#00A6E3"/>
<path d="M60.2145 27.9121L60.0087 27.4564L60.408 28.3731L60.2145 27.9121ZM62.6645 25.7333L63.1291 25.9181L62.2133 25.5179L62.6645 25.7333ZM62.6651 25.732L62.213 25.5186L61.9587 26.0573L62.5333 26.2143L62.6651 25.732ZM62.6653 25.7317L63.1174 25.9453L63.3703 25.4099L62.8001 25.2502L62.6653 25.7317ZM61.8988 25.5329L62.0196 25.0477L61.5675 24.9352L61.4233 25.3782L61.8988 25.5329ZM50.481 25.4375L50.9612 25.298L50.827 24.8361L50.3602 24.9523L50.481 25.4375ZM49.7 25.6494L49.2294 25.8183L49.3884 26.2614L49.8403 26.1293L49.7 25.6494ZM49.6983 25.6445L50.1692 25.4765L50.012 25.0357L49.5617 25.1635L49.6983 25.6445ZM44.7007 27.9969L45.0337 28.3698L45.0782 28.3301L45.1121 28.281L44.7007 27.9969ZM44.6995 27.9979L44.3663 27.6249L44.3579 27.6328L44.6995 27.9979ZM35.4216 36.6795L35.7629 37.0449L35.7632 37.0446L35.4216 36.6795ZM34.9759 40.7566L35.4223 40.5314L35.4069 40.5008L35.3875 40.4727L34.9759 40.7566ZM41.4499 53.5887L41.0035 53.8139L41.2189 54.2409L41.6551 54.0446L41.4499 53.5887ZM44.7832 52.0888L45.278 52.0165L45.1822 51.361L44.578 51.6328L44.7832 52.0888ZM45.9775 59.3375L45.4864 59.4311L45.5639 59.8375H45.9775V59.3375ZM66.2261 59.3375V59.8375H66.6387L66.717 59.4323L66.2261 59.3375ZM67.4628 51.9068L67.668 51.4508L67.0644 51.1792L66.9681 51.834L67.4628 51.9068ZM71.1998 53.5883L70.9947 54.0443L71.4308 54.2405L71.6462 53.8135L71.1998 53.5883ZM77.7147 40.6751L77.2952 40.403L77.2805 40.4257L77.2683 40.4499L77.7147 40.6751ZM78.0173 40.0752L77.5709 39.85L77.5587 39.8742L77.5492 39.8995L78.0173 40.0752ZM78.0345 40.0412L78.4809 40.2664L78.6424 39.9463L78.3911 39.6907L78.0345 40.0412ZM78.0311 40.0377L77.5608 39.868L77.4541 40.1639L77.6745 40.3882L78.0311 40.0377ZM77.2198 36.6717L76.8782 37.0368L76.8785 37.037L77.2198 36.6717ZM67.9499 27.998L68.2916 27.6328L68.283 27.6251L67.9499 27.998ZM66.1934 26.9996L65.9652 27.4445L66.0099 27.4674L66.0582 27.481L66.1934 26.9996ZM49.7196 25.7025L50.1528 25.4527L49.2523 25.8803L49.7196 25.7025ZM51.6718 27.6948L51.4409 28.1384L51.9237 27.263L51.6718 27.6948ZM43.4075 38.7189L43.907 38.6972L43.8665 37.766L43.1131 38.3147L43.4075 38.7189ZM41.3104 40.2263L41.0214 39.8183L40.7002 40.0459L40.846 40.4115L41.3104 40.2263ZM44.1518 47.3521L43.6874 47.5373L44.6483 47.2927L44.1518 47.3521ZM67.8804 48.902L67.3846 48.8372L68.3448 49.0873L67.8804 48.902ZM68.842 38.4249L69.1373 38.0214L68.3799 37.4673L68.3424 38.4049L68.842 38.4249ZM71.342 40.2262L71.8064 40.4115L71.9523 40.0458L71.631 39.8182L71.342 40.2262ZM60.408 28.3731C61.6366 27.8576 62.677 27.0546 63.1291 25.9181L62.1999 25.5485C61.886 26.3376 61.1198 26.99 60.021 27.451L60.408 28.3731ZM60.4203 28.3678C62.1794 27.5735 62.8878 26.4262 63.1157 25.9487L62.2133 25.5179C62.0655 25.8275 61.5109 26.7781 60.0087 27.4564L60.4203 28.3678ZM63.1173 25.9454L63.1174 25.9453L62.2132 25.5181L62.213 25.5186L63.1173 25.9454ZM62.8001 25.2502C62.5365 25.1763 62.2739 25.111 62.0196 25.0477L61.778 26.0181C62.0346 26.082 62.2831 26.1439 62.5304 26.2131L62.8001 25.2502ZM61.4233 25.3782C61.2415 25.937 60.6411 26.4437 59.644 26.812C58.6683 27.1724 57.422 27.3566 56.1598 27.3494C54.8974 27.3422 53.6577 27.1438 52.6942 26.7695C51.7109 26.3876 51.1273 25.87 50.9612 25.298L50.0009 25.577C50.2978 26.599 51.2462 27.2799 52.3322 27.7017C53.4379 28.1312 54.8047 28.3417 56.1541 28.3494C57.5038 28.3571 58.875 28.1621 59.9905 27.7501C61.0845 27.346 62.049 26.6871 62.3742 25.6876L61.4233 25.3782ZM50.3602 24.9523C50.1007 25.0169 49.8339 25.0893 49.5597 25.1695L49.8403 26.1293C50.1025 26.0527 50.3563 25.9838 50.6018 25.9227L50.3602 24.9523ZM49.2274 25.8125C49.2279 25.814 49.2283 25.8153 49.2287 25.8162C49.2291 25.8173 49.2292 25.8177 49.2294 25.8183L50.1707 25.4805C50.1694 25.4771 50.1697 25.4778 50.1692 25.4765L49.2274 25.8125ZM45.1121 28.281C45.2205 28.1241 45.4242 27.9385 45.7387 27.7353C46.0476 27.5357 46.4343 27.3376 46.876 27.1449C47.7595 26.7594 48.8228 26.4129 49.8349 26.1255L49.5617 25.1635C48.5304 25.4564 47.4187 25.8171 46.4762 26.2283C46.0049 26.4339 45.5657 26.6565 45.1961 26.8953C44.8322 27.1304 44.5047 27.4008 44.2893 27.7127L45.1121 28.281ZM45.0325 28.3708L45.0337 28.3698L44.3676 27.6239L44.3664 27.625L45.0325 28.3708ZM35.7632 37.0446L45.0411 28.363L44.3579 27.6328L35.0799 36.3144L35.7632 37.0446ZM35.3875 40.4727C34.6603 39.4184 34.7905 37.9534 35.7629 37.0449L35.0802 36.3142C33.7393 37.567 33.5609 39.5856 34.5643 41.0405L35.3875 40.4727ZM41.8963 53.3635L35.4223 40.5314L34.5295 40.9818L41.0035 53.8139L41.8963 53.3635ZM44.578 51.6328L41.2447 53.1327L41.6551 54.0446L44.9884 52.5448L44.578 51.6328ZM45.9775 59.3375C46.4687 59.2438 46.4687 59.2438 46.4687 59.2438C46.4687 59.2438 46.4687 59.2438 46.4687 59.2437C46.4687 59.2436 46.4686 59.2435 46.4686 59.2434C46.4685 59.243 46.4684 59.2425 46.4683 59.2418C46.468 59.2404 46.4676 59.2383 46.4671 59.2354C46.466 59.2297 46.4644 59.2211 46.4622 59.2096C46.4579 59.1866 46.4514 59.1523 46.443 59.107C46.426 59.0164 46.4011 58.882 46.3693 58.7075C46.3057 58.3584 46.2143 57.8487 46.1038 57.2076C45.8827 55.9252 45.5848 54.1173 45.278 52.0165L44.2885 52.1611C44.5968 54.272 44.8961 56.0885 45.1183 57.3775C45.2295 58.0221 45.3214 58.5349 45.3855 58.8868C45.4176 59.0628 45.4428 59.1986 45.4599 59.2905C45.4685 59.3365 45.4751 59.3715 45.4796 59.3951C45.4818 59.4069 45.4835 59.4158 45.4846 59.4218C45.4852 59.4249 45.4856 59.4271 45.4859 59.4287C45.4861 59.4295 45.4862 59.4301 45.4863 59.4305C45.4863 59.4307 45.4863 59.4308 45.4864 59.4309C45.4864 59.431 45.4864 59.431 45.4864 59.4311C45.4864 59.4311 45.4864 59.4311 45.9775 59.3375ZM66.2261 58.8375H45.9775V59.8375H66.2261V58.8375ZM66.9681 51.834C66.6524 53.9816 66.3439 55.8348 66.1145 57.1509C65.9998 57.8088 65.9048 58.3324 65.8386 58.6912C65.8055 58.8705 65.7796 59.0087 65.762 59.1019C65.7532 59.1485 65.7464 59.1838 65.7419 59.2074C65.7396 59.2193 65.7379 59.2281 65.7368 59.234C65.7362 59.237 65.7358 59.2391 65.7356 59.2406C65.7354 59.2413 65.7353 59.2418 65.7352 59.2422C65.7352 59.2423 65.7352 59.2425 65.7352 59.2425C65.7352 59.2426 65.7352 59.2426 65.7352 59.2426C65.7352 59.2426 65.7352 59.2426 66.2261 59.3375C66.717 59.4323 66.717 59.4323 66.717 59.4322C66.717 59.4322 66.717 59.4322 66.717 59.4321C66.7171 59.432 66.7171 59.4318 66.7171 59.4316C66.7172 59.4312 66.7173 59.4306 66.7175 59.4298C66.7178 59.4282 66.7183 59.4258 66.7188 59.4227C66.72 59.4165 66.7218 59.4073 66.7241 59.3952C66.7288 59.3709 66.7356 59.3349 66.7446 59.2877C66.7624 59.1931 66.7886 59.0535 66.822 58.8727C66.8888 58.5109 66.9843 57.9841 67.0996 57.3226C67.3303 55.9998 67.6402 54.1376 67.9575 51.9795L66.9681 51.834ZM71.405 53.1323L67.668 51.4508L67.2577 52.3627L70.9947 54.0443L71.405 53.1323ZM77.2683 40.4499L70.7534 53.3631L71.6462 53.8135L78.1611 40.9003L77.2683 40.4499ZM77.5492 39.8995C77.4837 40.074 77.3991 40.2429 77.2952 40.403L78.1342 40.9472C78.2778 40.7257 78.3949 40.4921 78.4854 40.251L77.5492 39.8995ZM77.5881 39.816L77.5709 39.85L78.4638 40.3004L78.4809 40.2664L77.5881 39.816ZM77.6745 40.3882L77.6779 40.3916L78.3911 39.6907L78.3878 39.6873L77.6745 40.3882ZM76.8785 37.037C77.6772 37.7832 77.9083 38.9051 77.5608 39.868L78.5014 40.2075C78.9795 38.883 78.6634 37.336 77.5612 36.3063L76.8785 37.037ZM67.6083 28.3631L76.8782 37.0368L77.5614 36.3066L68.2915 27.6329L67.6083 28.3631ZM66.0582 27.481C66.5669 27.6238 67.0958 27.9054 67.6168 28.3709L68.283 27.6251C67.6588 27.0675 66.997 26.7058 66.3285 26.5182L66.0582 27.481ZM62.5333 26.2143C63.7809 26.5553 65.0453 26.9726 65.9652 27.4445L66.4216 26.5547C65.4072 26.0344 64.0619 25.5954 62.7969 25.2497L62.5333 26.2143ZM49.2523 25.8803C49.6324 26.8788 50.4477 27.6213 51.4409 28.1384L51.9026 27.2513C51.0472 26.8061 50.4524 26.2221 50.1869 25.5246L49.2523 25.8803ZM49.2865 25.9522C49.5309 26.376 50.0981 27.3556 51.4198 28.1267L51.9237 27.263C50.8291 26.6243 50.369 25.8276 50.1528 25.4527L49.2865 25.9522ZM43.1131 38.3147C42.3864 38.844 41.6772 39.3536 41.0214 39.8183L41.5995 40.6343C42.2592 40.1669 42.9719 39.6547 43.7018 39.1231L43.1131 38.3147ZM44.6483 47.2927C44.3117 44.4788 44.0283 41.4886 43.907 38.6972L42.9079 38.7406C43.0307 41.5657 43.317 44.5826 43.6554 47.4115L44.6483 47.2927ZM40.846 40.4115L43.6874 47.5373L44.6163 47.1669L41.7748 40.0411L40.846 40.4115ZM68.3762 48.9667C68.8141 45.6133 69.2043 41.8756 69.3416 38.4449L68.3424 38.4049C68.2067 41.794 67.8205 45.499 67.3846 48.8372L68.3762 48.9667ZM70.8776 40.0409L67.416 48.7167L68.3448 49.0873L71.8064 40.4115L70.8776 40.0409ZM68.5467 38.8284C69.4171 39.4653 70.2724 40.0813 71.053 40.6342L71.631 39.8182C70.855 39.2685 70.0038 38.6555 69.1373 38.0214L68.5467 38.8284Z" fill="#042C89" mask="url(#path-13-inside-2_154_33448)"/>
<path d="M48.502 14.3271C48.676 14.2881 48.9041 14.3198 49.1504 14.5078L49.1387 15.8145C48.6507 15.6771 48.362 15.4831 48.207 15.2959C48.0286 15.0803 48.0137 14.8622 48.0771 14.6924C48.1435 14.5151 48.3012 14.3722 48.502 14.3271Z" fill="#FDFDFF" stroke="#042C89" stroke-width="0.5"/>
<path d="M64.0947 14.1543C64.2716 14.1976 64.4067 14.3489 64.4443 14.5625C64.4814 14.7727 64.4187 15.037 64.1875 15.2617C63.9908 15.4529 63.66 15.6234 63.1436 15.6875L63.2998 14.46C63.6541 14.1543 63.9274 14.1134 64.0947 14.1543Z" fill="#FDFDFF" stroke="#042C89" stroke-width="0.5"/>
<mask id="path-17-inside-3_154_33448" fill="white">
<path fill-rule="evenodd" clip-rule="evenodd" d="M63.0232 16.7113C62.8983 18.6763 62.2759 21.0456 60.3643 21.9365C59.8895 22.1572 59.319 22.3499 58.6883 22.497V24.7771L58.8942 24.8318C59.7031 25.0469 60.6516 25.2991 61.8972 25.528C61.6098 26.1163 60.3483 28.0005 56.0047 27.8733C51.6931 27.7461 50.6951 25.9891 50.4795 25.4326C51.4353 25.1821 52.1554 25.0282 52.6337 24.9259L52.634 24.9259C52.9034 24.8683 53.0961 24.8271 53.2109 24.7943V22.4199C52.1559 22.1115 51.1712 21.599 50.3758 20.8235C49.2324 19.7096 48.9001 18.251 48.859 16.6823C48.2441 16.5618 47.6346 16.2125 47.3421 15.7823C46.6679 14.1009 47.7191 12.9691 49.0204 13.3402C49.0847 12.4242 49.1267 11.5254 49.0504 10.687C49.05 10.6548 49.0497 10.6226 49.0493 10.5904C49.0413 9.87463 49.0333 9.15254 49.1861 8.445C50.0724 3.99289 56.1805 2.78446 59.9811 4.81176C63.1713 6.71768 63.1602 10.257 63.0778 13.5418C64.5795 12.704 65.9909 13.8981 65.2353 15.7823C64.8302 16.3781 63.8168 16.8189 63.0232 16.7113Z"/>
</mask>
<path fill-rule="evenodd" clip-rule="evenodd" d="M63.0232 16.7113C62.8983 18.6763 62.2759 21.0456 60.3643 21.9365C59.8895 22.1572 59.319 22.3499 58.6883 22.497V24.7771L58.8942 24.8318C59.7031 25.0469 60.6516 25.2991 61.8972 25.528C61.6098 26.1163 60.3483 28.0005 56.0047 27.8733C51.6931 27.7461 50.6951 25.9891 50.4795 25.4326C51.4353 25.1821 52.1554 25.0282 52.6337 24.9259L52.634 24.9259C52.9034 24.8683 53.0961 24.8271 53.2109 24.7943V22.4199C52.1559 22.1115 51.1712 21.599 50.3758 20.8235C49.2324 19.7096 48.9001 18.251 48.859 16.6823C48.2441 16.5618 47.6346 16.2125 47.3421 15.7823C46.6679 14.1009 47.7191 12.9691 49.0204 13.3402C49.0847 12.4242 49.1267 11.5254 49.0504 10.687C49.05 10.6548 49.0497 10.6226 49.0493 10.5904C49.0413 9.87463 49.0333 9.15254 49.1861 8.445C50.0724 3.99289 56.1805 2.78446 59.9811 4.81176C63.1713 6.71768 63.1602 10.257 63.0778 13.5418C64.5795 12.704 65.9909 13.8981 65.2353 15.7823C64.8302 16.3781 63.8168 16.8189 63.0232 16.7113Z" fill="#FDFDFF"/>
<path d="M60.3643 21.9365L60.5751 22.3899L60.5756 22.3897L60.3643 21.9365ZM63.0232 16.7113L63.0904 16.2158L62.5583 16.1436L62.5242 16.6796L63.0232 16.7113ZM58.6883 22.497L58.5747 22.01L58.1883 22.1001V22.497H58.6883ZM58.6883 24.7771H58.1883V25.1616L58.5599 25.2603L58.6883 24.7771ZM58.8942 24.8318L59.0227 24.3486L59.0226 24.3485L58.8942 24.8318ZM61.8972 25.528L62.3465 25.7475L62.6358 25.1553L61.9876 25.0362L61.8972 25.528ZM56.0047 27.8733L55.99 28.3731L55.9901 28.3731L56.0047 27.8733ZM50.4795 25.4326L50.3528 24.9489L49.8109 25.0909L50.0133 25.6132L50.4795 25.4326ZM52.6337 24.9259L52.7383 25.4149L52.7416 25.4141L52.6337 24.9259ZM52.634 24.9259L52.5294 24.4369L52.5261 24.4376L52.634 24.9259ZM53.2109 24.7943L53.3482 25.275L53.7109 25.1715V24.7943H53.2109ZM53.2109 22.4199H53.7109V22.0451L53.3512 21.9399L53.2109 22.4199ZM50.3758 20.8235L50.7249 20.4655L50.7247 20.4653L50.3758 20.8235ZM48.859 16.6823L49.3589 16.6692L49.3484 16.2687L48.9552 16.1917L48.859 16.6823ZM47.3421 15.7823L46.878 15.9684L46.8982 16.0187L46.9286 16.0635L47.3421 15.7823ZM49.0204 13.3402L48.8833 13.821L49.476 13.99L49.5192 13.3752L49.0204 13.3402ZM49.0504 10.687L48.5504 10.6923L48.5506 10.7123L48.5524 10.7323L49.0504 10.687ZM49.0493 10.5904L49.5493 10.5848V10.5848L49.0493 10.5904ZM49.1861 8.445L49.6749 8.55057L49.6765 8.54262L49.1861 8.445ZM59.9811 4.81176L60.2375 4.38253L60.2271 4.37631L60.2164 4.3706L59.9811 4.81176ZM63.0778 13.5418L62.5779 13.5292L62.5559 14.4054L63.3214 13.9784L63.0778 13.5418ZM65.2353 15.7823L65.6488 16.0635L65.6793 16.0187L65.6994 15.9684L65.2353 15.7823ZM60.5756 22.3897C61.6753 21.8771 62.3807 20.9481 62.8228 19.925C63.2636 18.9048 63.4576 17.7593 63.5222 16.743L62.5242 16.6796C62.4639 17.6283 62.2843 18.6499 61.9048 19.5284C61.5265 20.4038 60.9649 21.1049 60.1531 21.4833L60.5756 22.3897ZM58.8018 22.9839C59.4601 22.8304 60.0641 22.6275 60.5751 22.3899L60.1535 21.4831C59.7149 21.687 59.1778 21.8694 58.5747 22.01L58.8018 22.9839ZM58.1883 22.497V24.7771H59.1883V22.497H58.1883ZM58.5599 25.2603L58.7659 25.315L59.0226 24.3485L58.8166 24.2938L58.5599 25.2603ZM58.7657 25.315C59.5759 25.5304 60.5406 25.7871 61.8069 26.0198L61.9876 25.0362C60.7627 24.8111 59.8303 24.5633 59.0227 24.3486L58.7657 25.315ZM61.448 25.3085C61.3396 25.5304 61.0139 26.0677 60.2176 26.5386C59.4202 27.01 58.1165 27.4349 56.0194 27.3735L55.9901 28.3731C58.2365 28.4389 59.7354 27.9853 60.7265 27.3994C61.7186 26.8128 62.1674 26.1139 62.3465 25.7475L61.448 25.3085ZM56.0195 27.3735C53.9288 27.3118 52.6965 26.8567 51.9767 26.3935C51.2624 25.9339 51.0209 25.4461 50.9457 25.252L50.0133 25.6132C50.1537 25.9756 50.519 26.6446 51.4355 27.2344C52.3465 27.8206 53.769 28.3076 55.99 28.3731L56.0195 27.3735ZM50.6062 25.9163C51.5507 25.6688 52.2617 25.5168 52.7383 25.4149L52.5292 24.437C52.0492 24.5396 51.32 24.6955 50.3528 24.9489L50.6062 25.9163ZM52.7416 25.4141L52.7419 25.4141L52.5261 24.4376L52.5258 24.4377L52.7416 25.4141ZM52.7385 25.4148C52.9982 25.3593 53.2127 25.3138 53.3482 25.275L53.0736 24.3135C52.9794 24.3404 52.8085 24.3772 52.5294 24.4369L52.7385 25.4148ZM53.7109 24.7943V22.4199H52.7109V24.7943H53.7109ZM50.0267 21.1814C50.892 22.0251 51.9538 22.5733 53.0707 22.8998L53.3512 21.9399C52.358 21.6496 51.4504 21.1729 50.7249 20.4655L50.0267 21.1814ZM48.3592 16.6954C48.4017 18.3196 48.7476 19.9353 50.0269 21.1816L50.7247 20.4653C49.7172 19.4838 49.3985 18.1824 49.3589 16.6692L48.3592 16.6954ZM48.9552 16.1917C48.4301 16.0887 47.9541 15.7932 47.7555 15.5012L46.9286 16.0635C47.315 16.6317 48.0581 17.0349 48.7629 17.173L48.9552 16.1917ZM47.8062 15.5962C47.5153 14.8709 47.6317 14.3649 47.8378 14.095C48.0386 13.8321 48.4044 13.6844 48.8833 13.821L49.1575 12.8593C48.3352 12.6248 47.5246 12.8575 47.0431 13.4881C46.5668 14.1117 46.4946 15.0123 46.878 15.9684L47.8062 15.5962ZM48.5524 10.7323C48.6249 11.5275 48.5858 12.3917 48.5216 13.3051L49.5192 13.3752C49.5837 12.4568 49.6286 11.5233 49.5483 10.6416L48.5524 10.7323ZM48.5493 10.596C48.5497 10.6282 48.5501 10.6603 48.5504 10.6923L49.5503 10.6816C49.55 10.6493 49.5496 10.617 49.5493 10.5848L48.5493 10.596ZM48.6974 8.33945C48.5307 9.11102 48.5415 9.88968 48.5493 10.596L49.5493 10.5848C49.5412 9.85959 49.5359 9.19406 49.6748 8.55056L48.6974 8.33945ZM60.2164 4.3706C58.1925 3.29103 55.5804 3.07993 53.353 3.71793C51.1196 4.35769 49.1861 5.88405 48.6957 8.34738L49.6765 8.54262C50.0724 6.55385 51.6361 5.24994 53.6284 4.67927C55.6268 4.10686 57.969 4.30519 59.7458 5.25292L60.2164 4.3706ZM63.5776 13.5543C63.6186 11.9212 63.6465 10.1478 63.2416 8.53774C62.8306 6.90356 61.9692 5.41712 60.2375 4.38253L59.7246 5.241C61.1831 6.11232 61.9113 7.34849 62.2718 8.78164C62.6383 10.2389 62.6194 11.8776 62.5779 13.5292L63.5776 13.5543ZM65.6994 15.9684C66.1289 14.8974 65.9843 13.8916 65.3498 13.281C64.712 12.6672 63.7338 12.6033 62.8342 13.1051L63.3214 13.9784C63.9235 13.6425 64.4019 13.7567 64.6563 14.0015C64.914 14.2496 65.0973 14.783 64.7712 15.5962L65.6994 15.9684ZM62.956 17.2067C63.4624 17.2754 64.0058 17.1681 64.4704 16.9708C64.932 16.7748 65.3765 16.4639 65.6488 16.0635L64.8219 15.5012C64.689 15.6965 64.4242 15.904 64.0795 16.0504C63.7377 16.1955 63.3776 16.2548 63.0904 16.2158L62.956 17.2067Z" fill="#042C89" mask="url(#path-17-inside-3_154_33448)"/>
<path d="M56.8506 0.270508C57.5577 0.229117 58.2037 0.283724 58.6699 0.467773C59.1228 0.646599 59.3788 0.932158 59.4053 1.36914L59.4258 1.70508L59.7412 1.58887C60.4158 1.33937 61.2788 1.16052 62.084 1.20117C62.8853 1.24172 63.5915 1.49628 64.0293 2.06641C64.1437 2.2671 64.1592 2.53331 64.0762 2.7627C63.9927 2.99346 63.826 3.15024 63.6113 3.18164L63.5967 3.67383C64.3381 3.82713 64.8494 4.44627 64.9424 5.02539C64.9879 5.30933 64.9309 5.56637 64.7734 5.75781C64.6164 5.94875 64.3295 6.11116 63.8447 6.14551L63.3379 6.18066L63.6758 6.56055C64.5291 7.51865 64.5735 9.04493 64.25 10.708C64.0334 11.8212 63.66 12.952 63.3037 13.9414C63.2189 12.5426 62.8842 11.5373 62.5146 10.5957C62.0351 9.37382 61.518 8.29377 61.3975 6.56738L61.377 6.27441L61.0908 6.3418C57.699 7.14106 53.907 6.80615 50.4053 6.29785L50.1338 6.25879L50.1191 6.53223C50.0249 8.29225 49.7041 9.38007 49.3848 10.627C49.1514 11.5382 48.9241 12.5236 48.793 13.8916C48.7453 13.6446 48.6993 13.3987 48.6543 13.1514C48.5466 12.5603 48.4382 11.9618 48.2861 11.335L48.1182 10.6982L48.1172 10.6934L47.9219 10.0215C47.739 9.33794 47.6007 8.62548 47.5957 7.93945C47.5891 7.03044 47.8172 6.18623 48.4727 5.51172L48.6152 5.36426L48.499 5.19531C47.909 4.34202 48.0968 3.10647 48.8037 2.26172L48.8125 2.25195L48.8193 2.24121C48.9393 2.0647 49.2269 1.81595 49.6309 1.55957C50.0272 1.30804 50.5086 1.0657 50.9883 0.895508C51.4719 0.723903 51.9328 0.632746 52.2949 0.660156C52.6489 0.687044 52.8691 0.820316 52.9727 1.06836L53.0889 1.34668L53.3408 1.18164C53.6129 1.00282 54.1299 0.794 54.7734 0.619141C55.4107 0.445988 56.1489 0.31161 56.8506 0.270508Z" fill="#042C89" stroke="#042C89" stroke-width="0.5"/>
<path d="M50.9508 4.29753C51.4618 6.31688 53.0427 3.66152 53.9769 4.94945C54.1206 5.1482 54.3602 5.1323 54.5917 5.04485C55.2305 4.66324 55.9411 3.64562 56.7635 4.24983C56.995 4.43269 57.0429 4.67119 57.1707 4.94945C57.7535 5.77627 58.7117 4.67914 59.4303 4.60759C59.8215 4.53604 60.4603 4.71094 60.4603 5.15616C60.1888 4.8779 59.7417 4.75069 59.3345 4.9415C58.7516 5.21181 58.1448 5.80807 57.4262 5.64907C56.9232 5.60932 56.7076 5.02895 56.5239 4.67914C56.3243 4.44859 56.0289 4.51219 55.7095 4.73479C55.0229 5.35491 54.2244 5.98298 53.5138 4.99715C52.8112 4.67914 52.0606 5.69677 51.35 5.22771C51.0227 5.0369 50.7751 4.61554 50.9508 4.29753Z" fill="#969DA7"/>
<path d="M68.8361 73.92H63.8298C63.5584 73.92 63.3428 73.6974 63.3428 73.435V58.7271C63.3428 58.4568 63.5663 58.2422 63.8298 58.2422H68.8361C69.1075 58.2422 69.3231 58.4648 69.3231 58.7271V73.435C69.3311 73.7053 69.1075 73.92 68.8361 73.92Z" fill="#042C89"/>
<path d="M64.3488 60.9182C57.586 50.583 46.9028 26.8357 46.791 26.5972L48.2522 25.9453C48.356 26.1838 58.9912 49.8118 65.6902 60.0517L64.3488 60.9182Z" fill="#042C89"/>
<path d="M13.1836 91.7725C13.1831 91.7916 13.1832 91.8125 13.1826 91.834C13.177 92.0346 13.1644 92.337 13.1377 92.7412C13.0864 93.5182 12.9798 94.6717 12.7676 96.2021C11.0879 96.3644 9.72508 96.203 9.10254 96.1016L9.07324 91.5898L13.1836 91.7725Z" fill="#FDFDFF" stroke="#042C89" stroke-width="0.5"/>
<path d="M9.10547 96.6074C9.77278 96.7109 11.0867 96.8533 12.6953 96.7109C12.5133 97.9564 12.2606 99.4348 11.9131 101.141L9.13477 101.223L9.10547 96.6074Z" fill="#00A6E3" stroke="#042C89" stroke-width="0.5"/>
<path d="M12.1995 101.188L11.8242 101.195C12.1196 101.752 12.7584 103.223 12.6626 105.52H13.1816C13.1816 105.52 13.3173 102.952 12.1995 101.188Z" fill="#042C89"/>
<path d="M9.97282 99.9762C9.17437 99.8013 8.55957 99.9762 8.55957 99.9762L8.87096 101.248L9.82111 101.232L9.97282 99.9762Z" fill="#2A77C2"/>
<path d="M9.8205 101.234L8.87036 101.25C8.70268 101.393 6.93812 101.99 5.54883 102.721L5.98797 103.238L9.8205 101.234Z" fill="#2A77C2"/>
<path d="M11.8246 101.195L10.5151 101.219L5.73247 103.827L5.09371 102.984C3.82418 103.604 3.17744 105.075 3.4569 105.504L12.6709 105.52C12.7588 103.223 12.12 101.752 11.8246 101.195Z" fill="#2A77C2"/>
<path d="M10.5075 101.219L9.82088 101.235L5.98835 103.246L5.54921 102.729C5.38952 102.817 5.22983 102.904 5.07812 102.992L5.71688 103.834L10.5075 101.219Z" fill="#042C89"/>
<path d="M3.19336 105.415H13.3975V105.996H3.2253C3.2253 105.996 3.19336 105.383 3.19336 105.415Z" fill="#C9CDD2"/>
<path d="M6.67498 103.134C6.65901 103.205 6.03622 102.339 6.02025 102.339C5.9963 102.307 5.9963 102.251 6.03622 102.227C6.06816 102.203 6.12405 102.203 6.148 102.243L6.73885 103.014C6.77878 103.054 6.73885 103.134 6.67498 103.134Z" fill="#DFE9F3"/>
<path d="M7.34547 102.692C7.29756 102.732 6.81051 102.016 6.77858 101.992C6.75462 101.961 6.76261 101.905 6.79454 101.881C6.82648 101.857 6.88237 101.865 6.90633 101.897L7.40935 102.565C7.44927 102.62 7.40935 102.7 7.34547 102.692Z" fill="#DFE9F3"/>
<path d="M8.08005 102.337C8.04012 102.377 7.56106 101.765 7.52912 101.741C7.49718 101.709 7.50517 101.661 7.5371 101.63C7.56904 101.598 7.61695 101.606 7.64889 101.638L8.14392 102.202C8.18384 102.25 8.14392 102.337 8.08005 102.337Z" fill="#DFE9F3"/>
<path d="M8.70244 102.051C8.66252 102.091 8.25532 101.526 8.22338 101.51C8.19943 101.479 8.19942 101.423 8.23935 101.399C8.27128 101.375 8.32718 101.375 8.35113 101.415L8.76632 101.932C8.80624 101.972 8.76632 102.051 8.70244 102.051Z" fill="#DFE9F3"/>
<path d="M9.93262 101.356C9.50944 101.34 8.8148 101.308 8.75092 101.316C8.65511 101.332 8.62317 101.181 8.71898 101.157C8.73495 101.157 8.76689 101.149 9.93262 101.196C10.0444 101.196 10.0364 101.356 9.93262 101.356Z" fill="#DFE9F3"/>
<path d="M11.7607 103.863C11.7287 105.493 9.29348 105.493 9.26953 103.863C9.30147 102.233 11.7367 102.233 11.7607 103.863Z" fill="#042C89"/>
<path d="M21.4766 96.1016C20.8573 96.2029 19.4895 96.3645 17.8105 96.2021C17.5983 94.6718 17.4937 93.5182 17.4424 92.7412C17.4157 92.337 17.4031 92.0346 17.3975 91.834C17.3969 91.8125 17.396 91.7916 17.3955 91.7725L21.5059 91.5898L21.4766 96.1016Z" fill="#FDFDFF" stroke="#042C89" stroke-width="0.5"/>
<path d="M21.4453 101.223L18.666 101.141C18.3186 99.4349 18.0658 97.9564 17.8838 96.7109C19.492 96.8534 20.8058 96.7109 21.4736 96.6074L21.4453 101.223Z" fill="#00A6E3" stroke="#042C89" stroke-width="0.5"/>
<path d="M18.3888 101.188L18.764 101.195C18.4686 101.752 17.8299 103.223 17.9257 105.52H17.4067C17.3987 105.52 17.271 102.952 18.3888 101.188Z" fill="#042C89"/>
<path d="M20.6084 99.9762C21.4068 99.8013 22.0216 99.9762 22.0216 99.9762L21.7103 101.248L20.7601 101.232L20.6084 99.9762Z" fill="#2A77C2"/>
<path d="M20.7598 101.234L21.7099 101.25C21.8776 101.393 23.6421 101.99 25.0314 102.721L24.5923 103.238L20.7598 101.234Z" fill="#2A77C2"/>
<path d="M18.7556 101.195L20.0651 101.219L24.8478 103.827L25.4865 102.984C26.756 103.604 27.4028 105.075 27.1233 105.504L17.9013 105.52C17.8215 103.223 18.4682 101.752 18.7556 101.195Z" fill="#2A77C2"/>
<path d="M20.0732 101.219L20.7599 101.235L24.5924 103.246L25.0316 102.729C25.1913 102.817 25.351 102.904 25.5027 102.992L24.8639 103.834L20.0732 101.219Z" fill="#042C89"/>
<path d="M27.3945 105.415H17.1904V105.996H27.3626C27.3626 105.996 27.3945 105.383 27.3945 105.415Z" fill="#C9CDD2"/>
<path d="M23.9051 103.131C23.8412 103.131 23.8013 103.052 23.8412 103.004L24.432 102.233C24.456 102.201 24.5119 102.193 24.5438 102.217C24.5757 102.241 24.5837 102.296 24.5598 102.328C24.5438 102.336 23.929 103.195 23.9051 103.131Z" fill="#DFE9F3"/>
<path d="M23.2429 102.692C23.1791 102.692 23.1391 102.612 23.1791 102.565L23.6821 101.897C23.706 101.865 23.7619 101.857 23.7939 101.881C23.8258 101.905 23.8338 101.961 23.8098 101.992C23.7699 102.016 23.2909 102.74 23.2429 102.692Z" fill="#DFE9F3"/>
<path d="M22.5008 102.337C22.4369 102.337 22.397 102.258 22.4369 102.202L22.9319 101.638C22.9639 101.606 23.0118 101.598 23.0437 101.63C23.0756 101.661 23.0836 101.709 23.0517 101.741C23.0197 101.765 22.5487 102.369 22.5008 102.337Z" fill="#DFE9F3"/>
<path d="M21.8855 102.057C21.8216 102.057 21.7817 101.977 21.8216 101.929L22.2368 101.413C22.2608 101.381 22.3167 101.373 22.3486 101.397C22.3806 101.421 22.3885 101.476 22.3646 101.508C22.3327 101.532 21.9334 102.096 21.8855 102.057Z" fill="#DFE9F3"/>
<path d="M20.6472 101.356C20.5434 101.356 20.5434 101.196 20.6472 101.196C21.8209 101.149 21.8528 101.157 21.8608 101.157C21.9566 101.181 21.9247 101.332 21.8289 101.316C21.765 101.308 21.0704 101.332 20.6472 101.356Z" fill="#DFE9F3"/>
<path d="M18.8193 103.863C18.8513 105.493 21.2865 105.493 21.3105 103.863C21.2865 102.233 18.8513 102.233 18.8193 103.863Z" fill="#042C89"/>
<path d="M23.2529 79.8428L23.1445 92.7881C21.3374 93.4068 19.689 93.38 18.4375 93.1904C17.7931 93.0928 17.2545 92.9525 16.8535 92.8359C16.6493 92.7766 16.49 92.7256 16.3555 92.6855L16.1816 92.6377C16.1752 92.6107 16.1655 92.5769 16.1582 92.5342C16.129 92.3646 16.1038 92.114 16.083 91.8027C16.0415 91.1828 16.0188 90.3522 16.0068 89.5176C15.9949 88.684 15.9931 87.8496 15.9951 87.2236C15.9961 86.9107 15.9985 86.6493 16 86.4668C16.0007 86.376 16.0015 86.3046 16.002 86.2559C16.0022 86.2318 16.0018 86.2128 16.002 86.2002C16.002 86.1939 16.0029 86.1887 16.0029 86.1855V86.1807L15.5059 86.1387L14.4805 92.6064C13.9099 92.8783 13.181 93.0269 12.3838 93.084C11.5385 93.1445 10.6371 93.1041 9.80762 93.0225C8.97902 92.9409 8.22741 92.818 7.68262 92.7158C7.41038 92.6648 7.18981 92.619 7.03809 92.5859C7.02905 92.584 7.02027 92.582 7.01172 92.5801C7.01772 92.5014 7.02523 92.4023 7.03418 92.2852C7.05899 91.9603 7.09485 91.4956 7.1377 90.9375C7.2234 89.8212 7.33783 88.3299 7.45508 86.8301C7.57234 85.3301 7.69247 83.8215 7.78711 82.6709C7.83441 82.0959 7.8748 81.6107 7.90625 81.2607C7.91989 81.109 7.93272 80.983 7.94238 80.8867H7.97852V79.7744L23.2529 79.8428Z" fill="#00A6E3" stroke="#042C89" stroke-width="0.5"/>
<path fill-rule="evenodd" clip-rule="evenodd" d="M6.2271 78.6292C5.9576 77.8943 5.23779 75.9373 5.18066 75.8421L6.84621 75.3047L7.95907 78.1657C8.56575 78.3848 8.92564 79.1374 9.1576 79.7276C9.32273 80.0742 9.50501 80.5358 9.2022 80.8491C9.05834 80.9936 8.79416 81.0258 8.64293 80.8838C8.63849 81.202 8.21799 81.4283 7.93203 81.2772C7.8106 81.5871 7.30328 81.6596 7.08167 81.4003C7.04827 81.635 6.70459 81.7034 6.49225 81.5804C6.27991 81.4573 6.18186 81.2209 6.09763 80.9957C6.08556 80.9503 6.0625 80.8952 6.03777 80.8361C5.95994 80.6501 5.86568 80.4248 6.04669 80.3425C6.14086 80.3221 6.21618 80.3986 6.26939 80.4825C5.94755 79.9132 5.93204 79.1986 6.2271 78.6292Z" fill="#FDFDFF"/>
<path d="M5.18066 75.8421L5.10389 75.6042L4.80437 75.7009L4.96629 75.9707L5.18066 75.8421ZM6.2271 78.6292L6.44907 78.7442L6.49972 78.6465L6.46182 78.5431L6.2271 78.6292ZM6.84621 75.3047L7.0792 75.2141L6.99375 74.9944L6.76944 75.0668L6.84621 75.3047ZM7.95907 78.1657L7.72608 78.2563L7.76727 78.3622L7.87415 78.4008L7.95907 78.1657ZM9.1576 79.7276L8.92492 79.8191L8.92814 79.8273L8.93192 79.8352L9.1576 79.7276ZM9.2022 80.8491L9.37935 81.0256L9.38196 81.0229L9.2022 80.8491ZM8.64293 80.8838L8.81409 80.7016L8.40087 80.3135L8.39296 80.8803L8.64293 80.8838ZM7.93203 81.2772L8.0488 81.0562L7.80136 80.9255L7.69926 81.186L7.93203 81.2772ZM7.08167 81.4003L7.27174 81.2379L6.91214 80.817L6.83416 81.3651L7.08167 81.4003ZM6.49225 81.5804L6.3669 81.7967V81.7967L6.49225 81.5804ZM6.09763 80.9957L5.85604 81.06L5.85918 81.0718L5.86347 81.0833L6.09763 80.9957ZM6.03777 80.8361L6.2684 80.7396L6.2684 80.7396L6.03777 80.8361ZM6.04669 80.3425L5.9936 80.0982L5.96753 80.1039L5.94324 80.1149L6.04669 80.3425ZM6.26939 80.4825L6.05825 80.6164L6.48703 80.3595L6.26939 80.4825ZM4.96629 75.9707C4.95955 75.9595 4.95913 75.9563 4.96914 75.9797C4.97646 75.9967 4.9864 76.0208 4.99892 76.0521C5.02387 76.1143 5.05717 76.2 5.09688 76.3038C5.1762 76.511 5.27963 76.7867 5.38995 77.083C5.61051 77.6754 5.85767 78.3479 5.99239 78.7153L6.46182 78.5431C6.32703 78.1756 6.07953 77.5022 5.85853 76.9086C5.74806 76.6119 5.644 76.3345 5.56386 76.1251C5.52384 76.0205 5.48943 75.9319 5.46303 75.8661C5.44988 75.8333 5.43823 75.8049 5.42859 75.7824C5.42166 75.7663 5.40892 75.7366 5.39504 75.7135L4.96629 75.9707ZM6.76944 75.0668L5.10389 75.6042L5.25744 76.08L6.92298 75.5426L6.76944 75.0668ZM8.19206 78.0751L7.0792 75.2141L6.61321 75.3953L7.72608 78.2563L8.19206 78.0751ZM9.39028 79.6362C9.27238 79.3362 9.11651 78.9802 8.90623 78.6679C8.69724 78.3575 8.41816 78.0657 8.04399 77.9306L7.87415 78.4008C8.10666 78.4848 8.31087 78.6789 8.49148 78.9471C8.67081 79.2134 8.81086 79.5288 8.92492 79.8191L9.39028 79.6362ZM9.38196 81.0229C9.60397 80.7932 9.63817 80.5119 9.60285 80.2654C9.56866 80.0268 9.46663 79.795 9.38328 79.6201L8.93192 79.8352C9.0137 80.0068 9.08538 80.1791 9.10791 80.3363C9.12931 80.4856 9.10324 80.5918 9.02243 80.6754L9.38196 81.0229ZM8.47178 81.066C8.60928 81.1952 8.78787 81.2359 8.94558 81.2231C9.10244 81.2103 9.26178 81.1436 9.37933 81.0256L9.02506 80.6727C8.99875 80.6991 8.95408 80.7207 8.90508 80.7247C8.85693 80.7286 8.82781 80.7145 8.81409 80.7016L8.47178 81.066ZM7.81526 81.4983C8.04976 81.6221 8.31703 81.5832 8.51315 81.4757C8.70893 81.3685 8.88908 81.1614 8.89291 80.8873L8.39296 80.8803C8.39234 80.9244 8.36003 80.9895 8.27296 81.0372C8.18622 81.0847 8.10027 81.0834 8.0488 81.0562L7.81526 81.4983ZM6.8916 81.5627C7.07245 81.7743 7.34998 81.8328 7.58007 81.7997C7.80928 81.7666 8.06167 81.6316 8.1648 81.3684L7.69926 81.186C7.68096 81.2327 7.61898 81.2889 7.50877 81.3048C7.39944 81.3205 7.3125 81.2856 7.27174 81.2379L6.8916 81.5627ZM6.3669 81.7967C6.53582 81.8946 6.74395 81.9126 6.9184 81.8661C7.09286 81.8196 7.29341 81.6869 7.32918 81.4355L6.83416 81.3651C6.83416 81.3651 6.83446 81.3636 6.83547 81.3617C6.83638 81.36 6.83671 81.3602 6.83489 81.3619C6.83048 81.366 6.81685 81.3757 6.78972 81.3829C6.7309 81.3986 6.66101 81.3892 6.61759 81.3641L6.3669 81.7967ZM5.86347 81.0833C5.94355 81.2973 6.06637 81.6225 6.3669 81.7967L6.61759 81.3641C6.49344 81.2921 6.42018 81.1444 6.33178 80.9081L5.86347 81.0833ZM5.80715 80.9326C5.83425 80.9974 5.84934 81.0348 5.85604 81.06L6.33922 80.9314C6.32179 80.8659 6.29075 80.793 6.2684 80.7396L5.80715 80.9326ZM5.94324 80.1149C5.84681 80.1588 5.77078 80.2313 5.72854 80.3289C5.68936 80.4195 5.68861 80.51 5.69691 80.5799C5.71255 80.7117 5.77235 80.8494 5.80715 80.9326L6.2684 80.7396C6.24842 80.6919 6.23094 80.6499 6.2169 80.6097C6.20269 80.569 6.1957 80.5402 6.19342 80.521C6.19105 80.501 6.1958 80.5081 6.18743 80.5275C6.17599 80.5539 6.15607 80.5674 6.15015 80.5701L5.94324 80.1149ZM6.48054 80.3487C6.44605 80.2943 6.3939 80.2246 6.32034 80.1711C6.24176 80.114 6.12784 80.0691 5.9936 80.0982L6.09978 80.5868C6.08328 80.5904 6.06547 80.5898 6.04963 80.5856C6.03513 80.5818 6.02738 80.5763 6.02646 80.5756C6.02572 80.5751 6.02905 80.5775 6.03569 80.5852C6.04217 80.5927 6.04981 80.6031 6.05825 80.6164L6.48054 80.3487ZM6.00514 78.5142C5.67046 79.16 5.68916 79.9641 6.05176 80.6056L6.48703 80.3595C6.20594 79.8622 6.19361 79.2372 6.44907 78.7442L6.00514 78.5142Z" fill="#042C89"/>
<path d="M26.4585 75.6281C26.3787 75.7394 25.1251 78.6014 25.1251 78.6014L23.4404 77.9734L24.8138 75L26.4585 75.6281Z" fill="#FDFDFF" stroke="#042C89" stroke-width="0.5"/>
<path d="M25.165 78.1582C25.5323 78.7862 25.5004 79.6131 25.0772 80.2093C25.1331 80.1139 25.2289 80.0106 25.3407 80.0424C25.5802 80.1616 25.3167 80.5114 25.2528 80.6863C25.157 80.901 25.0373 81.1316 24.8217 81.2429C24.6061 81.3542 24.2628 81.2588 24.2388 81.0282C23.9993 81.2747 23.4963 81.1634 23.3925 80.8533C23.0891 80.9884 22.6898 80.734 22.6978 80.424C22.5381 80.5512 22.2746 80.5035 22.1389 80.3604C21.8515 80.0344 22.0671 79.5813 22.2507 79.2553C22.586 78.5318 23.145 77.5619 24.0871 77.7607" fill="#FDFDFF"/>
<path d="M25.165 78.1582C25.5323 78.7862 25.5004 79.6131 25.0772 80.2093C25.1331 80.1139 25.2289 80.0106 25.3407 80.0424C25.5802 80.1616 25.3167 80.5114 25.2528 80.6863C25.157 80.901 25.0373 81.1316 24.8217 81.2429C24.6061 81.3542 24.2628 81.2588 24.2388 81.0282C23.9993 81.2747 23.4963 81.1634 23.3925 80.8533C23.0891 80.9884 22.6898 80.734 22.6978 80.424C22.5381 80.5512 22.2746 80.5035 22.1389 80.3604C21.8515 80.0344 22.0671 79.5813 22.2507 79.2553C22.586 78.5318 23.145 77.5619 24.0871 77.7607" stroke="#042C89" stroke-width="0.5"/>
<mask id="path-57-inside-4_154_33448" fill="white">
<path fill-rule="evenodd" clip-rule="evenodd" d="M6.93839 84.4563L24.0251 84.7743C24.0251 84.7743 24.3752 81.2199 24.5951 76.836L26.8737 77.6782L30.8463 69.1781C31.3791 68.3415 31.2168 67.2352 30.402 66.5833L23.8337 61.3137C23.7108 61.2165 23.5865 61.1313 23.4612 61.0574C22.5311 59.8425 17.398 59.0156 17.398 59.0156H15.6574H13.7491C13.7491 59.0156 8.83071 59.9219 8.00033 61.0747C7.83939 61.2992 7.69482 61.5922 7.56516 61.944C7.50955 61.9942 7.45461 62.0473 7.40044 62.1033L1.59416 68.2023C1.37622 68.4306 1.223 68.6922 1.13299 68.9669L0.624023 69.4878L5.46325 78.1777L6.60738 77.6531C6.72564 81.4928 6.93839 84.4563 6.93839 84.4563ZM6.53075 72.6337C6.53347 71.575 6.55015 70.5151 6.58569 69.487C6.21115 69.7926 5.84985 70.0843 5.51469 70.3516L6.53075 72.6337ZM24.7262 67.9656C24.7953 69.9044 24.7747 72.0348 24.7082 74.1083L26.5265 69.0703C25.9668 68.7329 25.3517 68.3556 24.7262 67.9656Z"/>
</mask>
<path fill-rule="evenodd" clip-rule="evenodd" d="M6.93839 84.4563L24.0251 84.7743C24.0251 84.7743 24.3752 81.2199 24.5951 76.836L26.8737 77.6782L30.8463 69.1781C31.3791 68.3415 31.2168 67.2352 30.402 66.5833L23.8337 61.3137C23.7108 61.2165 23.5865 61.1313 23.4612 61.0574C22.5311 59.8425 17.398 59.0156 17.398 59.0156H15.6574H13.7491C13.7491 59.0156 8.83071 59.9219 8.00033 61.0747C7.83939 61.2992 7.69482 61.5922 7.56516 61.944C7.50955 61.9942 7.45461 62.0473 7.40044 62.1033L1.59416 68.2023C1.37622 68.4306 1.223 68.6922 1.13299 68.9669L0.624023 69.4878L5.46325 78.1777L6.60738 77.6531C6.72564 81.4928 6.93839 84.4563 6.93839 84.4563ZM6.53075 72.6337C6.53347 71.575 6.55015 70.5151 6.58569 69.487C6.21115 69.7926 5.84985 70.0843 5.51469 70.3516L6.53075 72.6337ZM24.7262 67.9656C24.7953 69.9044 24.7747 72.0348 24.7082 74.1083L26.5265 69.0703C25.9668 68.7329 25.3517 68.3556 24.7262 67.9656Z" fill="#0DD180"/>
<path d="M24.0251 84.7743L24.0158 85.2742L24.4774 85.2828L24.5227 84.8233L24.0251 84.7743ZM6.93839 84.4563L6.43968 84.4921L6.47239 84.9477L6.92909 84.9562L6.93839 84.4563ZM24.5951 76.836L24.7684 76.367L24.1298 76.131L24.0957 76.811L24.5951 76.836ZM26.8737 77.6782L26.7003 78.1472L27.1318 78.3067L27.3266 77.8899L26.8737 77.6782ZM30.8463 69.1781L30.4246 68.9095L30.4071 68.9369L30.3933 68.9664L30.8463 69.1781ZM30.402 66.5833L30.0892 66.9733L30.0897 66.9738L30.402 66.5833ZM23.8337 61.3137L24.1466 60.9237L24.144 60.9216L23.8337 61.3137ZM23.4612 61.0574L23.0642 61.3614L23.1234 61.4387L23.2073 61.4881L23.4612 61.0574ZM17.398 59.0156L17.4775 58.522L17.438 58.5156H17.398V59.0156ZM13.7491 59.0156V58.5156H13.7034L13.6585 58.5239L13.7491 59.0156ZM8.00033 61.0747L7.59462 60.7825L7.59399 60.7834L8.00033 61.0747ZM7.56516 61.944L7.90031 62.3151L7.99172 62.2325L8.03432 62.1169L7.56516 61.944ZM7.40044 62.1033L7.04119 61.7555L7.0383 61.7585L7.40044 62.1033ZM1.59416 68.2023L1.95582 68.5476L1.9563 68.5471L1.59416 68.2023ZM1.13299 68.9669L1.49059 69.3164L1.57192 69.2332L1.60814 69.1226L1.13299 68.9669ZM0.624023 69.4878L0.266417 69.1383L0.00569624 69.4051L0.187189 69.731L0.624023 69.4878ZM5.46325 78.1777L5.02642 78.421L5.25138 78.825L5.67167 78.6322L5.46325 78.1777ZM6.60738 77.6531L7.10714 77.6377L7.08394 76.8845L6.39896 77.1986L6.60738 77.6531ZM6.53075 72.6337L6.07397 72.8371L7.03075 72.635L6.53075 72.6337ZM6.58569 69.487L7.08539 69.5043L7.12346 68.403L6.2696 69.0996L6.58569 69.487ZM5.51469 70.3516L5.20294 69.9606L4.90066 70.2017L5.05792 70.5549L5.51469 70.3516ZM24.7262 67.9656L24.9907 67.5413L24.193 67.0438L24.2265 67.9834L24.7262 67.9656ZM24.7082 74.1083L24.2084 74.0923L25.1785 74.2781L24.7082 74.1083ZM26.5265 69.0703L26.9969 69.24L27.1362 68.8539L26.7846 68.642L26.5265 69.0703ZM24.0344 84.2744L6.9477 83.9563L6.92909 84.9562L24.0158 85.2742L24.0344 84.2744ZM24.0957 76.811C23.9861 78.9967 23.844 80.9761 23.7292 82.4092C23.6719 83.1256 23.6214 83.7052 23.5853 84.1055C23.5672 84.3056 23.5527 84.4608 23.5428 84.5659C23.5378 84.6184 23.534 84.6584 23.5314 84.6852C23.5301 84.6986 23.5291 84.7087 23.5285 84.7154C23.5281 84.7187 23.5279 84.7212 23.5277 84.7229C23.5277 84.7237 23.5276 84.7243 23.5276 84.7247C23.5275 84.7249 23.5275 84.7251 23.5275 84.7252C23.5275 84.7252 23.5275 84.7252 23.5275 84.7252C23.5275 84.7253 23.5275 84.7253 24.0251 84.7743C24.5227 84.8233 24.5227 84.8233 24.5227 84.8232C24.5227 84.8232 24.5227 84.8231 24.5227 84.8231C24.5227 84.8229 24.5227 84.8228 24.5228 84.8225C24.5228 84.822 24.5229 84.8214 24.523 84.8205C24.5231 84.8187 24.5234 84.816 24.5237 84.8125C24.5244 84.8055 24.5254 84.7951 24.5268 84.7814C24.5294 84.7539 24.5333 84.7133 24.5383 84.6601C24.5484 84.5536 24.563 84.397 24.5812 84.1953C24.6176 83.7921 24.6684 83.2092 24.726 82.489C24.8413 81.0489 24.9842 79.0592 25.0944 76.8611L24.0957 76.811ZM27.047 77.2093L24.7684 76.367L24.4217 77.305L26.7003 78.1472L27.047 77.2093ZM30.3933 68.9664L26.4207 77.4665L27.3266 77.8899L31.2993 69.3898L30.3933 68.9664ZM30.0897 66.9738C30.7037 67.4649 30.8212 68.2867 30.4246 68.9095L31.2681 69.4467C31.937 68.3963 31.73 67.0054 30.7144 66.1929L30.0897 66.9738ZM23.5208 61.7037L30.0892 66.9733L30.7149 66.1933L24.1466 60.9237L23.5208 61.7037ZM23.2073 61.4881C23.3123 61.55 23.4179 61.6223 23.5234 61.7058L24.144 60.9216C24.0038 60.8107 23.8606 60.7125 23.7152 60.6267L23.2073 61.4881ZM17.398 59.0156C17.3185 59.5093 17.3185 59.5093 17.3185 59.5093C17.3185 59.5093 17.3185 59.5093 17.3185 59.5093C17.3186 59.5093 17.3188 59.5093 17.319 59.5093C17.3195 59.5094 17.3203 59.5096 17.3214 59.5097C17.3236 59.5101 17.327 59.5107 17.3316 59.5114C17.3408 59.5129 17.3547 59.5152 17.3731 59.5183C17.4097 59.5245 17.4641 59.5337 17.5339 59.546C17.6734 59.5705 17.8746 59.607 18.1191 59.6546C18.6087 59.7499 19.2693 59.8892 19.9567 60.0653C20.6466 60.2421 21.3511 60.4529 21.9335 60.6892C22.2245 60.8073 22.4754 60.9279 22.6747 61.0486C22.879 61.1723 23.0018 61.2798 23.0642 61.3614L23.8582 60.7535C23.6882 60.5313 23.4471 60.3472 23.1926 60.1932C22.9331 60.0361 22.6304 59.8928 22.3095 59.7626C21.6677 59.5021 20.9146 59.2784 20.2049 59.0966C19.4928 58.9141 18.812 58.7707 18.3101 58.673C18.0589 58.6241 17.8517 58.5865 17.7069 58.5611C17.6345 58.5484 17.5777 58.5387 17.5387 58.5321C17.5192 58.5288 17.5042 58.5264 17.4939 58.5247C17.4887 58.5238 17.4848 58.5232 17.482 58.5227C17.4807 58.5225 17.4796 58.5223 17.4789 58.5222C17.4785 58.5221 17.4782 58.5221 17.478 58.5221C17.4779 58.522 17.4777 58.522 17.4777 58.522C17.4776 58.522 17.4775 58.522 17.398 59.0156ZM15.6574 59.5156H17.398V58.5156H15.6574V59.5156ZM13.7491 59.5156H15.6574V58.5156H13.7491V59.5156ZM8.40603 61.367C8.45617 61.2974 8.56315 61.1977 8.75272 61.078C8.93672 60.9619 9.17112 60.8437 9.44546 60.7264C9.99415 60.4918 10.6629 60.2773 11.32 60.0946C11.9747 59.9126 12.6056 59.7655 13.0738 59.6639C13.3075 59.6131 13.5 59.5738 13.6336 59.5472C13.7004 59.534 13.7524 59.5239 13.7875 59.5172C13.805 59.5139 13.8184 59.5113 13.8272 59.5097C13.8316 59.5089 13.8348 59.5083 13.8369 59.5079C13.838 59.5077 13.8387 59.5075 13.8392 59.5074C13.8395 59.5074 13.8396 59.5074 13.8397 59.5074C13.8397 59.5073 13.8397 59.5073 13.8398 59.5073C13.8398 59.5073 13.8397 59.5073 13.7491 59.0156C13.6585 58.5239 13.6584 58.5239 13.6584 58.5239C13.6583 58.5239 13.6582 58.524 13.6581 58.524C13.6579 58.524 13.6576 58.5241 13.6572 58.5241C13.6565 58.5243 13.6555 58.5245 13.6542 58.5247C13.6516 58.5252 13.6478 58.5259 13.6428 58.5268C13.633 58.5287 13.6186 58.5314 13.5999 58.535C13.5625 58.5421 13.5081 58.5526 13.4388 58.5664C13.3001 58.5939 13.1018 58.6344 12.8615 58.6866C12.3815 58.7909 11.7309 58.9425 11.0522 59.1312C10.376 59.3191 9.65938 59.5474 9.05232 59.8069C8.74879 59.9367 8.4627 60.0785 8.21879 60.2325C7.98044 60.383 7.75207 60.5639 7.59462 60.7825L8.40603 61.367ZM8.03432 62.1169C8.15477 61.7901 8.28076 61.5417 8.40666 61.3661L7.59399 60.7834C7.39803 61.0567 7.23486 61.3943 7.09601 61.7711L8.03432 62.1169ZM7.23002 61.573C7.16599 61.6308 7.10302 61.6916 7.0412 61.7555L7.75968 62.451C7.80621 62.403 7.85312 62.3577 7.90031 62.3151L7.23002 61.573ZM7.0383 61.7585L1.23202 67.8576L1.9563 68.5471L7.76258 62.448L7.0383 61.7585ZM1.2325 67.8571C0.96311 68.1393 0.771084 68.4656 0.657834 68.8113L1.60814 69.1226C1.67491 68.9188 1.78933 68.722 1.95582 68.5476L1.2325 67.8571ZM0.775382 68.6175L0.266417 69.1383L0.981629 69.8372L1.49059 69.3164L0.775382 68.6175ZM0.187189 69.731L5.02642 78.421L5.90009 77.9345L1.06086 69.2445L0.187189 69.731ZM5.67167 78.6322L6.81579 78.1076L6.39896 77.1986L5.25484 77.7233L5.67167 78.6322ZM6.93839 84.4563C7.43711 84.4205 7.43711 84.4205 7.43711 84.4205C7.43711 84.4204 7.43711 84.4204 7.4371 84.4204C7.4371 84.4203 7.43709 84.4202 7.43708 84.42C7.43706 84.4197 7.43702 84.4192 7.43697 84.4185C7.43687 84.4171 7.43672 84.415 7.43653 84.4123C7.43613 84.4067 7.43554 84.3983 7.43475 84.3871C7.43319 84.3647 7.43086 84.3313 7.42786 84.2873C7.42185 84.1994 7.41312 84.0693 7.40227 83.901C7.38056 83.5645 7.35036 83.0756 7.31646 82.4668C7.24866 81.249 7.16611 79.5525 7.10714 77.6377L6.10761 77.6685C6.1669 79.5934 6.24986 81.2985 6.31801 82.5224C6.35208 83.1344 6.38246 83.6263 6.40434 83.9654C6.41528 84.135 6.4241 84.2664 6.43018 84.3555C6.43323 84.4001 6.43559 84.4341 6.4372 84.457C6.438 84.4685 6.43862 84.4772 6.43903 84.483C6.43924 84.486 6.4394 84.4882 6.43951 84.4897C6.43956 84.4905 6.4396 84.491 6.43963 84.4914C6.43965 84.4916 6.43966 84.4918 6.43966 84.4919C6.43967 84.4919 6.43967 84.492 6.43967 84.492C6.43968 84.492 6.43968 84.4921 6.93839 84.4563ZM7.03075 72.635C7.03346 71.5806 7.05007 70.526 7.08539 69.5043L6.08598 69.4698C6.05023 70.5041 6.03348 71.5695 6.03075 72.6324L7.03075 72.635ZM5.82644 70.7425C6.16322 70.4739 6.52597 70.1811 6.90178 69.8745L6.2696 69.0996C5.89633 69.4042 5.53648 69.6946 5.20294 69.9606L5.82644 70.7425ZM6.98752 72.4303L5.97147 70.1482L5.05792 70.5549L6.07397 72.8371L6.98752 72.4303ZM24.2265 67.9834C24.2951 69.9071 24.2748 72.0253 24.2084 74.0923L25.2079 74.1244C25.2747 72.0443 25.2955 69.9018 25.2258 67.9477L24.2265 67.9834ZM25.1785 74.2781L26.9969 69.24L26.0562 68.9005L24.2379 73.9386L25.1785 74.2781ZM26.7846 68.642C26.2272 68.3061 25.6143 67.9301 24.9907 67.5413L24.4616 68.3898C25.0891 68.7811 25.7063 69.1597 26.2685 69.4985L26.7846 68.642Z" fill="#042C89" mask="url(#path-57-inside-4_154_33448)"/>
<path d="M7.87227 49.6816C6.47499 48.4334 4.87012 50.9218 7.84832 51.5181L7.87227 49.6816Z" fill="#FDFDFF"/>
<path d="M23.2822 49.6271C25.0627 47.9656 26.1566 51.2251 23.0586 51.3523L23.2822 49.6271Z" fill="#FDFDFF"/>
<mask id="path-61-inside-5_154_33448" fill="white">
<path fill-rule="evenodd" clip-rule="evenodd" d="M20.5678 57.6545C22.7236 56.7124 23.4208 54.2211 23.5648 52.1475C24.3404 52.1273 25.2106 51.7004 25.5825 51.1503C26.318 49.2869 25.093 48.0741 23.6355 48.6264C23.7266 45.1966 23.6831 41.5323 20.1286 39.5519C15.841 37.4133 8.94243 38.6853 7.93639 43.3918C7.76073 44.1709 7.76872 44.9739 7.7767 45.761C7.86395 46.6772 7.8096 47.6618 7.73275 48.664C6.235 48.023 4.94165 49.2474 5.6927 51.1503C6.04076 51.6651 6.82524 52.072 7.56021 52.1387C7.6122 53.7809 7.99209 55.3057 9.26979 56.4699C10.4945 57.5846 12.1092 58.1868 13.7803 58.4325V59.2269H17.501V58.4491C18.6802 58.2974 19.7498 58.0104 20.5678 57.6545Z"/>
</mask>
<path fill-rule="evenodd" clip-rule="evenodd" d="M20.5678 57.6545C22.7236 56.7124 23.4208 54.2211 23.5648 52.1475C24.3404 52.1273 25.2106 51.7004 25.5825 51.1503C26.318 49.2869 25.093 48.0741 23.6355 48.6264C23.7266 45.1966 23.6831 41.5323 20.1286 39.5519C15.841 37.4133 8.94243 38.6853 7.93639 43.3918C7.76073 44.1709 7.76872 44.9739 7.7767 45.761C7.86395 46.6772 7.8096 47.6618 7.73275 48.664C6.235 48.023 4.94165 49.2474 5.6927 51.1503C6.04076 51.6651 6.82524 52.072 7.56021 52.1387C7.6122 53.7809 7.99209 55.3057 9.26979 56.4699C10.4945 57.5846 12.1092 58.1868 13.7803 58.4325V59.2269H17.501V58.4491C18.6802 58.2974 19.7498 58.0104 20.5678 57.6545Z" fill="#FDFDFF"/>
<path d="M23.5648 52.1475L23.5518 51.6477L23.0974 51.6595L23.066 52.1129L23.5648 52.1475ZM20.5678 57.6545L20.7673 58.113L20.768 58.1127L20.5678 57.6545ZM25.5825 51.1503L25.9967 51.4304L26.0275 51.385L26.0476 51.3339L25.5825 51.1503ZM23.6355 48.6264L23.1356 48.6132L23.1159 49.358L23.8126 49.094L23.6355 48.6264ZM20.1286 39.5519L20.372 39.1151L20.362 39.1095L20.3518 39.1045L20.1286 39.5519ZM7.93639 43.3918L8.42418 43.5018L8.42535 43.4963L7.93639 43.3918ZM7.7767 45.761L7.27673 45.7661L7.27694 45.7873L7.27895 45.8084L7.7767 45.761ZM7.73275 48.664L7.53603 49.1236L8.17791 49.3983L8.23129 48.7022L7.73275 48.664ZM5.6927 51.1503L5.22761 51.3339L5.24776 51.385L5.2785 51.4304L5.6927 51.1503ZM7.56021 52.1387L8.05996 52.1228L8.04596 51.6806L7.60535 51.6407L7.56021 52.1387ZM9.26979 56.4699L8.93304 56.8395L8.93324 56.8397L9.26979 56.4699ZM13.7803 58.4325H14.2803V58.0007L13.853 57.9379L13.7803 58.4325ZM13.7803 59.2269H13.2803V59.7269H13.7803V59.2269ZM17.501 59.2269V59.7269H18.001V59.2269H17.501ZM17.501 58.4491L17.4372 57.9532L17.001 58.0093V58.4491H17.501ZM23.066 52.1129C22.9237 54.162 22.2433 56.3767 20.3676 57.1963L20.768 58.1127C23.204 57.0481 23.9179 54.2802 24.0636 52.1821L23.066 52.1129ZM25.1683 50.8703C25.0449 51.0528 24.8127 51.2469 24.5039 51.3992C24.1989 51.5496 23.858 51.6397 23.5518 51.6477L23.5778 52.6473C24.0472 52.6351 24.5292 52.5016 24.9462 52.2961C25.3593 52.0923 25.7482 51.7979 25.9967 51.4304L25.1683 50.8703ZM23.8126 49.094C24.3783 48.8796 24.8132 49.0268 25.0502 49.306C25.2937 49.5929 25.4389 50.1522 25.1174 50.9668L26.0476 51.3339C26.4616 50.285 26.362 49.3062 25.8126 48.6589C25.2566 48.0039 24.3502 47.8209 23.4583 48.1589L23.8126 49.094ZM19.8853 39.9887C23.1451 41.805 23.2279 45.1407 23.1356 48.6132L24.1353 48.6397C24.2253 45.2524 24.2211 41.2597 20.372 39.1151L19.8853 39.9887ZM8.42535 43.4963C8.87515 41.392 10.6513 39.9984 12.9312 39.3879C15.2105 38.7776 17.8805 38.9893 19.9055 39.9993L20.3518 39.1045C18.0891 37.9759 15.166 37.7543 12.6726 38.422C10.1798 39.0894 8.00367 40.6851 7.44744 43.2873L8.42535 43.4963ZM8.27668 45.7559C8.26859 44.9589 8.26343 44.2147 8.42415 43.5018L7.44863 43.2819C7.25804 44.1272 7.26884 44.9889 7.27673 45.7661L8.27668 45.7559ZM8.23129 48.7022C8.30821 47.6992 8.36615 46.6767 8.27445 45.7136L7.27895 45.8084C7.36174 46.6778 7.311 47.6245 7.23422 48.6257L8.23129 48.7022ZM6.15779 50.9668C5.82943 50.1348 5.98754 49.5699 6.24139 49.2873C6.48902 49.0116 6.94584 48.871 7.53603 49.1236L7.92948 48.2043C7.02191 47.8159 6.08318 47.967 5.49746 48.619C4.91796 49.2642 4.80492 50.2629 5.22761 51.3339L6.15779 50.9668ZM7.60535 51.6407C6.98201 51.5842 6.35168 51.2323 6.1069 50.8703L5.2785 51.4304C5.72984 52.0979 6.66846 52.5599 7.51507 52.6366L7.60535 51.6407ZM9.60654 56.1003C8.47132 55.066 8.10992 53.7011 8.05996 52.1228L7.06046 52.1545C7.11447 53.8608 7.51286 55.5455 8.93304 56.8395L9.60654 56.1003ZM13.853 57.9379C12.2465 57.7016 10.7358 57.1281 9.60634 56.1001L8.93324 56.8397C10.2533 58.0411 11.9718 58.672 13.7075 58.9272L13.853 57.9379ZM13.2803 58.4325V59.2269H14.2803V58.4325H13.2803ZM13.7803 59.7269H17.501V58.7269H13.7803V59.7269ZM18.001 59.2269V58.4491H17.001V59.2269H18.001ZM20.3683 57.196C19.6014 57.5297 18.5791 57.8063 17.4372 57.9532L17.5648 58.945C18.7814 58.7885 19.8981 58.4911 20.7673 58.113L20.3683 57.196Z" fill="#042C89" mask="url(#path-61-inside-5_154_33448)"/>
<path d="M16.4033 34.7334C17.205 34.688 17.943 34.7439 18.4775 34.9414C18.7427 35.0394 18.9452 35.1676 19.083 35.3232C19.2174 35.4751 19.3002 35.6638 19.3125 35.9062L19.3291 36.2393L19.6436 36.1299C20.3998 35.8673 21.3681 35.6748 22.2764 35.7158C23.1811 35.7567 23.986 36.0268 24.4902 36.6426C24.621 36.8572 24.6373 37.1395 24.5439 37.3828C24.4507 37.6257 24.2597 37.804 23.998 37.8408L23.9854 38.334C24.8332 38.4978 25.4081 39.1633 25.5127 39.7744C25.5638 40.0735 25.5014 40.346 25.3232 40.5518C25.1434 40.7593 24.8141 40.9349 24.2637 40.9717L23.7646 41.0049L24.0908 41.3838C24.7672 42.1707 24.7368 43.3029 24.5303 44.3945L24.5293 44.3955C24.4542 44.8016 24.3882 45.2785 24.3193 45.7822C24.2502 46.2882 24.1785 46.8235 24.0928 47.3545C24.0178 47.8186 23.9302 48.2725 23.8291 48.6953C23.7333 47.2624 23.3246 46.215 22.8711 45.2656C22.2666 44.0001 21.6221 42.9663 21.4873 41.3984L21.4629 41.1133L21.1846 41.1758C17.3698 42.0251 13.7861 41.8542 9.87109 41.3154L9.59766 41.2773L9.58691 41.5527C9.58041 41.7179 9.52536 41.9452 9.43066 42.2197C9.3374 42.49 9.21193 42.7884 9.07715 43.0918C8.87971 43.5363 8.65516 44.0046 8.49902 44.3838L8.36914 44.7295C7.77547 46.5664 7.57167 47.6475 7.45215 49.4746C7.3768 49.1318 7.30562 48.7897 7.23535 48.4453C7.05799 47.5762 6.87785 46.6943 6.60254 45.7832L6.60156 45.7793L6.38477 45.0645C6.18085 44.3386 6.02651 43.5837 6.02148 42.8574C6.0149 41.8963 6.26856 41.0019 7.00098 40.2871L7.14648 40.1445L7.03711 39.9736C6.66264 39.3877 6.56355 38.8257 6.64746 38.3086C6.73218 37.7866 7.00744 37.2891 7.41504 36.8457C8.23463 35.9541 9.55211 35.3264 10.7324 35.2051L10.748 35.2031L10.7627 35.2002C11.0186 35.142 11.3387 35.1194 11.6055 35.1777C11.8693 35.2355 12.0365 35.3579 12.0967 35.5596L12.1914 35.8799L12.4717 35.6992C12.76 35.5131 13.3332 35.2923 14.0557 35.1064C14.7709 34.9225 15.6068 34.7786 16.4033 34.7334Z" fill="#042C89" stroke="#042C89" stroke-width="0.5"/>
<path d="M11.601 39.0051C12.136 41.1596 13.8127 38.3453 14.7948 39.7047C14.9465 39.9194 15.21 39.9035 15.4575 39.8081C16.1282 39.4185 16.8787 38.3373 17.7331 38.9654C17.9726 39.1562 18.0285 39.4026 18.1642 39.6968C18.819 40.619 19.8649 39.3311 20.6714 39.3311C21.0546 39.2993 21.6534 39.4901 21.6534 39.9194C21.374 39.6173 20.8949 39.4821 20.4558 39.6809C19.833 39.9592 19.1942 40.5952 18.4437 40.4282C17.9167 40.3885 17.6932 39.7683 17.5015 39.4106C17.2939 39.1641 16.9666 39.2277 16.6153 39.4662C15.8887 40.1182 15.0663 40.786 14.3078 39.7445C13.5572 39.4026 12.7747 40.4839 12.0162 39.991C11.6809 39.7922 11.4254 39.347 11.601 39.0051Z" fill="#969DA7"/>
</g>
<defs>
<clipPath id="clip0_154_33448">
<rect width="78" height="106" fill="white"/>
</clipPath>
</defs>
</svg>
