<svg width="103" height="88" viewBox="0 0 103 88" fill="none" xmlns="http://www.w3.org/2000/svg">
<g clip-path="url(#clip0_145_33318)">
<path d="M34.5 74C29.7 69.2 27.5 64 27 62L14.5 66C16.6667 71.1667 21.9 82.2 25.5 85C30 88.5 40.5 80 34.5 74Z" fill="#FDFDFF" stroke="#042C89"/>
<path d="M5.00017 42.5051L22.5002 37.0051C37.0003 30.0063 49.5 14.0051 56.5 6.00511C62.1 -0.394887 65.1667 1.33845 66 3.00511C76.5 18.0051 83.5 44.0051 87 55.5051C89.8 64.7051 83.5 65.6718 80 65.0051C74.3333 63.0051 60.3 59.0051 49.5 59.0051C36 59.0051 25 63.5051 17.5 65.0051C10 66.5051 9.00017 66.5051 3.50017 55.5051C-0.899826 46.7051 2.66684 43.1718 5.00017 42.5051Z" fill="#0DD180" stroke="#042C89"/>
<path d="M88 30.5032C86 22.9032 80.1667 24.0032 77.5 25.5032L82 38.5039C88.8 36.5039 88.8333 32.3367 88 30.5032Z" fill="#00A6E3" stroke="#042C89"/>
<path d="M83.6996 23.4047C81.8996 23.2047 79.8996 23.6047 77.9996 24.0047C76.0996 19.3047 73.9996 14.6047 71.6996 10.1047C70.2996 7.20472 68.5996 2.70472 65.7996 0.804718C61.9996 -1.79528 57.5996 2.50472 55.1996 5.20472C44.8996 16.5047 35.4996 28.4047 21.6996 35.7047C21.5996 35.8047 21.4996 35.8047 21.3996 35.9047C17.4996 37.1047 13.5996 38.3047 9.79961 39.6047C7.29961 40.4047 3.89961 41.0047 1.89961 42.8047C-1.60039 45.9047 0.699614 52.8047 2.09961 56.3047C3.39961 59.7047 6.49961 66.5047 10.3996 67.6047C11.4996 67.9047 12.6996 67.7047 13.9996 67.4047C16.2996 72.2047 18.4996 77.2047 21.0996 81.9047C22.7996 84.9047 24.5996 88.9047 28.5996 87.5047C32.7996 86.1047 38.0996 81.8047 36.8996 76.8047C36.2996 74.3047 33.8996 72.4047 32.4996 70.4047C30.8996 68.1047 29.6996 65.7047 28.4996 63.2047C29.0996 63.0047 29.7996 62.8047 30.3996 62.6047C38.2996 61.1047 46.2996 60.3047 54.2996 61.2047C61.4996 62.0047 68.4996 63.9047 75.4996 65.4047C78.9996 66.1047 85.5996 68.9047 87.8996 64.7047C90.2996 60.4047 87.0996 52.4047 85.9996 48.1047C85.1996 45.2047 84.3996 42.3047 83.4996 39.5047C85.3996 38.2047 87.7996 37.0047 88.7996 34.8047C89.7996 32.5047 88.7996 30.0047 87.7996 27.8047C87.0996 25.9047 85.8996 23.7047 83.6996 23.4047ZM8.09961 61.2047C6.89961 59.6047 5.99961 57.9047 5.19961 56.0047C4.39961 54.2047 3.79961 52.3047 3.49961 50.3047C2.69961 46.1047 5.09961 44.2047 8.69961 43.0047C13.0996 41.5047 17.4996 40.1047 21.8996 38.8047C24.0996 45.9047 26.4996 52.9047 28.9996 59.9047C25.0996 61.2047 21.0996 62.3047 17.0996 63.3047C13.3996 64.3047 10.5996 64.7047 8.09961 61.2047ZM31.5996 73.0047C31.9996 73.5047 32.5996 74.2047 32.9996 74.7047C34.9996 77.8047 34.9996 79.7047 32.3996 82.5047C31.6996 83.3047 30.3996 84.1047 29.4996 84.5047C28.5996 84.9047 27.9996 85.1047 27.3996 85.2047C27.7996 84.5047 28.1996 83.7047 28.3996 82.9047C28.8996 81.5047 26.6996 80.9047 26.1996 82.3047C25.9996 83.0047 25.6996 83.6047 25.2996 84.2047C25.1996 84.1047 25.0996 84.0047 24.9996 83.9047C24.7996 83.7047 24.5996 83.4047 24.3996 83.2047C24.3996 83.2047 24.3996 83.1047 24.4996 83.1047C24.6996 82.6047 24.9996 82.2047 25.1996 81.7047C25.4996 81.1047 25.6996 80.6047 25.8996 80.0047C26.3996 78.6047 24.1996 78.0047 23.6996 79.4047C23.4996 80.0047 23.1996 80.5047 22.8996 81.1047C22.5996 80.6047 22.2996 80.0047 22.0996 79.5047C22.5996 78.4047 23.0996 77.2047 23.5996 76.1047C23.8996 75.5047 23.7996 74.9047 23.1996 74.6047C22.6996 74.3047 21.8996 74.4047 21.6996 75.0047C21.3996 75.6047 21.0996 76.3047 20.7996 76.9047C20.5996 76.5047 20.3996 76.0047 20.1996 75.6047C20.0996 75.4047 19.9996 75.2047 19.8996 75.0047C19.9996 74.9047 20.0996 74.8047 20.0996 74.7047C20.5996 73.8047 21.0996 73.0047 21.5996 72.1047C22.2996 70.8047 20.3996 69.7047 19.6996 71.0047C19.3996 71.5047 19.0996 72.1047 18.7996 72.6047C18.4996 72.0047 18.1996 71.4047 17.8996 70.8047C17.9996 70.7047 18.0996 70.7047 18.0996 70.6047C18.4996 70.0047 18.9996 69.4047 19.3996 68.8047C19.6996 68.3047 19.4996 67.6047 18.9996 67.3047C18.3996 67.0047 17.7996 67.2047 17.4996 67.7047C17.2996 68.0047 17.0996 68.3047 16.7996 68.6047C16.4996 68.1047 16.2996 67.5047 15.9996 67.0047C16.5996 66.8047 17.1996 66.6047 17.7996 66.5047C20.5996 65.8047 23.4996 65.0047 26.2996 64.1047C27.8996 67.1047 29.4996 70.2047 31.5996 73.0047ZM73.1996 61.8047C66.6996 60.4047 60.2996 58.8047 53.6996 58.1047C46.0996 57.3047 38.6996 58.1047 31.1996 59.4047C28.5996 52.2047 26.1996 45.0047 23.8996 37.8047C36.2996 31.0047 45.8996 20.5047 54.9996 9.90472C56.0996 8.70472 57.6996 6.30472 59.5996 4.70472C64.9996 12.7047 68.4996 22.7047 71.9996 31.6047C75.9996 41.8047 79.3996 52.8047 81.2996 63.6047C78.5996 63.5047 75.0996 62.2047 73.1996 61.8047ZM85.6996 60.9047C85.5996 62.5047 84.7996 63.2047 83.5996 63.6047C81.5996 52.4047 78.1996 40.9047 73.8996 30.4047C70.2996 21.5047 66.8996 11.6047 61.4996 3.60472C62.4996 3.20472 63.4996 3.10472 64.3996 3.60472C65.6996 4.30472 66.7996 7.20472 67.3996 8.50472C70.4996 14.2047 73.0996 20.2047 75.4996 26.2047C78.3996 33.4047 80.8996 40.7047 82.8996 48.2047C83.9996 51.9047 85.8996 56.9047 85.6996 60.9047ZM86.2996 34.6047C85.4996 35.7047 84.0996 36.5047 82.8996 37.3047C81.6996 33.5047 80.2996 29.8047 78.8996 26.2047C79.7996 26.1047 80.6996 25.9047 81.5996 25.8047C83.7996 25.6047 84.5996 26.2047 85.6996 28.2047C86.5996 30.1047 87.7996 32.6047 86.2996 34.6047Z" fill="#042C89"/>
<path d="M84.3 16.7C84.3 14.6 84.3 12.4 84.3 10.3C84.3 8.9 82.1 8.9 82 10.3C82 12.4 82 14.6 82 16.7C82.1 18.1 84.3 18.1 84.3 16.7Z" fill="#042C89"/>
<path d="M93.4996 21.0104C94.6996 19.7104 95.7996 18.4104 96.9996 17.1104C97.9996 16.0104 96.3996 14.4104 95.3996 15.5104C94.1996 16.8104 93.0996 18.1104 91.8996 19.4104C90.8996 20.5104 92.4996 22.1104 93.4996 21.0104Z" fill="#042C89"/>
<path d="M101.199 28.3031C99.4994 28.2031 97.8994 28.2031 96.1994 28.2031C94.7994 28.2031 94.7994 30.4031 96.1994 30.5031C97.8994 30.6031 99.4994 30.5031 101.199 30.6031C102.599 30.7031 102.599 28.4031 101.199 28.3031Z" fill="#042C89"/>
<path d="M92.6996 38.6067C91.4996 37.8067 90.3996 39.7067 91.5996 40.5067C92.9996 41.5067 94.3996 42.7067 95.6996 43.9067C96.7996 44.9067 98.3996 43.3067 97.2996 42.3067C95.7996 41.0067 94.2996 39.7067 92.6996 38.6067Z" fill="#042C89"/>
<path d="M12.1993 49.2031C13.4993 48.7031 12.9993 46.5031 11.5993 47.0031C10.0993 47.6031 8.59931 48.2031 7.09931 48.8031C5.79931 49.3031 6.29931 51.5031 7.69931 51.0031C9.09931 50.4031 10.5993 49.8031 12.1993 49.2031Z" fill="#042C89"/>
<path d="M12.8 50.7094C11.2 51.4094 9.59996 52.0094 7.99996 52.5094C6.59996 52.9094 7.19996 55.1094 8.59996 54.7094C10.4 54.2094 12.2 53.5094 13.9 52.6094C15.2 52.0094 14.1 50.1094 12.8 50.7094Z" fill="#042C89"/>
</g>
<defs>
<clipPath id="clip0_145_33318">
<rect width="102.3" height="87.9" fill="white"/>
</clipPath>
</defs>
</svg>
